<?xml version="1.0" encoding="UTF-8"?>
<svg id="Layer_2" data-name="Layer 2" xmlns="http://www.w3.org/2000/svg" viewBox="0 0 251.48 34.85">
  <defs>
    <style>
      .cls-1 {
        fill: #0a192f;
      }

      .cls-2, .cls-3 {
        fill: #89d0c2;
      }

      .cls-3 {
        font-family: SegoeUI-Semibold, 'Segoe UI';
        font-size: 27.28px;
        font-weight: 600;
      }

      .cls-4 {
        letter-spacing: 0em;
      }
    </style>
  </defs>
  <g id="Layer_1-2" data-name="Layer 1">
    <g id="Featued_projects" data-name="Featued projects">
      <g id="Variant_4" data-name="Variant 4">
        <rect class="cls-1" x="0" y="0" width="26.18" height="26" rx="3.89" ry="3.89"/>
        <g id="Logo_4" data-name="Logo 4">
          <g>
            <path class="cls-2" d="m14.44,22.97c-.25,0-.49-.09-.68-.25-.23-.2-.37-.49-.37-.8,0-.52.38-.96.9-1.04,3.89-.58,6.82-3.97,6.82-7.88s-2.93-7.3-6.82-7.88c-.52-.08-.9-.52-.9-1.04,0-.31.13-.6.37-.8.23-.2.53-.28.83-.24,4.92.73,8.64,5.01,8.64,9.96s-3.71,9.23-8.64,9.96c-.05,0-.1.01-.15.01Zm0-19.49c-.15,0-.3.06-.41.17-.09.09-.15.2-.17.33-.06.34.17.65.51.7,4.11.62,7.21,4.2,7.21,8.33s-3.1,7.71-7.21,8.33c-.3.05-.52.29-.52.59,0,.18.08.34.21.46.13.11.3.16.47.14,4.7-.7,8.25-4.79,8.25-9.52s-3.55-8.82-8.25-9.52c-.03,0-.06,0-.09,0Z"/>
            <path class="cls-2" d="m11.74,22.97c-.05,0-.1,0-.15-.01-4.92-.73-8.64-5.01-8.64-9.96S6.66,3.77,11.59,3.04c.3-.04.6.04.83.24.23.2.37.49.37.8,0,.52-.38.96-.9,1.04-3.89.58-6.82,3.97-6.82,7.88s2.93,7.3,6.82,7.88c.52.08.9.52.9,1.04,0,.31-.13.6-.37.8-.19.16-.43.25-.68.25Zm0-19.49s-.06,0-.09,0c-4.7.7-8.25,4.79-8.25,9.52s3.55,8.82,8.25,9.52c.18.03.37-.03.5-.17.09-.09.15-.2.17-.33.06-.34-.18-.65-.51-.7-4.11-.62-7.21-4.2-7.21-8.33s3.1-7.71,7.21-8.33c.33-.05.57-.35.51-.69-.02-.12-.08-.24-.17-.33-.12-.11-.26-.17-.42-.17Z"/>
          </g>
          <g>
            <path class="cls-2" d="m18.53,12.86h-2.11v-.29c0-1.65-1.35-3-3.02-3h-4.5v-2.1h4.5c2.83,0,5.13,2.28,5.13,5.09v.29Zm-1.66-.45h1.21c-.09-2.49-2.15-4.48-4.67-4.48h-4.05v1.2h4.05c1.86,0,3.38,1.46,3.46,3.28Z"/>
            <path class="cls-2" d="m11.01,12.86h-2.11v-2.09h2.11v2.09Zm-1.66-.45h1.21v-1.19h-1.21v1.19Z"/>
            <path class="cls-2" d="m13.41,18.52h-4.51v-4.46h2.11v2.36h2.39c1.35,0,2.54-.9,2.9-2.2l.05-.16h2.14l-.05.26c-.44,2.43-2.56,4.19-5.04,4.19Zm-4.05-.45h4.05c2.18,0,4.05-1.48,4.54-3.56h-1.26c-.47,1.4-1.8,2.36-3.29,2.36h-2.85v-2.36h-1.21v3.56Z"/>
          </g>
        </g>
        <g>
          <g>
            <g>
              <path class="cls-2" d="m13.62,4.09h0c0,.41.3.75.71.81,3.96.59,7.01,4,7.01,8.09s-3.05,7.5-7.01,8.09c-.41.06-.71.41-.71.81h0c0,.5.44.89.94.82,4.77-.71,8.43-4.8,8.43-9.73S19.32,3.98,14.56,3.28c-.5-.07-.94.32-.94.82Z"/>
              <path class="cls-2" d="m14.44,22.96c-.25,0-.49-.09-.68-.25-.23-.2-.37-.49-.37-.8,0-.52.38-.96.9-1.04,3.88-.58,6.81-3.97,6.81-7.87s-2.93-7.29-6.81-7.87c-.52-.08-.9-.51-.9-1.04,0-.31.13-.6.37-.8.23-.2.53-.28.83-.24,4.92.73,8.63,5.01,8.63,9.95s-3.71,9.22-8.63,9.95c-.05,0-.1.01-.15.01Zm0-19.47c-.14,0-.27.05-.38.14-.13.12-.21.28-.21.46,0,.3.22.55.52.59,4.1.62,7.2,4.19,7.2,8.32s-3.09,7.7-7.2,8.32c-.3.05-.52.29-.52.59,0,.18.08.34.21.46.13.11.3.16.47.14,4.7-.7,8.24-4.78,8.24-9.5s-3.54-8.81-8.24-9.5c-.03,0-.06,0-.09,0Z"/>
            </g>
            <g>
              <path class="cls-2" d="m12.56,21.91h0c0-.41-.3-.75-.71-.81-3.96-.59-7.01-4-7.01-8.09s3.05-7.5,7.01-8.09c.41-.06.71-.41.71-.81h0c0-.5-.44-.89-.94-.82C6.86,3.98,3.19,8.07,3.19,13s3.67,9.02,8.43,9.73c.5.07.94-.32.94-.82Z"/>
              <path class="cls-2" d="m11.74,22.96c-.05,0-.1,0-.15-.01-4.92-.73-8.63-5.01-8.63-9.95S6.67,3.78,11.59,3.05c.3-.04.6.04.83.24.23.2.37.49.37.8,0,.52-.38.96-.9,1.04-3.88.58-6.81,3.97-6.81,7.87s2.93,7.29,6.81,7.87c.52.08.9.51.9,1.04,0,.31-.13.6-.37.8-.19.16-.43.25-.68.25Zm0-19.47s-.06,0-.09,0c-4.7.7-8.24,4.78-8.24,9.5s3.54,8.81,8.24,9.5c.17.03.34-.02.47-.14.13-.12.21-.28.21-.46,0-.3-.22-.55-.52-.59-4.1-.62-7.2-4.19-7.2-8.32s3.09-7.7,7.2-8.32c.3-.05.52-.29.52-.59,0-.18-.08-.34-.21-.46-.11-.09-.24-.14-.38-.14Z"/>
            </g>
          </g>
          <g>
            <g>
              <path class="cls-2" d="m10.79,9.36h2.62c1.79,0,3.24,1.44,3.24,3.22v.06h1.66v-.06c0-2.68-2.2-4.86-4.9-4.86h-4.27v1.65h1.66Z"/>
              <path class="cls-2" d="m18.53,12.86h-2.11v-.29c0-1.65-1.35-2.99-3.01-2.99h-4.5v-2.09h4.5c2.82,0,5.12,2.28,5.12,5.09v.29Zm-1.66-.45h1.21c-.09-2.48-2.15-4.48-4.67-4.48h-4.05v1.2h4.05c1.86,0,3.38,1.46,3.46,3.28Z"/>
            </g>
            <g>
              <rect class="cls-2" x="9.13" y="11" width="1.66" height="1.63"/>
              <path class="cls-2" d="m11.02,12.86h-2.11v-2.08h2.11v2.08Zm-1.66-.45h1.2v-1.19h-1.2v1.19Z"/>
            </g>
            <g>
              <path class="cls-2" d="m16.52,14.28c-.38,1.36-1.63,2.36-3.12,2.36h-2.62v-2.36h-1.66v4h4.27c2.4,0,4.41-1.73,4.82-4h-1.7Z"/>
              <path class="cls-2" d="m13.41,18.51h-4.5v-4.45h2.11v2.36h2.39c1.35,0,2.54-.9,2.9-2.19l.05-.16h2.14l-.05.26c-.44,2.43-2.56,4.19-5.04,4.19Zm-4.05-.45h4.05c2.17,0,4.04-1.48,4.54-3.56h-1.25c-.47,1.4-1.79,2.36-3.28,2.36h-2.84v-2.36h-1.2v3.56Z"/>
            </g>
          </g>
        </g>
      </g>
      <text class="cls-3" transform="translate(35.76 23.21)"><tspan x="0" y="0">Featu</tspan><tspan class="cls-4" x="68.2" y="0">r</tspan><tspan x="78.06" y="0">ed p</tspan><tspan class="cls-4" x="132.92" y="0">r</tspan><tspan x="142.78" y="0">ojects</tspan></text>
    </g>
  </g>
</svg>