<?xml version="1.0" encoding="UTF-8"?><svg id="a" xmlns="http://www.w3.org/2000/svg" viewBox="0 0 256 256"><rect width="256" height="256" rx="60" ry="60" style="fill:#e44a32;"/><path d="m132.08,67.34c2.52.12,6.28,1.97,8.42,6.28,6.18,12.42,11.33,25.31,17.21,37.86,6.21,13.23,11.17,27,17.71,40.07,1.95,3.89,3.29,7.97,4.57,12.07.97,3.1,1.05,6.56-1.91,8.73-2.98,2.19-6.22,3.98-10.3,2.1-12.21-5.61-23.54-12.82-35.32-19.21-4.33-2.35-8.56-4.9-12.9-7.24-1.3-.7-3.22-1.13-2.54-2.9.61-1.58,2.19-.42,3.48-.29,3.14.3,6.33-.12,9.51-.09,5.61.06,11.21.25,16.82.35,3.11.06,4.51-.9,3.43-4.46-1.62-5.31-4.47-10.05-6.67-15.07-4.12-9.4-8.22-18.8-11.92-28.38-.59-1.53-.87-4.01-2.96-4.05-2.17-.04-2.39,2.53-2.98,4.02-6.72,17.06-14.46,33.67-22.05,50.35-3.39,7.46-5.99,15.27-9.85,22.53-2.05,3.86-5.53,5.68-9.68,5.15-3.81-.49-6.32-3.06-7.43-6.91-.88-3.06.82-5.5,1.97-7.88,11.34-23.5,20.45-48.01,32.21-71.33,2.35-4.66,4.39-9.48,6.72-14.15,2.5-5,6.52-7.71,14.45-7.55Z" style="fill:#fefdfd;"/></svg>