<?xml version="1.0" encoding="UTF-8"?><svg id="a" xmlns="http://www.w3.org/2000/svg" viewBox="0 0 256 256"><rect width="256" height="256" rx="60" ry="60" style="fill:#242938;"/><path d="m154.25,40.62c1.31.49,2.74.62,4.1.98,2.75.71,5.49,1.46,8.23,2.21,1.51.41,3.08.69,4.52,1.27,2.26.92,4.44,2.04,6.64,3.09,6.5,3.11,12.42,7.14,18.07,11.58,3.11,2.45,6.04,5.12,8.2,8.5,1.28,2,1.99,4.24,2.17,6.57.28,3.65.18,7.33-1.09,10.79-.65,1.76-1.77,3.45-3.03,4.86-2.9,3.26-6.24,6.12-10.68,6.86-2.35.39-4.82.15-7.23.02-6.14-.33-10.04-4.71-14.47-8.15-2.08-1.61-4.28-3.1-6.56-4.4-2.49-1.42-5.03-2.85-7.73-3.74-3.79-1.25-7.57-2.68-11.66-2.8-2.72-.08-5.43-.36-8.15-.41-4.62-.09-9.06.97-13.32,2.65-3.71,1.46-7.31,3.22-10.95,4.84-.83.37-1.68.72-2.52,1.08.02-.72.08-1.44.03-2.16-.06-.93-.29-1.85-.28-2.78,0-4.07-.27-8.03-2.26-11.75-3.16-5.92-8.19-9.21-14.56-10.45-2.64-.52-5.34-.78-7.97-1.43,1-1.04,1.9-2.22,3.04-3.08,1.4-1.05,2.97-1.89,4.52-2.69,4.63-2.4,9.17-5.06,13.99-7.03,5.79-2.36,11.99-3.48,18.14-4.6.64-.12,1.32-.08,1.95-.11-.33-.84,27.73-.13,28.84.29Z" style="fill:#4db4e0;"/><path d="m68.48,183.16c-1.52-1.69-3.43-3.17-4.47-5.12-1.85-3.49-4.06-6.76-5.66-10.41-2.01-4.58-3.99-9.17-5.65-13.89-.96-2.75-1.77-5.57-2.43-8.4-.45-1.96-.53-4-.78-6-.13-1.07-.35-23.48-.04-24.9.37-1.67.4-3.41.82-5.06.84-3.33,1.7-6.66,2.83-9.9,1.05-2.99,2.44-5.86,3.72-8.77,1.04-2.36,2.09-4.7,3.22-7.02.7-1.44,1.7-2.75,2.27-4.24.62-1.62,1.62-2.85,2.87-3.94.19-.17.36-.38.52-.58,1.12-1.44,2.21-2.9,3.37-4.31.32-.39.84-.61,1.27-.9,0,.24.08.5,0,.7-.22.59-.6,1.13-.73,1.74-.24,1.11-.18,2.29-.54,3.35-.67,2.03-.56,4.05-.4,6.12.23,2.97,1.26,5.59,3.13,7.89,2.95,3.62,6.17,6.85,10.97,7.86,1.8.38,3.64,1.12,5.4.97,2.62-.23,5.18-1.12,7.76-1.73.21-.02.42-.03.64-.05-.25,2.2-.73,4.32-2.24,6.04-1.67,1.91-2.23,4.39-3.39,6.56-1.47,2.75-2.01,5.76-2.52,8.78-.41,2.39-.74,4.81-.91,7.23-.15,2.07-.19,4.19.01,6.25.26,2.57.65,5.16,1.29,7.67.74,2.87,1.66,5.72,2.81,8.45.74,1.76,2.06,3.27,3.06,4.93.88,1.46,1.67,2.98,2.52,4.46.23.41.53.79.8,1.18-.48.2-.96.4-1.43.6-.26-.05-.51-.1-.77-.16-.29-.14-.58-.27-.87-.41-2.22-.48-4.42-1.07-6.66-1.42-2.15-.34-4.07.76-6.05,1.38-1.47.46-2.87.96-4.16,1.99-2.91,2.3-5.55,4.75-7.4,8.03-1.76,3.12-2.49,6.4-2.09,9.95.15,1.09.38,2.19.41,3.28.01.6-.33,1.21-.51,1.81Z" style="fill:#f9e400;"/><path d="m110.19,169.19c2.19,1.15,4.37,2.32,6.58,3.43,1.38.69,2.77,1.37,4.21,1.88,2.13.75,4.28,1.44,6.47,1.96,1.79.43,3.65.64,5.49.85,1.97.22,3.96.56,5.91.45,4.01-.23,8.03-.16,11.97-1.46,2.51-.83,4.93-1.77,7.27-2.96,2.24-1.14,4.58-2.11,6.69-3.44,2.13-1.34,4.14-2.92,6.05-4.58,4.12-3.59,8.4-6.85,13.98-7.74,2.9-.46,5.68-.2,8.49.98,1.96.82,3.9,1.59,5.57,2.89,2.54,1.98,5.02,4.11,6.05,7.27.76,2.33,1.08,4.82,1.53,7.24.16.86.3,1.76.21,2.61-.12,1.08-.42,2.15-.74,3.19-.88,2.92-2.35,5.49-4.35,7.82-3.31,3.86-7.33,6.88-11.46,9.74-3.22,2.23-6.55,4.29-9.92,6.28-1.99,1.18-4.23,1.93-6.21,3.13-2.58,1.56-5.56,1.92-8.28,3.06-2.72,1.14-5.62,1.97-8.52,2.57-3.13.65-6.34.99-9.54,1.25-3.55.29-7.12.44-10.68.44-3.44,0-6.9-.14-10.33-.46-5.98-.57-11.78-1.95-17.47-3.98-6.67-2.37-13.07-5.21-18.98-9.1-2.24-1.47-4.45-2.99-6.68-4.49.32-.2.66-.36.95-.6,1.13-.93,2.26-1.78,3.83-.92.22.12.53.07.79.09,2.18.2,3.95-.95,5.85-1.73,3.29-1.34,6.23-3.17,8.57-5.87,2.08-2.41,3.65-5.12,4.14-8.35.44-2.92.87-5.83,1.32-8.81.24-.02.53.01.75-.09.41-.19.92-.37,1.11-.72.13-.25-.18-.75-.32-1.13-.09-.24-.21-.48-.32-.71Z" style="fill:#ef5650;"/><path d="m110.19,169.19c.11.24.23.47.32.71.14.38.45.88.32,1.13-.18.34-.7.53-1.11.72-.23.1-.51.07-.75.09-.45,2.98-.88,5.89-1.32,8.81-.49,3.23-2.05,5.93-4.14,8.35-2.33,2.7-5.28,4.52-8.57,5.87-1.9.78-3.67,1.93-5.85,1.73-.27-.02-.58.03-.79-.09-1.57-.86-2.7,0-3.83.92-.29.24-.63.4-.95.6-1.88-1.41-3.73-2.88-5.66-4.22-2.96-2.05-5.17-4.76-7.12-7.75-.61-.93-1.35-1.77-2.02-2.65.38.06.76.12,1.36.22-.52-1.93-1-3.74-1.49-5.56-.4-3.55.34-6.83,2.09-9.95,1.85-3.28,4.49-5.73,7.4-8.03,1.29-1.02,2.69-1.52,4.16-1.99,1.98-.62,3.9-1.72,6.05-1.38,2.24.35,4.44.94,6.66,1.42.29.14.58.27.87.41.26.05.51.1.77.16.98.33,1.95.66,2.93.98,2.8,3.35,6.39,5.82,9.7,8.59.34.29.65.61.98.92Z" style="fill:#cc4638;"/><path d="m70.35,69.71c.56-.61,1.19-1.18,1.68-1.85,2.75-3.76,6.11-6.82,10.14-9.13.53-.3,1.06-.59,1.59-.88,2.63.65,5.33.91,7.97,1.43,6.37,1.24,11.4,4.52,14.56,10.45,1.99,3.73,2.27,7.68,2.26,11.75,0,.93.23,1.85.28,2.78.04.72-.02,1.44-.03,2.16-.08.07-.15.14-.23.22-.15.09-.31.17-.46.26-2.47,2.82-5.21,5.33-8.2,7.58-.86.64-1.83,1.14-2.74,1.7-.4.15-.81.3-1.21.44-2.58.61-5.14,1.5-7.76,1.73-1.76.16-3.6-.59-5.4-.97-4.8-1.01-8.03-4.24-10.97-7.86-1.87-2.31-2.91-4.92-3.13-7.89-.16-2.06-.27-4.09.4-6.12.35-1.06.3-2.25.54-3.35.13-.6.51-1.15.73-1.74.08-.21,0-.47,0-.7Z" style="fill:#047fb5;"/></svg>