<?xml version="1.0" encoding="UTF-8"?><svg id="a" xmlns="http://www.w3.org/2000/svg" viewBox="0 0 256 256"><rect width="256" height="256" rx="60" ry="60" style="fill:#242938;"/><path d="m23.96,105.8c.82-.35,1.18-1.19,1.82-1.74,1-.87,2.12-1.04,3.32-1.07,1.16-.03,2.32-.03,3.48-.03,25.44,0,50.87,0,76.31-.04,1.14,0,1.44.27,1.41,1.4-.09,2.68-.08,5.38-.01,8.06.02.96-.2,1.25-1.22,1.25-12.77-.04-25.55-.04-38.32-.04-13.15,0-26.3,0-39.45,0-2.3,0-2.92-.44-3.73-2.57-.1-.27-.28-.54-.51-.72-1.31-1.02-2.22-2.3-2.74-3.87-.05-.16-.24-.27-.37-.4,0-.07,0-.15,0-.22Z" style="fill:#e93a26;"/><path d="m121.34,214.04c-.07-1.67-.03-3.36-.24-5.02-.19-1.56-1.36-2.71-2.06-4.06-.71-1.35-.64-1.53.87-1.62.34-.02.67-.01,1.01-.01,20.56,0,41.13,0,61.69,0,.64,0,1.26.06,1.89.17.71.13.61.35.31.87-.87,1.49-2.29,2.73-2.46,4.57-.16,1.69-.58,3.39-.07,5.1h-60.95Z" style="fill:#e93a26;"/><path d="m188.21,153.03c-13.52,0-27.05,0-40.57.02-.98,0-1.35-.18-1.32-1.26.08-2.8.05-5.6.01-8.4,0-.73.12-1.04.96-1.03,24.39.03,48.78,0,73.16.08,1.82,0,3.66-.13,5.49.12,1.34.18,2.37.73,3.06,1.97.71,1.27,1.65,2.4,2.31,3.7.35.68.61,1.38.55,2.14-.17,2.01-.94,2.68-3.08,2.68-13.52,0-27.05,0-40.57,0Z" style="fill:#e93a26;"/><path d="m187.46,163.89c13.11,0,26.23,0,39.34,0,1.02,0,2.02.1,2.98.44,1.87.67,2.79,2.75,1.96,4.53-.81,1.76-2.19,3.19-2.96,4.99-.3.71-1.05.72-1.75.71-6.55-.08-13.11-.2-19.66-.21-17.01-.03-34.01-.01-51.02,0-2.4,0-4.79.12-7.19.18-.26,0-.52,0-.79,0-1.92-.06-2-.14-2-2.05,0-2.46.04-4.93-.04-7.39-.03-.99.25-1.24,1.24-1.23,13.3.03,26.6.02,39.9.02h0Z" style="fill:#e93a26;"/><path d="m68.5,92.08c-13.45,0-26.9,0-40.35,0-2.12,0-3.21-.58-3.57-2.03-.32-1.27.25-2.42.89-3.48.32-.53.8-.99,1.24-1.44.46-.46.81-.93.9-1.62.13-.93.66-1.46,1.67-1.67,2.07-.43,4.12-.02,6.15.1,4.27.26,8.54.2,12.8.06,5.58-.18,11.16-.12,16.74-.15,6.82-.03,13.64-.05,20.45.03,3.97.05,7.93.22,11.91.23,3.94.01,7.85-.35,11.78-.51.91-.04,1.15.2,1.13,1.09-.05,2.72-.05,5.45.03,8.17.03.98-.23,1.24-1.23,1.24-11.84-.05-23.68-.05-35.51-.06-1.69,0-3.37,0-5.06,0h0Z" style="fill:#e93a26;"/><path d="m85.12,63.5c12.78,0,25.55.01,38.33-.03,1.01,0,1.23.27,1.23,1.24,0,2.73-.18,5.43-.67,8.13-.12.68-.43.98-1.06,1.08-.74.12-1.47.23-2.23.23-24.54-.01-49.08,0-73.62-.01q-1.48,0-1.49-1.48c0-2.65.03-5.3-.04-7.95-.03-.98.22-1.24,1.23-1.24,12.78.04,25.55.02,38.33.02h0Z" style="fill:#e93a26;"/><path d="m171.56,192.47c-12.71,0-25.41,0-38.12,0-1.68,0-1.49.2-1.46-1.51.04-2.22-.28-4.46.66-6.62.94-2.16,1.31-2.57,3.67-2.48,7.67.28,15.35.11,23.02.11,6.93,0,13.86-.09,20.79-.06,5.73.02,11.46.19,17.19.2,4.16,0,8.31-.13,12.47-.27.97-.03,1.28.2,1.25,1.22-.07,2.76-.04,5.53.02,8.29.02.9-.18,1.2-1.15,1.19-12.78-.04-25.56-.02-38.34-.02v-.03Z" style="fill:#e93a26;"/><path d="m171.83,121.96c10.72,0,21.44,0,32.16,0,1.71,0,3.42-.35,5.15.07,1.02.25,1.66.64,1.78,1.8.23,2.2.06,4.4.11,6.6.01.58-.4.89-.88,1.03-1.28.36-2.17,1.06-2.62,2.35-.2.57-.51,1.27-1.31,1.17-.8-.1-1.61-.41-1.78-1.31-.35-1.93-1.55-2.2-3.31-2.2-19.68.06-39.35.04-59.03.03-.52,0-1.08.08-1.57-.06-1.22-.34-1.59.21-1.65,1.3-.04.72.1,1.81-.61,1.99-.69.17-1.35-.72-1.78-1.35-.82-1.2-1.97-2.03-3.03-2.97-1.76-1.56-1.93-2.98-.42-4.74,2.02-2.36,4.26-3.91,7.76-3.83,10.34.23,20.69.08,31.03.08,0,.01,0,.02,0,.03Z" style="fill:#e93a26;"/><path d="m81.98,122c10.64,0,21.29,0,31.93-.01,1.04,0,2.09-.12,3.13-.29,1.26-.2,2.35.18,3.23.96,1.31,1.16,2.63,2.34,3.68,3.77.94,1.27.93,2.23-.04,3.45-.44.55-.96,1.05-1.44,1.56-.61.65-1.25,1.26-1.43,2.22-.1.55-.38,1.15-1.02,1.18-.7.04-1.44-.11-1.88-.78-.2-.3-.42-.68-.42-1.02,0-1.42-.84-1.55-2-1.55-20.69.02-41.37.02-62.06,0-.95,0-1.21.29-1.22,1.2-.02,1.55-.38,1.79-1.66.96-1.38-.9-2.52-2.13-3.98-2.95-.41-.23-.58-.76-.73-1.23-.52-1.55-.56-3.16-.43-4.76.11-1.44,1.21-2.45,2.87-2.68.74-.1,1.49-.11,2.24-.11,10.42,0,20.84,0,31.25,0,0,.03,0,.06,0,.09Z" style="fill:#e93a26;"/><path d="m104.69,153.03c-9.36,0-18.73,0-28.09,0-.9,0-1.79-.03-2.68-.18-2.07-.33-3.21-2.66-2.11-4.45.98-1.59,1.99-3.15,2.99-4.72.58-.91,1.47-1.23,2.49-1.28.56-.03,1.12,0,1.69,0,17.38,0,34.76,0,52.14,0,.75,0,1.49.09,2.23.21,1.05.17,1.83.61,2.05,1.74.12.61.52,1.06.98,1.46,1.34,1.16,1.43,2.49.22,3.81-.55.6-.96,1.29-1.02,2.08-.08,1.2-.71,1.39-1.78,1.39-9.7-.04-19.4-.02-29.11-.02h0Z" style="fill:#e93a26;"/><path d="m152.36,102.93c9.82,0,19.64,0,29.46,0,.87,0,1.71.15,2.56.27.51.07.72.24.28.78-.72.88-1.02,2.03-1.98,2.8-.5.41-.4,1.25-.42,1.92-.04,1.31-.06,2.62,0,3.92.03.77-.17,1.03-.99,1.01-2.25-.07-4.5-.05-6.75-.05-17.35,0-34.71,0-52.06.03-.97,0-1.36-.18-1.32-1.26.08-2.76.07-5.53,0-8.29-.03-.97.3-1.15,1.2-1.14,10.01.03,20.01.02,30.02.02Z" style="fill:#e93a26;"/><path d="m78.17,41.96c3.51.43,7.18.52,10.84.6,4.64.1,9.29.06,13.93-.05,4.2-.1,8.39.27,12.58.09,4.86-.21,9.73,0,14.59-.51,2.1-.22,4.16.34,5.54,2.3.71,1,1.99,1.62,1.81,3.15-.06.5-.1.96-.5,1.31-.79.7-1.24,1.63-1.39,2.63-.16,1.05-.7,1.18-1.6,1.18-10.79-.03-21.58-.03-32.37-.03-8.47,0-16.93,0-25.4.02-.79,0-1.57-.08-2.34-.24-2.2-.47-3.12-2.55-2.05-4.53.92-1.71,2.24-3.15,3.06-4.94.55-1.19,2.01-.88,3.29-.99Z" style="fill:#e93a26;"/></svg>