<?xml version="1.0" encoding="UTF-8"?><svg id="a" xmlns="http://www.w3.org/2000/svg" viewBox="0 0 256 256"><rect width="256" height="256" rx="60" ry="60" style="fill:#242938;"/><path d="m91.7,62.45c4.27-2.78,9.03-4.44,13.8-6.13,5.2-1.84,10.56-2.83,15.99-3.6,1.77-.25,3.52-.41,5.3-.41,2.76,0,5.47.46,8.2.77,3.87.43,7.7,1.04,11.49,2.04,7.71,2.03,15.01,5.02,21.78,9.19,3.99,2.46,7.7,5.37,11.18,8.54,2.12,1.93,4.01,4.07,5.95,6.18,4.14,4.49,7.3,9.59,10.2,14.87,1.45,2.65,2.47,5.54,3.43,8.43.65,1.94,1.21,3.88,1.44,5.91-.24.65-.71.83-1.38.8-1.22-.05-2.44.03-3.65-.03-.7-.04-1.2.19-1.6.73-.39-.49-.32-1.12-.52-1.67-1.79-5.07-4.07-9.92-6.71-14.59-3.82-6.78-8.95-12.46-14.93-17.37-6.12-5.03-12.97-8.8-20.34-11.7-3.29-1.29-6.58-2.54-10.11-2.97-2.17-.27-4.33-.58-6.48-.94-3.3-.55-6.58-.63-9.89-.32-2.06.2-4.11.46-6.17.69-3.1.34-6.17.92-9.1,1.96-4.92,1.76-9.76,3.76-14.53,5.91-1.27-.74-2.4-1.56-2.69-3.19-.18-1.03-.21-2.11-.67-3.09Z" style="fill:#7caafa;"/><path d="m163.9,194.37c-4.77,2.64-9.65,5.02-14.9,6.56-3.57,1.05-7.24,1.55-10.92,2.11-4.18.64-8.36.67-12.55.64-2.2-.01-4.36-.39-6.54-.66-1.55-.19-3.13-.03-4.65-.52-2.11-.67-4.4-.79-6.42-1.54-3.33-1.24-6.81-2.05-10.05-3.61-3.15-1.52-6.2-3.18-9.1-5.1-1.95-1.29-4.04-2.41-5.9-3.8-2.34-1.75-4.68-3.58-6.6-5.84.09-.64.72-.88,1.05-1.36,1.17-1.69,1.28-3.84,2.55-5.46,1.31,1.49,2.93,2.62,4.44,3.87,2.99,2.47,5.94,4.98,9.48,6.71,2.33,1.14,4.37,2.84,6.9,3.61,4.28,1.3,8.14,3.82,12.71,4.29,2.39.25,4.67,1.17,7.14,1.17.91,0,1.87.11,2.8.22,1.82.23,3.63.58,5.45.64,1.87.06,3.72-.38,5.56-.75,1.29-.26,2.62-.37,3.91-.53,2.66-.32,5.35-.45,7.89-1.33,1.84-.63,3.66-1.29,5.5-1.92,3.16-1.07,6.09-2.67,9.14-3.99,1.03.08,1.46.69,1.39,1.67-.09,1.4-.01,2.73.98,3.87.28.32.65.59.74,1.05Z" style="fill:#f3ca3d;"/><path d="m163.9,194.37c-.08-.46-.46-.74-.74-1.05-1-1.13-1.08-2.47-.98-3.87.06-.98-.36-1.59-1.39-1.67,1.62-.95,3.06-2.17,4.65-3.12,3.17-1.91,5.99-4.2,8.64-6.74,3.88-3.73,7.53-7.65,10.43-12.2,1.97-3.09,3.9-6.2,5.57-9.47,1.55-3.03,2.73-6.17,3.67-9.41,1.03-3.57,1.55-7.26,1.92-10.96.39-3.95.97-7.9.22-11.87-.36-1.92-.43-3.88-.64-5.81-.16-1.51-.85-2.92-.75-4.46.02-.01.07-.04.07-.04-.01-.04-.04-.08-.06-.13-.04-.17-.08-.34-.12-.5.73-.18,1.62,0,2.02-.89.44-.96,1.35-1.51,1.96-2.31.35-.46.97-.52,1.51-.22.31.17.59.38.97.29.89,3.84,1.63,7.69,1.93,11.65.23,3.05-.05,6.14.54,9.17.35,1.82-.19,3.61-.42,5.38-.16,1.24-.11,2.48-.32,3.72-.49,2.92-.96,5.84-1.59,8.73-.9,4.14-2.59,7.99-4.34,11.84-1.7,3.72-4.25,6.86-6.41,10.26-.92,1.44-1.74,2.98-2.84,4.27-1.34,1.57-2.64,3.19-4.02,4.74-1.75,1.97-3.83,3.59-5.79,5.34-1.52,1.36-3.11,2.6-4.75,3.78-1.78,1.27-3.7,2.34-5.57,3.49-1.12.69-2.26,1.38-3.38,2.06Z" style="fill:#fb5752;"/><path d="m91.7,62.45c.46.98.49,2.06.67,3.09.29,1.62,1.41,2.44,2.69,3.18-.05.06-.09.14-.15.18-5.56,2.88-10.18,7.05-14.77,11.18-2.31,2.08-4.31,4.57-6.26,7.05-3.9,4.95-6.72,10.46-8.99,16.3-.84,2.17-1.3,4.46-2.28,6.57-.05-.98-.84-.87-1.47-.97-.5-.08-1.03.12-1.49-.22-1.19-.87-2.61-1.04-4-1.27.5-3.09,1.6-5.99,2.74-8.88,2.64-6.7,6.76-12.52,11.03-18.24,2.01-2.69,4.45-4.98,6.86-7.29,4.56-4.4,9.82-7.81,15.44-10.68Z" style="fill:#7fcac4;"/><path d="m79.86,175.79c-1.27,1.62-1.38,3.77-2.55,5.46-.33.48-.95.72-1.05,1.36-1.99-1.96-4.05-3.84-5.76-6.08-2.05-2.67-4.23-5.25-6.04-8.09-4.43-6.97-7.54-14.51-9.56-22.5-.14-.57-.17-1.16-.25-1.75,2.37-.51,4.83-.54,7.17-1.24.95,4.31,2.54,8.4,4.27,12.44,1.18,2.75,2.79,5.28,4.2,7.91,1.25,2.34,2.62,4.6,4.39,6.59,1.74,1.95,3.45,3.94,5.17,5.91Z" style="fill:#dbe674;"/><path d="m61.82,142.94c-2.34.7-4.8.73-7.17,1.24-.82-2.68-1.09-5.44-1.36-8.21-.35-3.56-.9-7.11-.67-10.7.16-2.5.49-4.98.78-7.47.19-1.63.36-3.28.69-4.88.36-1.72.9-3.4,1.36-5.1.07-.08.13-.16.2-.24,0,0-.01-.05-.01-.05,1.4.23,2.81.4,4,1.27.46.34,1,.14,1.49.22.63.1,1.42-.02,1.47.97-.4,2.6-1,5.16-1.55,7.73-.56,2.6-.61,5.27-.92,7.9-.41,3.43.08,6.77.45,10.15.27,2.43,1.02,4.75,1.25,7.17Z" style="fill:#c4b588;"/><path d="m200.85,109.94c-.38.09-.66-.12-.97-.29-.54-.3-1.16-.24-1.51.22-.61.81-1.53,1.35-1.96,2.31-.4.88-1.29.71-2.02.89-.2-1.11-.72-2.16-.58-3.33.4-.54.9-.76,1.6-.73,1.22.06,2.44-.02,3.65.03.68.03,1.14-.15,1.38-.8.2.55.41,1.1.4,1.7Z" style="fill:#c4b588;"/><path d="m55.64,107.59c-.07.08-.13.16-.2.24.07-.08.13-.16.2-.24Z" style="fill:#7fcac4;"/><path d="m193.82,109.73c-.14,1.17.38,2.22.58,3.33.04.17.08.34.12.5-.02.06-.03.11,0,.17-.1,1.54.59,2.94.75,4.46.2,1.93.28,3.89.64,5.81.74,3.97.17,7.92-.22,11.87-.37,3.7-.89,7.38-1.92,10.96-.94,3.24-2.12,6.39-3.67,9.41-1.68,3.27-3.6,6.38-5.57,9.47-2.91,4.55-6.56,8.47-10.43,12.2-2.65,2.54-5.47,4.83-8.64,6.74-1.58.95-3.03,2.18-4.65,3.12-3.05,1.32-5.98,2.92-9.14,3.99-1.84.63-3.67,1.29-5.5,1.92-2.54.87-5.23,1-7.89,1.33-1.29.16-2.61.27-3.91.53-1.83.37-3.69.82-5.56.75-1.82-.06-3.64-.41-5.45-.64-.93-.12-1.89-.22-2.8-.22-2.46,0-4.75-.92-7.14-1.17-4.58-.47-8.44-2.99-12.71-4.29-2.53-.77-4.57-2.47-6.9-3.61-3.53-1.73-6.49-4.24-9.48-6.71-1.51-1.25-3.13-2.38-4.44-3.87-1.72-1.97-3.43-3.96-5.17-5.91-1.78-1.99-3.14-4.25-4.39-6.59-1.41-2.63-3.02-5.16-4.2-7.91-1.73-4.04-3.32-8.13-4.27-12.44-.23-2.42-.98-4.75-1.25-7.17-.37-3.38-.86-6.72-.45-10.15.32-2.63.36-5.3.92-7.9.55-2.57,1.15-5.13,1.55-7.73.98-2.11,1.44-4.4,2.28-6.57,2.27-5.84,5.09-11.35,8.99-16.3,1.95-2.48,3.95-4.97,6.26-7.05,4.59-4.13,9.21-8.3,14.77-11.18.06-.03.1-.12.15-.18,4.77-2.15,9.6-4.16,14.53-5.91,2.93-1.04,6-1.62,9.1-1.96,2.06-.22,4.11-.49,6.17-.69,3.31-.31,6.58-.23,9.89.32,2.14.36,4.31.67,6.48.94,3.53.44,6.82,1.68,10.11,2.97,7.36,2.9,14.22,6.66,20.34,11.7,5.98,4.92,11.11,10.6,14.93,17.37,2.64,4.68,4.92,9.52,6.71,14.59.2.55.13,1.18.52,1.67Zm-49.68-20.09c.04-.46-.17-.84-.37-1.23-2.01-3.81-5.29-6.24-9-8.13-3.7-1.89-7.68-1.89-11.58-.89-4.13,1.06-7.16,3.77-9.51,7.29-1.25,1.87-1.82,4.02-2.63,6.06-.41,1.03-1.33,1.74-1.51,2.91-.27,1.78-.21,3.52.07,5.28.41,2.57.83,5.15,2.19,7.44.96,1.62,1.77,3.33,2.61,5,1.18,2.36,2.5,4.54,4.39,6.39,1.81,1.78,3.86,3.31,5.48,5.29.79.96,1.44,2.08,2.59,2.72,1.28.95,1.86.96,2.98-.06.66-.6,1.27-1.26,1.91-1.89,1.7-1.67,3.15-3.57,4.71-5.36,3.04-3.49,5.77-7.14,7.54-11.47,1.49-3.65,2.47-7.45,2.33-11.32-.1-2.72-.82-5.53-2.19-8.03Zm-20.57,43.59c.1-.33.01-.61-.24-.84-.74-.71-1.66-.98-2.65-1.1-2.1-.68-4.19-1.42-6.37-1.83-1.05-.26-2.09-.69-3.15-.76-3.55-.21-7.09-.85-10.66-.24-1.95.33-3.93.49-5.87.92-2.45.54-4.66,1.61-6.81,2.86-3.3,1.92-5.64,4.69-7.18,8.14-.51,1.13-.89,2.33-1.22,3.54-.6,2.23-.65,4.5-.22,6.76.27,1.44.31,2.92,1.01,4.28,2.01,3.84,5.32,6.25,8.95,8.33,3.94,2.56,8.12,3.23,12.65,1.81,4.02-1.27,7.34-3.58,10.48-6.32,3.09-2.7,4.74-6.23,6.29-9.86.2-.33.46-.65.6-1,1.07-2.69,2.13-5.38,3.19-8.07l.08-.07-.02-.1c.04-.18.08-.36.12-.54.49-.8.55-1.68.48-2.58l.06-.42c.43-.22.49-.59.42-1.01.02-.63.04-1.25.06-1.88Zm13.26,14.97c.81,1.17,1.39,2.48,1.99,3.76,2.18,4.64,5.42,8.31,9.86,10.88,3.53,2.04,7.18,3.63,11.43,2.89,5.14-.9,9.55-3.11,13.08-7.01.49-.54.37-1.33.91-1.79.73-.63,1.22-1.43,1.56-2.29,1.2-3.05,1.56-6.1.84-9.41-1.2-5.54-3.71-10.07-8.61-13.09-3.46-2.14-7.44-2.76-11.31-3.65-1.89-.44-3.85-.24-5.77-.22-.43.26-.91.16-1.37.22-2.13.28-4.3.14-6.41.63-2.85.67-5.7,1.3-8.55,1.97-2.32.54-2.98,1.2-2.62,2.94.43,2.09.92,4.19,1.65,6.2.98,2.71,2.21,5.33,3.33,7.99Z" style="fill:#36474e;"/><path d="m194.5,113.74c-.02-.06-.02-.11,0-.17.02.04.04.08.06.13,0,0-.04.03-.07.04Z" style="fill:#c4b588;"/><path d="m150.8,128.26c1.93-.02,3.88-.22,5.77.22,3.87.9,7.85,1.52,11.31,3.65,4.89,3.02,7.41,7.55,8.61,13.09.71,3.31.36,6.36-.84,9.41-.34.86-.83,1.67-1.56,2.29-.54.46-.42,1.25-.91,1.79-3.53,3.9-7.94,6.11-13.08,7.01-4.25.74-7.9-.85-11.43-2.89-4.44-2.57-7.68-6.24-9.86-10.88-.6-1.28-1.18-2.58-1.99-3.76,2.06-1.31,4.19-2.4,6.76-2.19.55.05.97-.47,1.38-.84,3.48-3.15,5.14-7.09,5.12-11.76,0-.39-.13-.93.08-1.16,1.12-1.22.87-2.61.64-4.01Z" style="fill:#fb5752;"/><path d="m120.67,131.3c.99.12,1.91.39,2.65,1.1-.04.31-.11.63.24.84-.02.63-.04,1.25-.06,1.88-.29.27-.42.62-.42,1.01-.02.14-.04.28-.06.42-.72.76-.92,1.61-.48,2.58-.04.18-.08.36-.12.54-.06.04-.08.1-.06.17-1.06,2.69-2.11,5.39-3.19,8.07-.14.36-.4.67-.6,1,.07-.98,0-1.82-1.34-1.81-.35,0-.71-.32-1.06-.49-1.16-.56-1.56-.37-1.89.9-.07.29-.29.46-.4.7-.59,1.25-2.03,1.55-2.82,2.59-1.08,1.42-2.17,2.83-3.89,3.65-1.69.81-2.92,2.34-4.7,3.1-1.6.69-3.02,1.7-4.81,2.1-1.44.32-2.84.83-4.31,1.14-.97.21-2.05-.06-2.93.7-.6.51-.65,1.34-1.28,1.8-3.63-2.09-6.94-4.5-8.95-8.33-.71-1.35-.74-2.84-1.01-4.28-.43-2.26-.38-4.53.22-6.76.33-1.2.71-2.4,1.22-3.54,1.55-3.45,3.89-6.22,7.18-8.14,2.15-1.25,4.36-2.32,6.81-2.86,1.94-.43,3.92-.59,5.87-.92,3.57-.61,7.12.03,10.66.24,1.06.06,2.1.5,3.15.76-.14,1.16-2.71,3.46-4.26,3.46-1.5,0-2.63.62-3.82,1.33-.62.37-.85.78-.64,1.44.44,1.39.73,2.84,1.36,4.14.62,1.27,1.34,2.7,2.67,3.3,1.16.52,2.2,1.21,2.94,2.1.96,1.16,1.79.66,2.68.24.65-.31,1.09-.86,1.28-1.62.17-.68.34-1.4.68-2,.52-.94.8-2.19,2.05-2.44.95-.19,1.26-.66,1.21-1.55-.01-.22.06-.49.19-.66.83-1.06.36-2.46.96-3.59.17-.31-.06-.7-.44-.86-.71-.31-.71-.85-.48-1.46Z" style="fill:#dbe674;"/><path d="m126.86,127.77c-1.15-.63-1.79-1.75-2.59-2.72-1.63-1.98-3.67-3.51-5.48-5.29-1.89-1.85-3.21-4.03-4.39-6.39-.84-1.67-1.65-3.38-2.61-5-1.36-2.29-1.77-4.86-2.19-7.44-.28-1.76-.34-3.5-.07-5.28.18-1.17,1.09-1.88,1.51-2.91.81-2.04,1.39-4.19,2.63-6.06,2.35-3.52,5.38-6.23,9.51-7.29,3.9-1,7.88-1,11.58.89,3.71,1.89,6.99,4.33,9,8.13.2.38.41.77.37,1.23-.71.74-.82,1.54-.77,2.62.09,1.69-.73,3.34-.85,5.06-.01.17-.2.34-.32.49-1.29,1.55-3.15,2.52-4.29,4.23-.23.34-.74.55-1.22.67-1.48.37-2.86,1.06-4.34,1.47-2.41.67-4.81.57-7.26.46-2.19-.1-4-1.75-6.28-1.36-.19.03-.44-.15-.64-.28-.33-.21-.68-.57-1.06-.28-.42.31-.17.78-.06,1.2.66,2.68,1.78,5.19,2.64,7.79.86,2.61,2.29,4.91,3.47,7.33.68,1.39,1.25,2.62,1.09,4.15-.04.39.17.73.51.87,1.68.69,2.2,2.01,2.11,3.7Z" style="fill:#7fcac4;"/><path d="m126.86,127.77c.1-1.69-.43-3.01-2.11-3.7-.34-.14-.55-.48-.51-.87.16-1.53-.42-2.77-1.09-4.15-1.18-2.42-2.61-4.72-3.47-7.33-.86-2.6-1.99-5.11-2.64-7.79-.1-.42-.36-.88.06-1.2.38-.29.73.07,1.06.28.2.13.45.31.64.28,2.27-.39,4.09,1.26,6.28,1.36,2.45.11,4.85.2,7.26-.46,1.48-.41,2.86-1.1,4.34-1.47.48-.12.99-.33,1.22-.67,1.15-1.71,3-2.68,4.29-4.23.13-.15.31-.32.32-.49.13-1.72.94-3.37.85-5.06-.06-1.08.06-1.87.77-2.62,1.37,2.5,2.09,5.31,2.19,8.03.14,3.87-.83,7.67-2.33,11.32-1.77,4.33-4.49,7.99-7.54,11.47-1.57,1.79-3.01,3.69-4.71,5.36-.64.63-1.25,1.29-1.91,1.89-1.12,1.02-1.71,1.01-2.98.06Zm10.9-14.07c-.23-.54-.75-.55-1.1-.27-.67.53-1.24,1.18-1.83,1.8-.19.21-.24.53-.02.75.26.27.63.19.86-.01.64-.56,1.25-1.16,1.85-1.76.1-.1.13-.28.24-.51Z" style="fill:#7caafa;"/><path d="m150.8,128.26c.23,1.4.49,2.79-.64,4.01-.2.22-.08.76-.08,1.16.02,4.67-1.64,8.61-5.12,11.76-.41.37-.83.89-1.38.84-2.57-.22-4.7.87-6.76,2.19-1.12-2.66-2.35-5.28-3.33-7.99-.73-2-1.22-4.11-1.65-6.2-.36-1.75.3-2.4,2.62-2.94,2.85-.67,5.7-1.3,8.55-1.97,2.11-.49,4.28-.36,6.41-.63.46-.06.94.04,1.37-.22Z" style="fill:#c4b588;"/><path d="m89.14,163.3c.62-.45.68-1.29,1.28-1.8.88-.75,1.96-.49,2.93-.7,1.46-.31,2.87-.82,4.31-1.14,1.78-.39,3.21-1.4,4.81-2.1,1.78-.77,3.01-2.3,4.7-3.1,1.72-.82,2.8-2.22,3.89-3.65.79-1.04,2.23-1.34,2.82-2.59.11-.24.33-.42.4-.7.33-1.27.73-1.46,1.89-.9.36.17.71.49,1.06.49,1.34-.01,1.41.82,1.34,1.81-1.55,3.63-3.2,7.16-6.29,9.86-3.14,2.75-6.46,5.06-10.48,6.32-4.53,1.43-8.71.75-12.65-1.81Z" style="fill:#f3ca3d;"/><path d="m120.67,131.3c-.23.61-.23,1.15.48,1.46.38.17.61.55.44.86-.61,1.13-.13,2.53-.96,3.59-.13.17-.2.44-.19.66.05.89-.26,1.36-1.21,1.55-1.25.25-1.53,1.5-2.05,2.44-.34.61-.51,1.32-.68,2-.18.75-.63,1.31-1.28,1.62-.89.43-1.73.93-2.68-.24-.73-.89-1.78-1.58-2.94-2.1-1.33-.6-2.05-2.03-2.67-3.3-.63-1.29-.92-2.75-1.36-4.14-.21-.67.02-1.07.64-1.44,1.19-.71,2.32-1.33,3.82-1.33,1.55,0,4.12-2.3,4.26-3.46,2.18.42,4.26,1.15,6.37,1.83Z" style="fill:#fefefe;"/><path d="m122.53,139.13c-.44-.97-.24-1.83.48-2.58.07.9,0,1.78-.48,2.58Z" style="fill:#c4b588;"/><path d="m123.07,136.13c0-.4.13-.74.42-1.01.07.42,0,.79-.42,1.01Z" style="fill:#c4b588;"/><path d="m123.56,133.24c-.34-.21-.27-.53-.24-.84.25.23.34.51.24.84Z" style="fill:#c4b588;"/><path d="m122.35,139.84c-.02-.07,0-.13.06-.17,0,0,.02.1.02.1l-.08.07Z" style="fill:#c4b588;"/><path d="m137.76,113.7c-.11.23-.14.41-.24.51-.6.6-1.21,1.2-1.85,1.76-.24.2-.6.28-.86.01-.22-.22-.17-.55.02-.75.58-.63,1.16-1.28,1.83-1.8.35-.27.87-.27,1.1.27Z" style="fill:#7fcac4;"/></svg>