<?xml version="1.0" encoding="UTF-8"?><svg id="a" xmlns="http://www.w3.org/2000/svg" viewBox="0 0 256 256"><rect width="256" height="256" rx="60" ry="60" style="fill:#242938;"/><path d="m127.44,55.24c8.45.2,15.5,2.59,19.96,10.7,8.89,16.15,18.44,31.93,27.22,48.13,11,20.29,21.25,40.98,32.32,61.22,5.76,10.52-3.49,22.29-11.8,25.16-1.19.41-3.67-.67-4.5-1.82-4.98-6.87-9.78-13.89-14.42-21-14.62-22.44-29.09-44.98-43.74-67.4-2.7-4.13-6.52-4.27-9.24-.39-7.67,10.91-15.41,21.78-22.56,33.03-10.84,17.05-20.93,34.58-31.88,51.56-5.71,8.85-9.9,7.95-16.58.34-5.39-6.14-6.77-12.75-2.23-20.91,13.86-24.91,26.89-50.29,40.38-75.42,6.21-11.57,12.86-22.91,19.1-34.46,3.97-7.34,10.76-8.33,17.97-8.74Z" style="fill:#0277bd;"/></svg>