<?xml version="1.0" encoding="utf-8"?>
<!-- Generator: Adobe Illustrator 27.3.1, SVG Export Plug-In . SVG Version: 6.00 Build 0)  -->
<svg version="1.1" id="Layer_1" xmlns="http://www.w3.org/2000/svg" xmlns:xlink="http://www.w3.org/1999/xlink" x="0px" y="0px"
	 viewBox="0 0 256 256" style="enable-background:new 0 0 256 256;" xml:space="preserve">
<style type="text/css">
	.st0{display:none;}
	.st1{display:inline;fill:#242938;}
	.st2{display:inline;fill:#FFFFFF;filter:url(#Adobe_OpacityMaskFilter);}
	.st3{display:inline;mask:url(#mask0_147_896_00000163068361320714474290000014391470982675537288_);}
	.st4{fill:url(#SVGID_1_);}
	.st5{fill:#FFA000;}
	.st6{fill:none;}
	.st7{fill:#F57C00;}
	.st8{fill:#FFCA28;}
	.st9{fill:#FFFFFF;fill-opacity:0.2;}
	.st10{opacity:0.2;fill:#A52714;enable-background:new    ;}
	.st11{fill:url(#SVGID_00000179606008389578539900000004235694786762836891_);}
	.st12{display:inline;fill:#0277BD;}
	.st13{display:inline;}
	.st14{fill:#ACACAC;}
	.st15{font-family:'MyriadPro-Regular';}
	.st16{font-size:49.8938px;}
	.st17{fill:#242938;}
	.st18{fill:#4883B2;}
	.st19{display:none;fill:#242938;}
	.st20{display:inline;fill:#2E7046;}
	.st21{fill:#13E883;}
	.st22{fill:#00AD68;}
	.st23{fill:#161F27;}
	.st24{fill:#527C59;}
	.st25{font-family:'SegoeUI-Bold';}
	.st26{font-size:52.684px;}
	.st27{fill:#72AB39;}
</style>
<g class="st0">
	<path class="st1" d="M60,0h136c33.1,0,60,26.9,60,60v136c0,33.1-26.9,60-60,60H60c-33.1,0-60-26.9-60-60V60C0,26.9,26.9,0,60,0z"/>
	<defs>
		<filter id="Adobe_OpacityMaskFilter" filterUnits="userSpaceOnUse" x="45.9" y="28" width="164.2" height="205.7">
			<feColorMatrix  type="matrix" values="1 0 0 0 0  0 1 0 0 0  0 0 1 0 0  0 0 0 1 0"/>
		</filter>
	</defs>
	
		<mask maskUnits="userSpaceOnUse" x="45.9" y="28" width="164.2" height="205.7" id="mask0_147_896_00000163068361320714474290000014391470982675537288_" class="st13">
		<path style="fill:#FFFFFF;filter:url(#Adobe_OpacityMaskFilter);" d="M182,72.7c-0.3-1.7-1.5-3.1-3.1-3.6
			c-1.6-0.5-3.4-0.1-4.6,1.1l-23.6,23.7L132,58.6c-0.8-1.5-2.3-2.5-4-2.5c-1.7,0-3.2,1-4,2.5l-10.1,19.3L88.2,30.4
			c-2.1-3.9-7.9-2.8-8.6,1.5L55,189.4l66,36.9c4.2,2.3,9.2,2.3,13.3,0l66.6-36.9L182,72.7z"/>
	</mask>
	<g class="st3">
		
			<linearGradient id="SVGID_1_" gradientUnits="userSpaceOnUse" x1="36.4649" y1="170.5993" x2="218.0909" y2="74.2024" gradientTransform="matrix(1 0 0 -1 0 258)">
			<stop  offset="0" style="stop-color:#FFFFFF;stop-opacity:0.1"/>
			<stop  offset="1" style="stop-color:#FFFFFF;stop-opacity:0"/>
		</linearGradient>
		<path class="st4" d="M182,72.7c-0.3-1.7-1.5-3.1-3.1-3.6c-1.6-0.5-3.4-0.1-4.6,1.1l-23.6,23.7L132,58.6c-0.8-1.5-2.3-2.5-4-2.5
			c-1.7,0-3.2,1-4,2.5l-10.1,19.3L88.2,30.4c-2.1-3.9-7.9-2.8-8.6,1.5L55,189.4l66,36.9c4.2,2.3,9.2,2.3,13.3,0l66.6-36.9L182,72.7z
			"/>
		<path class="st5" d="M55,189.4L79.7,31.9c0.7-4.3,6.5-5.3,8.6-1.5l25.5,47.5L124,58.6c0.8-1.5,2.3-2.5,4-2.5c1.7,0,3.3,0.9,4,2.5
			L201,189.4H55z"/>
		<rect x="45.9" y="67.8" class="st6" width="99.2" height="126.1"/>
		<path class="st7" d="M140.3,128l-26.6-50.1L55,189.4L140.3,128z"/>
		<rect x="50.4" y="58.7" class="st6" width="159.6" height="175"/>
		<path class="st8" d="M201,189.4L182,72.7c-0.3-1.7-1.5-3.1-3.1-3.6c-1.6-0.5-3.4-0.1-4.6,1.1L55,189.4l66,36.9
			c4.2,2.3,9.2,2.3,13.3,0L201,189.4z"/>
		<path class="st9" d="M182,72.7c-0.3-1.7-1.5-3.1-3.1-3.6c-1.6-0.5-3.4-0.1-4.6,1.1l-23.6,23.7L132,58.6c-0.8-1.5-2.3-2.5-4-2.5
			c-1.7,0-3.2,1-4,2.5l-10.1,19.3L88.2,30.4c-2.1-3.9-7.9-2.8-8.6,1.5L55,189.4h-0.1l0.1,0.1l0.7,0.3l94.9-94.8l23.7-23.6
			c1.2-1.2,3-1.6,4.6-1.1c1.6,0.5,2.8,1.9,3.1,3.6l18.7,115.6l0.2-0.1L182,72.7z M55.2,189.1L79.7,33c0.7-4.3,6.5-5.3,8.6-1.5
			L113.8,79L124,59.7c0.8-1.5,2.3-2.5,4-2.5c1.7,0,3.3,0.9,4,2.5l18.2,34.5L55.2,189.1z"/>
		<path class="st10" d="M134.4,225.2c-4.2,2.3-9.2,2.3-13.3,0l-65.9-36.8l-0.1,1l66,36.9c4.2,2.3,9.2,2.3,13.3,0l66.6-36.9l-0.1-1
			L134.4,225.2z"/>
		
			<linearGradient id="SVGID_00000127039980941501366200000011099324028503574147_" gradientUnits="userSpaceOnUse" x1="36.4649" y1="170.5993" x2="218.0909" y2="74.2024" gradientTransform="matrix(1 0 0 -1 0 258)">
			<stop  offset="0" style="stop-color:#FFFFFF;stop-opacity:0.1"/>
			<stop  offset="1" style="stop-color:#FFFFFF;stop-opacity:0"/>
		</linearGradient>
		<path style="fill:url(#SVGID_00000127039980941501366200000011099324028503574147_);" d="M182,72.7c-0.3-1.7-1.5-3.1-3.1-3.6
			c-1.6-0.5-3.4-0.1-4.6,1.1l-23.6,23.7L132,58.6c-0.8-1.5-2.3-2.5-4-2.5c-1.7,0-3.2,1-4,2.5l-10.1,19.3L88.2,30.4
			c-2.1-3.9-7.9-2.8-8.6,1.5L55,189.4l66,36.9c4.2,2.3,9.2,2.3,13.3,0l66.6-36.9L182,72.7z"/>
	</g>
</g>
<g class="st0">
	<path class="st1" d="M60,0h136c33.1,0,60,26.9,60,60v136c0,33.1-26.9,60-60,60H60c-33.1,0-60-26.9-60-60V60C0,26.9,26.9,0,60,0z"/>
	<path class="st12" d="M127.4,55.2c8.5,0.2,15.5,2.6,20,10.7c8.9,16.1,18.4,31.9,27.2,48.1c11,20.3,21.2,41,32.3,61.2
		c5.8,10.5-3.5,22.3-11.8,25.2c-1.2,0.4-3.7-0.7-4.5-1.8c-5-6.9-9.8-13.9-14.4-21c-14.6-22.4-29.1-45-43.7-67.4
		c-2.7-4.1-6.5-4.3-9.2-0.4c-7.7,10.9-15.4,21.8-22.6,33c-10.8,17.1-20.9,34.6-31.9,51.6c-5.7,8.8-9.9,7.9-16.6,0.3
		c-5.4-6.1-6.8-12.7-2.2-20.9c13.9-24.9,26.9-50.3,40.4-75.4c6.2-11.6,12.9-22.9,19.1-34.5C113.4,56.6,120.2,55.6,127.4,55.2z"/>
</g>
<g class="st0">
	<path class="st1" d="M60,0h136c33.1,0,60,26.9,60,60v136c0,33.1-26.9,60-60,60H60c-33.1,0-60-26.9-60-60V60C0,26.9,26.9,0,60,0z"/>
	<g class="st13">
		<text transform="matrix(1 0 0 1 24.4216 142.6445)" class="st14 st15 st16">{REST:API}</text>
		<g>
			<text transform="matrix(1 0 0 1 148.4309 142.6445)" class="st17 st15 st16">API</text>
			<text transform="matrix(1 0 0 1 148.4309 142.6445)" class="st18 st15 st16">API</text>
		</g>
		<text transform="matrix(1 0 0 1 38.5657 142.6445)" class="st18 st15 st16">REST</text>
	</g>
</g>
<path class="st19" d="M60,0h136c33.1,0,60,26.9,60,60v136c0,33.1-26.9,60-60,60H60c-33.1,0-60-26.9-60-60V60C0,26.9,26.9,0,60,0z"/>
<path class="st19" d="M60,0h136c33.1,0,60,26.9,60,60v136c0,33.1-26.9,60-60,60H60c-33.1,0-60-26.9-60-60V60C0,26.9,26.9,0,60,0z"/>
<path class="st19" d="M60,0h136c33.1,0,60,26.9,60,60v136c0,33.1-26.9,60-60,60H60c-33.1,0-60-26.9-60-60V60C0,26.9,26.9,0,60,0z"/>
<path class="st19" d="M60,0h136c33.1,0,60,26.9,60,60v136c0,33.1-26.9,60-60,60H60c-33.1,0-60-26.9-60-60V60C0,26.9,26.9,0,60,0z"/>
<path class="st19" d="M60,0h136c33.1,0,60,26.9,60,60v136c0,33.1-26.9,60-60,60H60c-33.1,0-60-26.9-60-60V60C0,26.9,26.9,0,60,0z"/>
<path class="st19" d="M60,0h136c33.1,0,60,26.9,60,60v136c0,33.1-26.9,60-60,60H60c-33.1,0-60-26.9-60-60V60C0,26.9,26.9,0,60,0z"/>
<path class="st19" d="M60,0h136c33.1,0,60,26.9,60,60v136c0,33.1-26.9,60-60,60H60c-33.1,0-60-26.9-60-60V60C0,26.9,26.9,0,60,0z"/>
<path class="st19" d="M60,0h136c33.1,0,60,26.9,60,60v136c0,33.1-26.9,60-60,60H60c-33.1,0-60-26.9-60-60V60C0,26.9,26.9,0,60,0z"/>
<path class="st19" d="M60,0h136c33.1,0,60,26.9,60,60v136c0,33.1-26.9,60-60,60H60c-33.1,0-60-26.9-60-60V60C0,26.9,26.9,0,60,0z"/>
<path class="st19" d="M60,0h136c33.1,0,60,26.9,60,60v136c0,33.1-26.9,60-60,60H60c-33.1,0-60-26.9-60-60V60C0,26.9,26.9,0,60,0z"/>
<path class="st19" d="M60,0h136c33.1,0,60,26.9,60,60v136c0,33.1-26.9,60-60,60H60c-33.1,0-60-26.9-60-60V60C0,26.9,26.9,0,60,0z"/>
<path class="st19" d="M60,0h136c33.1,0,60,26.9,60,60v136c0,33.1-26.9,60-60,60H60c-33.1,0-60-26.9-60-60V60C0,26.9,26.9,0,60,0z"/>
<path class="st19" d="M60,0h136c33.1,0,60,26.9,60,60v136c0,33.1-26.9,60-60,60H60c-33.1,0-60-26.9-60-60V60C0,26.9,26.9,0,60,0z"/>
<path class="st19" d="M60,0h136c33.1,0,60,26.9,60,60v136c0,33.1-26.9,60-60,60H60c-33.1,0-60-26.9-60-60V60C0,26.9,26.9,0,60,0z"/>
<path class="st19" d="M60,0h136c33.1,0,60,26.9,60,60v136c0,33.1-26.9,60-60,60H60c-33.1,0-60-26.9-60-60V60C0,26.9,26.9,0,60,0z"/>
<path class="st19" d="M60,0h136c33.1,0,60,26.9,60,60v136c0,33.1-26.9,60-60,60H60c-33.1,0-60-26.9-60-60V60C0,26.9,26.9,0,60,0z"/>
<path class="st19" d="M60,0h136c33.1,0,60,26.9,60,60v136c0,33.1-26.9,60-60,60H60c-33.1,0-60-26.9-60-60V60C0,26.9,26.9,0,60,0z"/>
<g class="st0">
	<path class="st20" d="M60,0h136c33.1,0,60,26.9,60,60v136c0,33.1-26.9,60-60,60H60c-33.1,0-60-26.9-60-60V60C0,26.9,26.9,0,60,0z"
		/>
	<g class="st13">
		<path class="st21" d="M47.6,78.8c1.2-0.9,81.9-47.3,81.9-47.3c5.1-0.8,7.3,3.1,20.1,10.8c2.9,1.7,4,2.3,9.1,5.3
			c2.7,1.6,5.4,3.3,8.1,4.9c3.5,2.1,7.1,4.2,10.6,6.3c5,3,10,6,15,8.9c2.9,1.7,5.9,3.3,8.8,5.1c2.9,1.8,5.8,3.8,8.7,5.8
			c-0.9,2.2-2.3,4-5,4.1c-0.4,0-0.8,0.4-1.2,0.7c-0.7,0.5-1.4,1.2-2.2,1.7c-2.3,1.4-4.7,2.7-7.1,4.1c-1.5,0.9-2.9,2-4.4,2.8
			c-3.1,1.7-6.2,3.2-9.3,4.8c-0.6,0.3-1.1,0.7-1.6,1c-0.8-0.5-1.6-1.1-2.5-1.6c-3.8-2.1-44.2-25.6-44.9-25.9c-2-1-3.9-1.5-6-0.2
			c-4.5,2.7-46.7,26.7-47.5,27.3C77.5,97.2,48.8,79.5,47.6,78.8z"/>
		<path class="st22" d="M179.2,97.8c4.9-2.7,26-15.8,30.8-19.2c0.4,0.2,0,64.8,0,96.9c-1.2,0.8-80.5,48.7-81.4,49.1
			c0-0.3-0.2-35.4-0.2-36.2c0.8-0.6,51.3-27.9,52.2-28.5C180.5,159.9,179.4,105,179.2,97.8z"/>
		<path class="st23" d="M128.7,221.9c0,1.1,0,2-0.1,2.7c-0.2-0.1-0.5-0.3-0.8-0.5c-1.1-0.7-28.8-17-29.5-17.5
			c-1-0.8-1.5-1.7-1.3-3.1c0.1-0.7,0.8-53.4,1-55.6c0.1-1.1-0.4-1.7-1.2-2.2c-3.7-2.2-47.5-27.9-49.2-29c-0.5-0.3-0.9-0.7-1.2-1.2
			c-0.2-0.3-0.6-1-0.6-2.3c0-1.7,0.7-15.5,1.8-34.4c45.9,27.7,78.8,47.6,79.7,48.1c0.1,0,0.5,0.3,0.8,0.7c0.2,0.4,0.3,0.8,0.4,1.3
			C128.6,130.1,128.7,220.4,128.7,221.9z"/>
	</g>
</g>
<path class="st24" d="M60,0h136c33.1,0,60,26.9,60,60v136c0,33.1-26.9,60-60,60H60c-33.1,0-60-26.9-60-60V60C0,26.9,26.9,0,60,0z"/>
<g>
	<text transform="matrix(1 0 0 1 27.104 139.0508)" class="st17 st25 st26">splunk</text>
	<text transform="matrix(1 0 0 1 191.647 139.0527)" class="st27 st25 st26">&gt;</text>
</g>
</svg>
