<?xml version="1.0" encoding="UTF-8"?><svg id="a" xmlns="http://www.w3.org/2000/svg" viewBox="0 0 256 256"><rect width="256" height="256" rx="60" ry="60" style="fill:#777162;"/><path d="m31.72,120.1c-1.1-1.05-2.21-2.1-3.31-3.15,0-1.74,0-3.49,0-5.23.55-.27,1.09-.54,1.64-.8-.55-.43-1.09-.86-1.64-1.29,0-.7,0-1.39,0-2.09.58-.68,1.17-1.36,1.75-2.04.2.89.39,1.79.59,2.68.36.02.71.03,1.07.05.17-1.59.35-3.18.52-4.77,1.47,2.11,2.95,4.21,4.42,6.32.35,3.44.71,6.88,1.06,10.32-2.03,0-4.06,0-6.09,0Z" style="fill:#4e5355;"/><path d="m28.41,109.63c.55.43,1.09.86,1.64,1.29-.55.27-1.09.54-1.64.8,0-.7,0-1.39,0-2.09Z" style="fill:#656b6d;"/><path d="m170.59,70.82c2.78-2.1,5.57-4.2,8.35-6.3.64,3.68-1.8,8.29,3.2,10.66,0,1.38,0,2.77,0,4.15,1.4,3.47,2.8,6.95,4.19,10.42-.35,7.56-.35,15.16-1.17,22.67-.62,5.72-1.85,11.46-3.63,16.93-1.5,4.61-4.5,8.73-6.16,13.31-.55,1.51,1.02,3.78,1.63,5.7-.54.64-1.09,1.28-1.63,1.92-2.98-1.69-5.95-3.38-8.93-5.07,7.6-8.87,12.83-18.91,13.38-30.71.44-9.43.56-18.87-3.8-27.84-2.42-4.99-3.66-10.55-5.44-15.85Z" style="fill:#504b3e;"/><path d="m135.08,165.93c-14.94.51-29.2-2.51-42.89-8.4-.72-2.01-.96-4.44-2.26-5.94-2.79-3.22-6.7-5.56-9.09-9-2.74-3.95-4.33-8.7-6.43-13.1,1.27.79,3.09,1.27,3.71,2.41,7.04,12.84,18.45,20.46,31.8,24.53,10.17,3.1,20.73.21,30.84-2.65,4.44-1.25,8.75-2.93,13.12-4.41-1.6,5.38-6.43,7.26-10.87,8.12-5.26,1.01-7.35,3.69-7.95,8.44Z" style="fill:#5c5648;"/><path d="m68.11,143.2c-8.51.06-17.3.76-24.21-5.47-3.45-3.11-6.05-7.17-9.04-10.79,1.34.34,2.67.82,4.04.99,8.51,1.04,17.21,2.98,24.03-4.69,1.29-1.19,2.51-2.47,3.9-3.53,1.75-1.35,3.63-2.52,5.46-3.77.36,4.52.71,9.05,1.07,13.57-.68,1.74-1.36,3.49-2.04,5.23-1.07,2.83-2.14,5.65-3.21,8.48Z" style="fill:#323538;"/><path d="m177,148.36c-.6-1.92-2.17-4.2-1.63-5.7,1.66-4.58,4.66-8.69,6.16-13.31,1.78-5.47,3-11.21,3.63-16.93.82-7.51.82-15.11,1.17-22.67,4.12.7,8.25,1.4,12.37,2.09-2.38,10.62-3.69,21.64-7.47,31.74-3.3,8.8-9.38,16.56-14.23,24.78Z" style="fill:#474336;"/><path d="m198.7,91.85c-4.12-.7-8.25-1.4-12.37-2.09-1.4-3.47-2.8-6.95-4.19-10.42,3.95-5.76,8.37-11.32,8.34-18.85,2.39-1.04,4.79-2.08,7.18-3.12.35,11.5.69,22.99,1.04,34.49Z" style="fill:#403b30;"/><path d="m166.44,145.21c2.98,1.69,5.95,3.38,8.93,5.07,4.42,3.52,8.84,7.03,13.26,10.55-.8,1.37-1.59,2.73-2.39,4.1-1.02.79-2.05,1.58-3.07,2.36-1.32-.14-2.94.17-3.92-.48-4.37-2.93-8.55-6.14-12.8-9.24-2.43-2.06-4.86-4.11-7.29-6.17-1.4-1.04-2.79-2.09-4.19-3.13-1.71-1.38-3.42-2.76-5.13-4.14,0-.7,0-1.4,0-2.09.67-.67,1.35-1.35,2.02-2.02,1.74-.04,3.48-.08,5.23-.12.58.08,1.15.15,1.73.23,2.55,1.69,5.09,3.38,7.64,5.08Z" style="fill:#b65618;"/><path d="m166.44,145.21c-2.55-1.69-5.09-3.38-7.64-5.08,4.44.22,7.99-.75,10.26-5.27,7.83-15.56,9.16-31.35,2.42-47.59-1.96-4.72-4.05-9.38-6.08-14.07,1.72-.8,3.45-1.6,5.17-2.4,1.77,5.3,3.02,10.86,5.44,15.85,4.36,8.97,4.24,18.41,3.8,27.84-.56,11.8-5.79,21.84-13.38,30.71Z" style="fill:#575243;"/><path d="m155.93,78.13c2.11-.93,4.23-1.87,6.34-2.8.66,1.95,1.29,3.9,1.99,5.84,2.33,6.5,5.83,12.82,6.8,19.51,1.95,13.45.35,26.49-10.12,37.37-1.12-1.3-1.99-2.32-2.86-3.34,8.36-12.62,11.36-26.19,6.15-40.7-2-5.57-5.49-10.61-8.3-15.88Z" style="fill:#625c4d;"/><path d="m155.93,78.13c2.81,5.28,6.3,10.31,8.3,15.88,5.21,14.51,2.2,28.08-6.15,40.7-1.39,0-2.79,0-4.18.01.19-1.35-.09-3.07.65-3.98,7.23-8.99,7.79-19.32,6.75-30.18-.68-7.09-4.68-12.89-10.48-13.96-.29-.05-.58-.08-.88-.08-.72-2.03-1.44-4.06-2.16-6.08,2.72-.77,5.44-1.54,8.17-2.31Z" style="fill:#686253;"/><path d="m153.9,134.73c1.39,0,2.79,0,4.18-.01.87,1.02,1.74,2.03,2.86,3.34,10.47-10.88,12.07-23.92,10.12-37.37-.97-6.69-4.46-13.02-6.8-19.51-.69-1.93-1.33-3.89-1.99-5.84,1.05-.71,2.09-1.41,3.14-2.12,2.03,4.69,4.12,9.35,6.08,14.07,6.74,16.24,5.4,32.03-2.42,47.59-2.27,4.52-5.83,5.49-10.26,5.27-.58-.07-1.16-.15-1.73-.23-.71-.34-1.42-.68-2.13-1.02-.34-.69-.69-1.37-1.03-2.06-.02-.34-.03-.67-.02-1.01,0-.36,0-.73,0-1.09h0Z" style="fill:#5c5648;"/><path d="m37.82,120.09c-.35-3.44-.71-6.88-1.06-10.32,1.05.32,2.09.65,3.14.98.34.38.67.76,1.01,1.14,2.44,2.93,4.44,6.84,9.32,5.1,4.09-1.46,7.03-4.3,6.31-8.9-.69-4.34-.78-9.7-7.38-9.87-1.64-1.37-3.29-2.75-4.93-4.12,7.9-2.57,12.99,1.89,17.78,7.1-.39,2.48-1.08,4.95-1.12,7.43-.15,8.22-5.37,13.73-13.55,13.46-3.19-.11-6.35-1.3-9.52-1.99,0,0,0,0,0,0Z" style="fill:#565b5e;"/><path d="m62.92,123.23c-6.81,7.67-15.52,5.74-24.03,4.69-1.37-.17-2.69-.65-4.04-.99-1.04-2.28-2.09-4.55-3.13-6.83,2.03,0,4.06,0,6.09,0,0,0,0,0,0,0,1.06,1.21,1.94,3.23,3.2,3.49,8.31,1.72,16.34,1.45,21.4-7.67,1.83-3.29,3.88-6.46,5.83-9.68.68.06,1.35.13,2.03.19.32.44.64.89.96,1.33,0,1.33-.02,2.65-.03,3.98-1.64.62-4.11.78-4.75,1.94-1.62,2.94-2.42,6.33-3.55,9.54Z" style="fill:#44484a;"/><path d="m44.23,94.1c1.64,1.37,3.29,2.75,4.93,4.12.34,1.68.67,3.37,1.01,5.05-3.42,2.49-6.85,4.99-10.27,7.48-1.05-.33-2.09-.65-3.14-.98-1.47-2.11-2.95-4.21-4.42-6.32-.33-.03-.66-.07-1-.1.97-5.57,6.39-9.46,12.89-9.25Z" style="fill:#aab0b5;"/><path d="m183.17,167.3c1.02-.79,2.05-1.58,3.07-2.36,3.86,1.44,7.71,2.88,11.57,4.32,4.22,3.51,8.45,7.03,12.67,10.54-1.02,1.39-2.03,2.77-3.05,4.16-.43.32-.86.65-1.29.97-6.59-4.53-13.24-9-19.74-13.65-1.34-.96-2.17-2.63-3.23-3.97Z" style="fill:#cfd3d6;"/><path d="m71.37,96.91c-.32-4.83-.64-9.66-.96-14.48,1.3-.96,2.77-1.77,3.86-2.93,2.29-2.42,4.38-5.03,6.55-7.57,1.37,1.03,2.74,2.07,4.1,3.1-2.89,3.79-6.04,7.47-5.22,12.78-2.11,2.04-4.21,4.09-6.32,6.13-.67.99-1.34,1.98-2.01,2.96Z" style="fill:#5c5648;"/><path d="m220.82,210.86c-7.93-4.38-13.92-10.27-15.51-19.65,3.03.15,6.56-1.16,8.11,3.18.23.64,2.09.69,3.2,1.01,1.41,2.08,2.82,4.15,4.23,6.23-.01,3.08-.02,6.16-.03,9.24Z" style="fill:#44484a;"/><path d="m111.03,81.4c4.19-2.08,8.37-4.16,12.56-6.24,0,1.03,0,2.07,0,3.1-2.11,1.31-4.56,2.28-6.25,4-3.09,3.14-.98,11.18,3.07,12.75,1.75,2.1,3.5,4.2,5.25,6.3-.34.34-.69.68-1.03,1.02-9.4-.21-14.04-6.71-12.38-17.05.19-1.19-.79-2.58-1.22-3.87Z" style="fill:#e1e3e5;"/><path d="m154.97,148.28c1.4,1.04,2.79,2.09,4.19,3.13-2.26,2.02-4.7,3.88-6.73,6.11-1.81,1.99-3.18,4.38-4.74,6.59,0,0,.05-.05.05-.05-.38.27-.75.55-1.13.82-3.84.35-7.68.7-11.52,1.05.6-4.75,2.69-7.42,7.95-8.44,4.44-.86,9.27-2.74,10.87-8.12.35-.36.71-.73,1.06-1.09Z" style="fill:#575243;"/><path d="m147.77,80.44c.72,2.03,1.44,4.06,2.16,6.08-.74.85-2.01,1.64-2.12,2.57-.49,4-3.27,5.2-6.57,5.95-.96-.05-1.93-.11-2.89-.16-1.07-.27-2.13-.53-3.2-.8-.07-.75-.13-1.49-.2-2.24.74-.34,1.48-.69,2.22-1.03,2.97.36,4.73-.68,4.16-3.93-.57-3.27-1.36-6.5-2.05-9.75,2.83,1.11,5.66,2.21,8.5,3.32Z" style="fill:#d2d6d9;"/><path d="m68.25,106.23c-1.95,3.22-4,6.39-5.83,9.68-5.07,9.12-13.09,9.39-21.4,7.67-1.25-.26-2.14-2.28-3.2-3.49,3.17.7,6.33,1.88,9.52,1.99,8.18.28,13.4-5.24,13.55-13.46.05-2.48.73-4.95,1.12-7.43,1.69.75,3.38,1.5,5.07,2.25.32.34.63.69.95,1.03.08.58.15,1.17.23,1.75Z" style="fill:#4e5355;"/><path d="m197.66,57.36c-2.39,1.04-4.79,2.08-7.18,3.12-.34,0-.69,0-1.03-.01-1.06-1.43-2.12-2.86-3.18-4.29,2.88-4.7,3.91-10.77,10.41-14.25.37,5.75.68,10.59.98,15.44Z" style="fill:#504b3e;"/><path d="m71.31,134.73c.68-1.74,1.36-3.49,2.04-5.23.36,0,.72,0,1.08,0,2.09,4.4,3.68,9.15,6.43,13.1,2.39,3.44,6.3,5.78,9.09,9,1.3,1.5,1.54,3.93,2.26,5.94-3.14-1.38-6.28-2.77-9.41-4.15-.55-1.71-.75-3.65-1.71-5.08-3.1-4.62-6.48-9.06-9.76-13.57Z" style="fill:#575243;"/><path d="m71.37,96.91c.67-.99,1.34-1.98,2.01-2.96,1.75,1.74,3.5,3.47,5.24,5.21,2.05,3.71,5.25,4.85,9.28,4.17-1.32,1.07-2.64,2.13-3.97,3.2-3.29,1.32-6.59,2.63-9.88,3.95-.94-.91-1.88-1.81-2.82-2.72-.32-.44-.64-.89-.96-1.33.42-1.06,3.9-2.23-.12-3.12.4-2.13.81-4.26,1.21-6.39Z" style="fill:#d9dcde;"/><path d="m139.27,77.12c.69,3.25,1.48,6.48,2.05,9.75.57,3.25-1.19,4.3-4.16,3.93.88-5.65-.53-10.21-6.5-11.99-2.22-.66-4.72-.4-7.09-.56,0-1.03,0-2.07,0-3.1,5.53-1.72,10.83-1.68,15.69,1.97Z" style="fill:#d9dcde;"/><path d="m111.03,81.4c.44,1.3,1.42,2.68,1.22,3.87-1.66,10.34,2.98,16.85,12.38,17.05-2.09,3.81-5.49,4.54-8.82.84-3.74-4.14-6.53-9.13-9.74-13.75.32-1.29.64-2.59.96-3.88,1.33-1.38,2.66-2.75,3.99-4.13Z" style="fill:#d9dcde;"/><path d="m71.31,134.73c3.27,4.51,6.66,8.94,9.76,13.57.96,1.43,1.16,3.38,1.71,5.08-4.01-2.36-8.07-4.63-12-7.12-1.1-.7-1.8-2.02-2.68-3.06,1.07-2.83,2.14-5.65,3.21-8.48Z" style="fill:#504b3e;"/><path d="m207.43,183.95c1.02-1.39,2.03-2.77,3.05-4.16,7.07.73,12.22,3.68,13.23,11.43-2.34.34-4.67.67-7.01,1.01-3.09-2.76-6.18-5.52-9.27-8.28Z" style="fill:#6e7479;"/><path d="m186.27,56.18c1.06,1.43,2.12,2.86,3.18,4.29-2.44,4.9-4.87,9.8-7.31,14.71-5-2.37-2.56-6.98-3.2-10.66,2.44-2.78,4.89-5.56,7.33-8.34Z" style="fill:#403b30;"/><path d="m147.68,164.11c1.56-2.21,2.93-4.61,4.74-6.59,2.03-2.23,4.47-4.09,6.73-6.11,2.43,2.05,4.86,4.11,7.29,6.16-6.25,2.18-12.51,4.36-18.76,6.54Z" style="fill:#504b3e;"/><path d="m79.7,87.82c-.82-5.31,2.33-8.99,5.22-12.78,1.4,1.04,2.79,2.07,4.19,3.11-.72,3.12-1.43,6.23-2.15,9.35-2.42.11-4.84.21-7.26.32Z" style="fill:#625c4d;"/><path d="m80.82,71.94c-2.17,2.53-4.26,5.14-6.55,7.57-1.09,1.16-2.56,1.96-3.86,2.93,0-3.48,0-6.97,0-10.45,2.05-1.43,4.1-2.87,6.14-4.3,1.42,1.42,2.83,2.84,4.25,4.26Z" style="fill:#504b3e;"/><path d="m107.03,85.53c-.32,1.29-.64,2.59-.96,3.89-.36.1-.58.33-.65.71-.98,3-1.96,5.99-2.93,8.99-.23.02-.46,0-.69-.06-.37-.31-.75-.61-1.12-.92-.79-2.07-1.58-4.14-2.37-6.21,1.1-2.75,2.19-5.5,3.29-8.26,1.81.62,3.62,1.24,5.43,1.87Z" style="fill:#7f7866;"/><path d="m207.43,183.95c3.09,2.76,6.18,5.52,9.27,8.28-.03,1.06-.06,2.12-.08,3.17-1.11-.32-2.97-.37-3.2-1.01-1.55-4.33-5.08-3.02-8.11-3.18.28-2.1.56-4.19.84-6.29.43-.32.86-.65,1.29-.97Z" style="fill:#4e5355;"/><path d="m216.62,195.4c.03-1.06.05-2.11.08-3.17,2.34-.34,4.68-.67,7.01-1.01.38,3.49.75,6.98,1.13,10.47-1.33-.02-2.66-.04-3.99-.06-1.41-2.08-2.82-4.15-4.23-6.23Z" style="fill:#656b6d;"/><path d="m86.96,87.5c.72-3.12,1.43-6.23,2.15-9.35,1.38.78,2.75,1.57,4.13,2.35.7,3.03,1.39,6.06,2.09,9.09-1.37-.33-2.74-.67-4.11-1-1.42-.36-2.84-.73-4.26-1.09Z" style="fill:#6c6656;"/><path d="m220.85,201.63c1.33.02,2.66.04,3.99.06.82,3.69,1.64,7.39,2.75,12.39-3.03-1.44-4.9-2.32-6.77-3.21.01-3.08.02-6.16.03-9.24Z" style="fill:#4e5355;"/><path d="m95.33,89.59c-.7-3.03-1.39-6.06-2.09-9.09,2.79,1.05,5.58,2.11,8.37,3.16-1.1,2.75-2.19,5.5-3.29,8.26-1-.78-1.99-1.55-2.99-2.32Z" style="fill:#77705f;"/><path d="m76.57,67.68c-2.05,1.43-4.1,2.87-6.14,4.3v-11.23c.35-.18.69-.35,1.04-.53,1.7,2.49,3.4,4.97,5.11,7.46Z" style="fill:#474336;"/><path d="m197.81,169.25c-3.86-1.44-7.71-2.88-11.57-4.32.8-1.37,1.59-2.73,2.39-4.1,3.06,2.8,6.12,5.61,9.18,8.41Z" style="fill:#e1e3e5;"/><path d="m70.16,103.3c4.02.89.54,2.06.12,3.12-.68-.06-1.35-.13-2.03-.19-.07-.58-.15-1.17-.23-1.75.39-.36.78-.72,1.18-1.08.32-.03.64-.06.96-.1Z" style="fill:#cfd3d6;"/><path d="m31.34,103.35c.33.03.66.07,1,.1-.17,1.59-.35,3.18-.52,4.77-.36-.02-.71-.03-1.07-.05-.2-.89-.39-1.79-.59-2.68.06-.68.12-1.36.18-2.04.33-.11.66-.14,1-.1Z" style="fill:#d9dcde;"/><path d="m69.2,103.4c-.39.36-.78.72-1.18,1.08-.32-.34-.63-.69-.95-1.03.71-.02,1.42-.04,2.12-.05Z" style="fill:#e8eaec;"/><path d="m146.61,164.88c.38-.27.75-.55,1.13-.82-.38.27-.75.55-1.13.82Z" style="fill:#504b3e;"/><path d="m182.14,75.18c2.44-4.9,4.87-9.8,7.31-14.71.34.01.69.01,1.03.01.03,7.53-4.39,13.08-8.34,18.85,0-1.38,0-2.77,0-4.15Z" style="fill:#6c6656;"/><path d="m74.43,129.49c-.36,0-.72,0-1.08,0-.36-4.52-.71-9.05-1.07-13.57-.32-1.05-.64-2.11-.97-3.16,2.77,3.96,5.61,7.87,8.28,11.89,3.23,4.87,5.97,10.09,9.52,14.7,7.4,9.61,18.41,12.67,29.6,14.2,5.14.7,10.75-.76,15.89-2.17,1.62-.44,2.41-3.91,3.57-5.99,3.88-.42,7.76-.83,11.65-1.25,1.71,1.38,3.42,2.76,5.13,4.14-.35.36-.71.73-1.06,1.09-4.37,1.48-8.69,3.15-13.12,4.41-10.11,2.86-20.67,5.75-30.84,2.65-13.35-4.07-24.75-11.69-31.8-24.53-.63-1.14-2.45-1.62-3.71-2.41Z" style="fill:#625c4d;"/><path d="m71.32,112.77c.32,1.05.64,2.11.97,3.16-1.83,1.25-3.71,2.42-5.46,3.77-1.39,1.07-2.61,2.35-3.9,3.53,1.13-3.21,1.93-6.6,3.55-9.54.64-1.17,3.11-1.32,4.75-1.94.03.34.07.68.1,1.02Z" style="fill:#3d3f42;"/><path d="m150.81,86.61c5.81,1.06,9.8,6.87,10.48,13.96,1.04,10.86.48,21.19-6.75,30.18-.73.91-.46,2.63-.65,3.98,0,0,0,0,0,0-3.5.04-4.07,1.49-2.03,4.21,0,.36-.02.73-.03,1.09-.67.67-1.35,1.35-2.02,2.02-4.55.38-9.11.76-13.66,1.14,1.54-1.75,2.81-3.91,4.67-5.18,9.89-6.74,15.28-16.09,16.91-27.8.54-3.88.53-7.45-4.7-7.91-.74-5.23-1.49-10.46-2.23-15.69Z" style="fill:#706a5a;"/><path d="m136.16,143.19c4.55-.38,9.11-.76,13.66-1.14,0,.7,0,1.4,0,2.09-3.88.42-7.76.83-11.65,1.25-.68-.08-1.36-.16-2.05-.24-.02-.37-.04-.75-.06-1.12.03-.28.06-.56.08-.84Z" style="fill:#323538;"/><path d="m151.85,140.03c0-.36.02-.73.03-1.09.67-1.04,1.35-2.08,2.03-3.12,0,.34,0,.67.02,1.01.34.68.69,1.37,1.03,2.06.71.34,1.42.68,2.13,1.02-1.74.04-3.48.08-5.23.12Z" style="fill:#403b30;"/><path d="m150.81,86.61c.74,5.23,1.49,10.46,2.23,15.69-1.31,3.03-2.63,6.06-3.94,9.09-1.21,1.11-2.42,2.21-3.63,3.32-1.72,1.15-3.43,2.3-5.15,3.46-.86.02-1.78-.15-2.56.1-13.76,4.35-23.83.69-31.22-11.24-.92-1.48-2.57-2.51-3.89-3.75-.02-.35-.04-.7-.06-1.05-.03-1.04-.07-2.08-.1-3.12.98-3,1.96-5.99,2.94-8.98.76,2.64,1.49,5.28,2.28,7.9,3.4,11.24,10.13,14.14,19.55,8.45,1.23.68,2.45,1.37,3.68,2.05.72-.07,1.45-.13,2.17-.2,1.28-.03,2.56-.06,3.84-.08,3.91.27,4.77-.28,4.43-2.78.04-2.13.09-4.26.13-6.39.25-.66.51-1.31.76-1.97l-1.02-2.07c3.3-.75,6.08-1.94,6.57-5.95.11-.93,1.39-1.71,2.12-2.57.29,0,.59.03.88.08Z" style="fill:#c7cbce;"/><path d="m153.9,135.82c-.68,1.04-1.35,2.08-2.03,3.12-2.04-2.71-1.47-4.17,2.03-4.21,0,.36,0,.73,0,1.09Z" style="fill:#686253;"/><path d="m154.95,138.89c-.34-.69-.69-1.37-1.03-2.06.34.69.69,1.37,1.03,2.06Z" style="fill:#625c4d;"/><path d="m50.17,103.27c-.34-1.68-.67-3.37-1.01-5.05,6.59.17,6.69,5.52,7.37,9.87.73,4.6-2.21,7.44-6.31,8.9-4.88,1.74-6.88-2.16-9.32-5.1,1.03-.05,2.06-.21,3.07-.11,5.66.54,8.27-3.02,6.19-8.5Z" style="fill:#656b6d;"/><path d="m50.17,103.27c2.08,5.49-.53,9.05-6.19,8.5-1.01-.1-2.05.07-3.07.11-.34-.38-.67-.76-1.01-1.14,3.42-2.49,6.85-4.98,10.27-7.48Z" style="fill:#8d959b;"/><path d="m136.14,145.15c.68.08,1.36.16,2.05.24-1.17,2.08-1.96,5.55-3.57,5.99-5.14,1.41-10.75,2.87-15.89,2.17-11.19-1.52-22.2-4.59-29.6-14.2-3.55-4.61-6.29-9.84-9.52-14.7-2.67-4.02-5.51-7.93-8.28-11.89-.03-.34-.07-.68-.1-1.02,0-1.33.02-2.65.03-3.98.94.91,1.88,1.81,2.82,2.72,2.23,1.75,4.47,3.5,6.7,5.26,2.04,5.07,3.16,10.82,6.3,15.08,9.57,12.96,22.04,20.7,39.1,18.66,3.05-.37,3.98-1.4,3.67-4.15,2.1-.06,4.2-.12,6.31-.18Z" style="fill:#686253;"/><path d="m86.96,87.5c1.42.36,2.84.73,4.26,1.09-.74,2.15-1.48,4.3-2.22,6.45-1.52-.24-3.02-.61-4.55-.69-3.36-.19-6.32.27-5.82,4.82-1.75-1.74-3.5-3.47-5.24-5.21,2.11-2.04,4.21-4.09,6.32-6.13,2.42-.11,4.84-.21,7.26-.32Z" style="fill:#e8eaec;"/><path d="m123.58,78.26c2.37.16,4.87-.11,7.09.56,5.97,1.78,7.37,6.34,6.5,11.99-.74.34-1.48.69-2.22,1.03-.66-.53-1.61-.93-1.94-1.62-1.84-3.93-5.16-4.42-8.6-3.23-3.6,1.24-4.36,4.49-4.01,8.02-4.05-1.57-6.16-9.61-3.07-12.75,1.69-1.72,4.14-2.69,6.25-4Z" style="fill:#e8eaec;"/><path d="m120.4,95.01c-.35-3.52.41-6.78,4.01-8.02,3.44-1.19,6.76-.7,8.6,3.23.32.69,1.28,1.09,1.94,1.62.07.75.13,1.49.2,2.24-1.13,2.04-2.25,4.08-3.38,6.13-.39.9-.78,1.81-1.17,2.71l-.1.32c-.83-.59-1.66-1.19-2.49-1.78-.78-.05-1.57-.09-2.35-.14-1.75-2.1-3.5-4.2-5.25-6.3Z" style="fill:#fefeff;"/><path d="m125.66,101.31c.78.05,1.57.09,2.35.14-.05.61-.09,1.22-.14,1.83-.2,1.07-.41,2.14-.61,3.21-9.42,5.69-16.14,2.79-19.55-8.45-.79-2.62-1.52-5.26-2.28-7.9.07-.38.29-.61.65-.71,3.2,4.62,5.99,9.61,9.73,13.75,3.34,3.7,6.73,2.97,8.82-.84.34-.34.69-.68,1.03-1.02Z" style="fill:#d2d6d9;"/><path d="m131.77,100.2c1.13-2.04,2.25-4.08,3.38-6.13,1.07.27,2.13.53,3.2.8.33,1.05.66,2.1.99,3.16.72.35,1.45.69,2.17,1.04-.04,2.13-.09,4.26-.13,6.39-.71-.07-1.43-.14-2.14-.21.21-1.48.43-2.97.73-5.05h-8.19Z" style="fill:#3d3f42;"/><path d="m139.33,98.04c-.33-1.05-.66-2.1-.99-3.16.96.05,1.93.11,2.89.16.34.69.68,1.38,1.02,2.07-.98.31-1.95.62-2.93.93Z" style="fill:#8c8472;"/><path d="m80.77,115.74c-2.23-1.75-4.47-3.51-6.7-5.26,3.29-1.32,6.59-2.63,9.88-3.95,2.67.62,5.35,1.24,8.02,1.87,2.52-.28,5.03-.57,7.55-.85-.37.99-.74,1.97-1.11,2.96-1.71,1.11-3.42,2.23-5.13,3.34-1.06.32-2.11.64-3.17.96-.7.1-1.4.19-2.1.29-.37.26-.74.51-1.1.77,0,0,.06,0,.06,0-1.04.08-2.07.16-3.11.24-1.02-.12-2.04-.24-3.07-.35Z" style="fill:#cfd3d6;"/><path d="m78.63,99.16c-.5-4.55,2.46-5,5.82-4.82,1.52.09,3.03.45,4.55.69.39.69.78,1.37,1.17,2.06-.23,1.11-.46,2.22-.69,3.33-.11.65-.22,1.29-.32,1.94-.42.32-.84.65-1.25.97-4.02.68-7.23-.46-9.28-4.17Z" style="fill:#fefeff;"/><path d="m87.91,103.33c.42-.32.84-.65,1.25-.97,1.2.36,2.4.72,3.6,1.08-.27,1.65-.53,3.3-.8,4.95-2.67-.62-5.35-1.24-8.02-1.87,1.32-1.07,2.64-2.13,3.97-3.2Z" style="fill:#3d3f42;"/><path d="m90.17,97.1c-.39-.69-.78-1.37-1.17-2.06.74-2.15,1.48-4.3,2.22-6.45,1.37.33,2.74.67,4.11,1,1,.77,1.99,1.55,2.99,2.32.79,2.07,1.58,4.14,2.37,6.21-.39,0-.78,0-1.17,0-2.73,0-5.47-.02-8.2-.03-.38-.33-.76-.67-1.14-1Z" style="fill:#d2d6d9;"/><path d="m99.51,98.13c.39,0,.78,0,1.17,0,.37.31.75.61,1.12.92.26,1.06.53,2.12.79,3.17.02.35.04.7.06,1.05-1.05,1.42-2.1,2.85-3.14,4.27-2.52.28-5.03.57-7.55.85.27-1.65.53-3.3.8-4.96.11-.69.22-1.39.33-2.08,2.75.13,7.03,3.31,6.42-3.24Z" style="fill:#aab0b5;"/><path d="m102.59,102.22c-.26-1.06-.53-2.11-.79-3.17.23.05.46.07.69.06.03,1.04.07,2.08.1,3.12Z" style="fill:#8d959b;"/><path d="m87.99,115.09c.7-.1,1.4-.19,2.1-.29,5.55,5.93,10.22,13.19,16.81,17.51,15.99,10.5,35.62,3.02,43.21-15.47.59-1.44-.63-3.62-1.01-5.45,1.31-3.03,2.63-6.06,3.94-9.09,5.23.46,5.24,4.03,4.7,7.91-1.62,11.7-7.02,21.06-16.91,27.8-1.87,1.27-3.13,3.43-4.67,5.18-.02.28-.05.56-.08.85-1.03,0-2.05,0-3.08,0-.81-.63-1.54-1.55-2.45-1.77-.4-.1-1.14,1.24-1.72,1.92h.03c-1.06-.01-2.13-.03-3.19-.04-3.53-.01-7.13.39-10.59-.12-13.67-2.02-27.51-15.6-28.13-28.18,0,0-.06,0-.06,0,.37-.26.74-.51,1.1-.77Z" style="fill:#77705f;"/><path d="m133,144.03c1.03,0,2.06,0,3.08,0,.02.37.04.75.06,1.12-2.1.06-4.2.12-6.31.18-.32-.38-.65-.77-.97-1.15,0,0-.03,0-.03,0,1.39-.05,2.78-.1,4.17-.15Z" style="fill:#403b30;"/><path d="m99.51,107.54c1.05-1.42,2.1-2.85,3.14-4.27,1.31,1.24,2.97,2.26,3.89,3.75,7.39,11.93,17.46,15.59,31.22,11.24.79-.25,1.71-.08,2.56-.1,1.31,6.47-4.04,7.15-7.92,9.01-9.26,4.42-20.63,2.74-26.3-4.34-3.01-3.75-5.17-8.2-7.71-12.33.37-.99.74-1.97,1.11-2.96Z" style="fill:#8c8472;"/><path d="m149.1,111.39c.38,1.84,1.6,4.02,1.01,5.45-7.58,18.5-27.21,25.97-43.21,15.47-6.59-4.33-11.27-11.59-16.81-17.51,1.06-.32,2.11-.64,3.17-.96,2,1.9,4.44,3.5,5.93,5.73,12.71,19.06,31.24,17.49,44.54,2.47,1.47-1.66,1.2-4.86,1.74-7.34,1.21-1.11,2.42-2.21,3.63-3.32Z" style="fill:#7f7866;"/><path d="m145.47,114.7c-.54,2.48-.27,5.68-1.74,7.34-13.3,15.01-31.83,16.58-44.54-2.47-1.49-2.23-3.93-3.84-5.93-5.73,1.71-1.11,3.42-2.23,5.13-3.34,2.54,4.13,4.69,8.57,7.71,12.33,5.68,7.08,17.04,8.76,26.3,4.34,3.89-1.86,9.23-2.54,7.92-9.01,1.72-1.15,3.43-2.3,5.15-3.46Z" style="fill:#847d6b;"/><path d="m131.77,100.2h8.19c-.3,2.08-.52,3.57-.73,5.05-.76,1-1.52,1.99-2.28,2.99-1.28.03-2.56.06-3.84.08-.7-1.34-1.4-2.69-2.09-4.03-.14-.46-.28-.92-.41-1.38.39-.9.78-1.81,1.17-2.71Z" style="fill:#323538;"/><path d="m130.6,102.91c.14.46.28.92.41,1.38-.03,1.41-.05,2.82-.08,4.23-1.23-.68-2.45-1.37-3.68-2.05.2-1.07.4-2.14.61-3.21.88-.01,1.75-.03,2.63-.04l.1-.32Z" style="fill:#8d959b;"/><path d="m136.95,108.24c.76-1,1.52-1.99,2.28-2.99.71.07,1.43.14,2.14.21.35,2.5-.52,3.04-4.43,2.78Z" style="fill:#8c8472;"/><path d="m130.94,108.53c.03-1.41.05-2.82.08-4.23.7,1.34,1.4,2.69,2.1,4.03-.72.07-1.45.13-2.17.2Z" style="fill:#656b6d;"/><path d="m139.33,98.04c.98-.31,1.95-.62,2.93-.93-.25.66-.51,1.31-.76,1.97-.72-.35-1.45-.69-2.17-1.04Z" style="fill:#656b6d;"/><path d="m128.86,144.18c.32.38.65.77.97,1.15.31,2.75-.62,3.78-3.67,4.15-17.06,2.04-29.52-5.7-39.1-18.66-3.14-4.26-4.26-10.01-6.3-15.08,1.02.12,2.04.24,3.07.35.72,2.31,1.37,4.64,2.18,6.92,4.9,13.65,21.21,24.72,35.61,24.3,2.25-.07,4.31-.03,4.04-3.16,1.06.01,2.13.02,3.19.03Z" style="fill:#6c6656;"/><path d="m130.5,103.23c-.88.01-1.75.03-2.63.04.05-.61.09-1.22.14-1.83.83.59,1.66,1.19,2.49,1.78Z" style="fill:#44484a;"/><path d="m125.67,144.14c.27,3.13-1.79,3.1-4.04,3.16-14.4.42-30.7-10.65-35.61-24.3-.82-2.27-1.46-4.61-2.18-6.92,1.04-.08,2.07-.16,3.11-.24.62,12.58,14.46,26.16,28.13,28.18,3.46.51,7.06.1,10.59.12Z" style="fill:#706a5a;"/><path d="m87.99,115.09c-.37.26-.73.51-1.1.77.37-.26.74-.51,1.1-.77Z" style="fill:#7f7866;"/><path d="m93.09,101.36c-.11.69-.22,1.39-.33,2.08-1.2-.36-2.4-.72-3.6-1.08.11-.65.22-1.29.32-1.94,0,0,.44.04.44.04,0,0,.42-.13.42-.13.29-.04.58-.09.87-.15.62.39,1.25.79,1.87,1.18Z" style="fill:#4e5355;"/><path d="m90.35,100.33l-.42.13s-.44-.04-.44-.04c.23-1.11.46-2.22.69-3.33.38.33.76.67,1.14,1-.1.4-.19.8-.29,1.19-.22.35-.45.7-.67,1.04Z" style="fill:#8d959b;"/><path d="m91.03,99.29c.09-.4.19-.8.29-1.19,2.74,0,5.47.02,8.2.03.61,6.54-3.68,3.36-6.42,3.24-.62-.39-1.25-.79-1.87-1.18-.02-.31-.08-.61-.19-.89Z" style="fill:#c7cbce;"/><path d="m133,144.03c-1.39.05-2.78.1-4.17.15.58-.68,1.32-2.01,1.72-1.92.91.22,1.64,1.13,2.45,1.77Z" style="fill:#706a5a;"/><path d="m91.03,99.29c.11.29.18.58.19.89-.29.06-.58.11-.87.15.23-.35.45-.69.68-1.04Z" style="fill:#656b6d;"/></svg>