<?xml version="1.0" encoding="UTF-8"?><svg id="a" xmlns="http://www.w3.org/2000/svg" viewBox="0 0 256 256"><rect width="256" height="256" rx="60" ry="60" style="fill:#242938;"/><path d="m196.87,97.95c-18.52-14.09-39.72-19.08-62.17-19.45-22.44-.37-43.25,5.49-61.93,18.54-1.15-14.74,33.19-39.25,55.09-40.2,19.68-.86,37.35,3.88,52.09,17.28,7.24,6.58,14.41,13.44,16.92,23.84Z" style="fill:#eb8502;"/><path d="m72.86,154.84c40.7,24.99,81.67,25.65,122.91.34-5.69,17.87-29.16,37.49-56.54,40.06-27.93,2.61-60.23-17.99-66.37-40.4Z" style="fill:#eb8502;"/><path d="m93.64,206.27c.04,7.57-6.08,13.64-13.5,13.39-5.61-.19-12.05-7.1-12.14-13.03-.1-7.21,5-12.38,12.26-12.41,8.96-.04,13.33,3.89,13.38,12.05Z" style="fill:#9fa8b1;"/><path d="m186.74,36.33c6.85.06,10.62,3.92,10.53,10.78-.08,5.56-5.15,10.67-10.73,10.81-4.49.11-10.78-6.29-10.91-11.1-.16-5.6,5.07-10.54,11.11-10.49Z" style="fill:#9fa8b1;"/><path d="m76.23,62.35c.1,4.3-4.22,8.63-8.87,8.9-3.68.21-8.5-4.57-8.63-8.58-.14-3.99,4.23-8.63,8.34-8.87,4.26-.25,9.06,4.23,9.16,8.54Z" style="fill:#9fa8b1;"/></svg>