<?xml version="1.0" encoding="UTF-8"?><svg id="a" xmlns="http://www.w3.org/2000/svg" viewBox="0 0 256 256"><rect width="256" height="256" rx="60" ry="60" style="fill:#2e7046;"/><path d="m47.6,78.84c1.16-.94,81.9-47.33,81.93-47.34,5.08-.84,7.29,3.14,20.13,10.78,2.94,1.75,4,2.26,9.13,5.3,2.71,1.61,5.39,3.3,8.1,4.92,3.54,2.12,7.09,4.21,10.64,6.31,5.01,2.97,10,5.97,15.01,8.93,2.93,1.73,5.92,3.35,8.81,5.14,2.95,1.84,5.8,3.83,8.69,5.75-.94,2.23-2.25,3.97-4.96,4.06-.4.01-.81.4-1.17.67-.74.54-1.4,1.21-2.19,1.68-2.34,1.39-4.74,2.68-7.07,4.07-1.51.9-2.9,2-4.44,2.83-3.08,1.68-6.24,3.22-9.35,4.85-.57.29-1.08.69-1.61,1.04-.83-.54-1.64-1.13-2.5-1.61-3.79-2.14-44.15-25.57-44.88-25.95-1.98-1.02-3.88-1.48-5.99-.2-4.46,2.71-46.69,26.74-47.5,27.34-.87-.19-29.61-17.88-30.77-18.58Z" style="fill:#13e883;"/><path d="m179.24,97.84c4.92-2.69,25.97-15.79,30.79-19.2.42.16,0,64.82,0,96.89-1.21.84-80.51,48.68-81.45,49.08,0-.29-.22-35.4-.22-36.19.76-.58,51.33-27.85,52.16-28.54,0,0-1.14-54.88-1.28-62.05Z" style="fill:#00ad68;"/><path d="m128.68,221.89c.01,1.1-.04,2.03-.09,2.72-.18-.11-.46-.28-.8-.48-1.15-.66-28.84-17.04-29.46-17.51-1-.76-1.51-1.74-1.33-3.05.09-.66.81-53.42,1.05-55.61.12-1.11-.41-1.74-1.23-2.23-3.7-2.22-47.52-27.93-49.24-29.03-.52-.33-.92-.73-1.21-1.19-.16-.26-.58-1-.58-2.25,0-1.7.7-15.53,1.81-34.42,45.87,27.71,78.85,47.61,79.74,48.08.08.04.53.26.85.75.24.37.34.81.35,1.31.03,1.12.12,91.44.14,92.91Z" style="fill:#161f27;"/></svg>