<?xml version="1.0" encoding="UTF-8"?><svg id="a" xmlns="http://www.w3.org/2000/svg" viewBox="0 0 256 256"><rect width="256" height="256" rx="60" ry="60" style="fill:#242938;"/><path d="m93.94,208.82c-.95-.78-23.92-65.42-24.9-65.74-1.02-.34-1.43,42.26-1.42,45.56,0,1.65-.99,2.56-2.04,1.89-.91-.58-11.48-11.77-11.77-11.96-.95-.6-1.35-1.66-1.34-3.17.01-5.39.2-90.76.39-90.75.75.07,16.16,10.87,16.77,12.69.67,2.02,21.19,66.88,21.82,67.06,1.04.3.66-52.65,1.17-52.18.9.83,14.58,11.42,15.62,11.74,1.64.52,2.16,1.73,1.73,4.16-.21,1.19-.42,86.35-.4,91.4,0,.76-14.23-9.58-15.63-10.72Z" style="fill:#4b75ce;"/><path d="m122.62,127.62c3.19-1.31,30.35-14.33,34.45-16.28.14-.06.27,34.61-.23,36.29-.15.5-31.82,16.78-33.61,17-.59.07-.62-.3-.62-.75.02-1.12.01-2.24.01-3.36,0-5.04,0-10.08,0-15.13,0,0,0-11.85,0-17.77Z" style="fill:#4b75ce;"/><path d="m168.96,159.31c3.19-1.31,30.35-14.33,34.45-16.28.14-.06.27,34.61-.23,36.29-.15.5-31.82,16.78-33.61,17-.59.07-.62-.3-.62-.75.02-1.12.01-2.24.01-3.36,0-5.04,0-10.08,0-15.13,0,0,0-11.85,0-17.77Z" style="fill:#4b75ce;"/><path d="m167.16,106c3.19-1.31,30.35-14.33,34.45-16.28.14-.06.27,34.61-.23,36.29-.15.5-31.82,16.78-33.61,17-.59.07-.62-.3-.62-.75.02-1.12.01-2.24.01-3.36,0-5.04,0-10.08,0-15.13,0,0,0-11.85,0-17.77Z" style="fill:#4b75ce;"/><path d="m123.73,182.56c3.19-1.31,30.35-14.33,34.45-16.28.14-.06.27,34.61-.23,36.29-.15.5-31.82,16.78-33.61,17-.59.07-.62-.3-.62-.75.02-1.12.01-2.24.01-3.36,0-5.04,0-10.08,0-15.13,0,0,0-11.85,0-17.77Z" style="fill:#4b75ce;"/><path d="m118.76,118.25c-2.3-1.81-23.43-16.46-26.62-18.69-.11-.07,28.11-14.91,29.68-15.24.47-.1,26.01,16.52,26.88,17.75.29.41,0,.59-.37.78-.92.46-1.83.94-2.75,1.42-4.11,2.14-8.22,4.28-12.33,6.43,0,0-9.66,5.04-14.49,7.55Z" style="fill:#4b75ce;"/><path d="m126.65,70.35c-2.3-1.81-23.43-16.46-26.62-18.69-.11-.07,28.11-14.91,29.68-15.24.47-.1,26.01,16.52,26.88,17.75.29.41,0,.59-.37.78-.92.46-1.83.94-2.75,1.42-4.11,2.14-8.22,4.28-12.33,6.43,0,0-9.66,5.04-14.49,7.55Z" style="fill:#4b75ce;"/><path d="m83.89,94.33c-2.3-1.81-23.43-16.46-26.62-18.69-.11-.07,28.11-14.91,29.68-15.24.47-.1,26.01,16.52,26.88,17.75.29.41,0,.59-.37.78-.92.46-1.83.94-2.75,1.42-4.11,2.14-8.22,4.28-12.33,6.43,0,0-9.66,5.04-14.49,7.55Z" style="fill:#4b75ce;"/><path d="m163.13,94.08c-2.3-1.81-23.43-16.46-26.62-18.69-.11-.07,28.11-14.91,29.68-15.24.47-.1,26.01,16.52,26.88,17.75.29.41,0,.59-.37.78-.92.46-1.83.94-2.75,1.42-4.11,2.14-8.22,4.28-12.33,6.43,0,0-9.66,5.04-14.49,7.55Z" style="fill:#4b75ce;"/></svg>