<?xml version="1.0" encoding="UTF-8"?><svg id="a" xmlns="http://www.w3.org/2000/svg" viewBox="0 0 256 256"><rect width="256" height="256" rx="60" ry="60" style="fill:#0f2619;"/><path d="m63.71,130.83c1.69-4.82,3.51-8.27,4.55-10.19,4.47-8.22,10.19-15.48,17.32-21.66,3.17-2.75,6.31-5.54,9.81-7.87,1.7-1.13,2.24-2.63,2.44-4.44.41-3.71,1.29-7.3,2.78-10.73,2.67-6.18,7.13-10.75,12.83-14.34,5.56-3.5,11.58-5.82,17.88-7.57,2.79-.78,5.6-1.47,8.44-1.97,2.26-.4,4.56-.6,6.84-.9,7.13-.95,14.3-1.29,21.49-.98,2.93.13,5.83.47,8.75.73,3.6.33,7.16.91,10.71,1.51,2.64.45,5.23,1.2,7.84,1.82.36.09.81.15.9.58.09.44-.21.76-.55,1.04-3.21,2.68-5.94,5.79-8.62,8.96-5.3,6.29-10.28,12.84-15.76,18.99-1.45,1.62-3.28,2.8-4.89,4.23-1.97,1.74-4.16,3.19-6.49,4.37-3.41,1.73-6.94,3.15-10.81,3.81-2.58.44-5.12.37-7.64.27-3.75-.16-7.47-.76-11.09-1.87-2.12-.65-4.28-1.15-6.37-1.88-.8-.28-.57-.57-.13-.97.94-.88,1.99-1.61,3.05-2.34,5.4-3.72,11.1-6.98,16.65-10.46,4.76-2.98,9.76-5.48,14.91-7.72,2.7-1.17,5.3-2.54,7.93-3.86.93-.46,1.77-1.13,2.87-1.28.46-.06.81-.47.72-.99-.13-.67-.69-.35-1.02-.28-2.33.46-4.57,1.24-6.85,1.85-5.55,1.49-10.55,4.23-15.88,6.17-10.44,3.8-20.25,8.84-29.69,14.61-2.5,1.53-5.13,2.9-7.49,4.62-4.54,3.29-8.71,7.01-12.67,10.98-4.25,4.26-7.99,8.89-11.16,13.95-1.9,3.03-3.6,6.19-4.79,9.56-1.03,2.92-2.1,5.85-2.64,8.91-.33,1.85-.54,3.72-.79,5.59-.26,2.02-.72,4.04-.6,6.07.17,2.72.25,5.47,1.01,8.13.41,1.43.69,2.9,1.14,4.33,1.24,3.89,2.93,7.56,5.06,11.05,1.49,2.44,3.38,4.56,5.53,6.44,2.42,2.11,5.03,3.99,7.8,5.64,2.76,1.64,5.68,3.01,8.79,3.9,4.62,1.32,9.39,1.47,14.13,1.07,2.57-.22,5.11-.94,7.52-2,2.73-1.2,5.67-1.95,8.16-3.7,4.79-3.35,9.07-7.19,11.97-12.31,1.55-2.75,2.55-5.71,3.21-8.79.64-2.94,1.27-5.89.97-8.91-.27-2.69-.62-5.37-1.13-8.04-.91-4.79-2.68-9.16-5.52-13.11-1.44-2.01-3.29-3.64-5.13-5.3-3.11-2.82-6.68-4.8-10.44-6.6-2.23-1.07-4.57-1.55-6.9-2.1-3.06-.73-6.2-1-9.37-.69-7.39.72-14.22,2.89-20.17,7.39-1.32,1-2.32,2.36-3.7,3.3-.17.11-.27.36-.45.42-.24.07-.47.46-.71.2-.29-.32.16-.41.32-.6,1.01-1.23,1.45-2.77,2.36-4.05,1.75-2.47,3.41-5.02,5.26-7.42,1.35-1.74,2.81-3.42,4.43-4.95.86-.81,1.54-1.79,2.29-2.71.48-.59,1.22-1.12,1.89-1.62,1.48-1.1,2.61-2.56,4.02-3.72,2.23-1.82,4.32-3.88,7.27-4.63,1.52-.39,3.05-.28,4.55-.13,2.4.25,4.76.76,7.11,1.33,12.47,3.06,22.72,9.54,30.8,19.36,4.19,5.1,7.09,10.87,9.19,17.07,1.16,3.4,1.99,6.89,2.44,10.42.54,4.27.66,8.56-.09,12.87-.45,2.58-.79,5.18-1.56,7.69-1.22,3.98-2.7,7.86-4.81,11.47-.86,1.47-1.61,2.99-2.65,4.36-1.74,2.29-3.37,4.65-5.44,6.69-3.03,2.99-6.13,5.86-9.73,8.22-4.31,2.82-8.81,5.18-13.74,6.77-4.29,1.38-8.61,2.24-13.16,2.06-3.69-.14-7.41.15-11.09-.09-3.43-.22-6.76-1.09-10.06-2.15-5.07-1.62-9.76-3.98-14.13-6.91-6.54-4.39-11.69-10.13-15.76-16.81-2.52-4.14-3.93-7.66-4.57-9.37-.97-2.6-3.72-10.6-3.38-21.3.28-8.69,2.46-15.09,3.65-18.48Z" style="fill:#14c55e;"/></svg>