<?xml version="1.0" encoding="UTF-8"?><svg id="a" xmlns="http://www.w3.org/2000/svg" viewBox="0 0 256 256"><rect width="256" height="256" rx="60" ry="60" style="fill:#4a5572;"/><path d="m186.15,176.31c-4.7.08-9.41.17-14.11.24-1.57.02-3.15.06-4.72-.01-1.19-.06-1.64-.96-1.75-2.03-.06-.52-.01-1.06-.02-1.59-.08-6.44-.17-12.88-.23-19.32-.03-3.3-.02-6.61,0-9.91.05-8,.12-16.01.16-24.01,0-1.37-.16-2.75-.15-4.12.06-7.66.18-15.33.21-22.99.01-3.05-.21-6.1-.21-9.14,0-11.87.07-23.75.04-35.62,0-2.74-.4-5.48-.45-8.22-.03-1.59.15-3.2.49-4.75.1-.44,1.08-.95,1.67-.97,1.92-.05,3.84.18,5.76.17,2.44,0,4.89-.25,7.33-.18,2,.06,4,.44,6,.69v141.78Z" style="fill:#120653;"/><path d="m71.06,222.18c-.25-1-.54-1.99-.73-3.01-.2-1.05-.46-2.12-.46-3.17-.02-44.52-.02-89.03-.02-133.55,0-2.33.3-2.75,2.58-2.77,5.17-.05,10.33-.02,15.5.03,1.51.01,2.27.8,2.27,2.14,0,21.21,0,42.42,0,63.63,0,6.25,0,12.51,0,18.76,0,15.57.01,31.14-.01,46.72,0,2.48-.11,4.96-.25,7.43-.06.94-.38,1.86-.54,2.8-.05.32.05.67.08,1h-18.41Z" style="fill:#120653;"/><path d="m111.51,132.64c2.58,0,5.17-.02,7.75.01.79,0,1.61.03,2.35.27.85.27,1.31.99,1.31,1.94,0,1.88,0,3.77,0,5.65-.03,8.3-.07,16.6-.08,24.9,0,2.41.11,4.82.06,7.23-.06,2.64-.74,3.3-3.37,3.38-4.92.15-9.85.06-14.77.03-1.94-.01-3.04-.71-2.96-2.91.14-4.12,0-8.25.05-12.38.05-5.25.19-10.51.21-15.76.01-3.13-.15-6.26-.21-9.39,0-.47.12-.94.2-1.41.2-1.19.87-1.63,2.08-1.59,2.46.09,4.92.03,7.38.02Z" style="fill:#120653;"/><path d="m112.66,88c-2.42,0-4.85.08-7.26-.03-1.52-.06-3.14-.22-3.81-2.01-.17-.47-.25-1.01-.23-1.52.14-4.25.33-8.5.47-12.76.1-3.09.19-6.18.22-9.27.03-3.89.03-7.78-.03-11.67-.02-1.24-.34-2.47-.4-3.71-.07-1.4.63-2.15,2.03-2.21,2.64-.12,5.28-.21,7.93-.26,2.5-.04,5-.02,7.51.02.75.01,1.5.14,2.24.29,1.45.3,1.58,1.51,1.58,2.66,0,1.58-.21,3.15-.21,4.73,0,8.66.02,17.32.09,25.98.02,2.04.24,4.09.39,6.13.16,2.26-1.42,3.56-3.48,3.6-2.34.05-4.68.01-7.02.01Z" style="fill:#120653;"/><path d="m154.41,193.11c0,4.95-.06,9.89.02,14.84.05,2.76-1.25,3.38-3.35,3.41-4.88.08-9.77.07-14.65-.01-2-.03-2.83-.68-2.85-2.9-.01-1.51-.02-3.02,0-4.54.07-5.94.33-11.88.18-17.82-.09-3.53-.11-7.06-.17-10.59-.03-1.88-.04-3.77,0-5.66.02-1.36.89-2.08,2.65-2.11,1.15-.02,2.3.21,3.45.22,3.83.03,7.67-.01,11.5.01.74,0,1.48.19,2.22.32,1.09.2,1.27.97,1.27,1.95-.02,7.62-.01,15.24-.01,22.87-.08,0-.16,0-.24,0Z" style="fill:#120653;"/><path d="m152.45,80.07c1.46-.17,2.21.42,2.2,1.77-.08,6.93-.17,13.86-.24,20.79-.03,3.16-.11,6.31-.03,9.47.06,2.26.39,4.5.5,6.76.05,1.04-.12,2.09-.25,3.12-.02.19-.34.44-.55.48-1.08.24-2.16.55-3.25.59-4.74.15-9.49.21-14.23.3-1.97.04-3.05-1.03-3.02-3.04.08-7.26.21-14.52.23-21.77.01-4.68-.13-9.36-.23-14.05-.01-.6-.21-1.19-.23-1.79-.06-2.04.37-2.73,2.34-2.78,5.08-.14,10.16-.1,15.23-.12.18,0,.37.13.55.2.33.02.65.05.98.08Z" style="fill:#120653;"/><path d="m122.67,110.42c0,2.53,0,5.07,0,7.6,0,1.88-.91,2.85-2.77,2.83-1.76-.02-3.52-.22-5.29-.21-2.77.02-5.54.21-8.31.19-1.04,0-2.09-.35-3.1-.68-.85-.27-1.18-.96-1.14-1.91.13-3.42.24-6.83.27-10.25.01-1.62-.21-3.24-.24-4.86-.04-2.06.92-3.05,2.97-3.11,3.46-.1,6.91-.2,10.37-.23,1.56-.01,3.13.1,4.68.24,2.11.19,2.55.72,2.56,2.91,0,2.49,0,4.99,0,7.48Z" style="fill:#fec901;"/><path d="m154.09,136.72c-.06.52-.15.95-.16,1.38-.01,2.54-.04,5.08,0,7.61.03,2.07.15,4.14.23,6.21,0,.2.03.42,0,.61-.6,3.05-.39,2.93-3.13,2.93-3.83,0-7.67-.03-11.5,0-1.03,0-2.07.14-3.1.24-2.03.19-2.53-.38-2.58-2.63-.09-3.75,0-7.51.04-11.27.02-1.56.17-3.11.16-4.67-.01-1.47.95-1.78,2.03-1.79,4.66-.04,9.32-.08,13.98.03,1.41.03,2.97.06,4.03,1.33Z" style="fill:#e70388;"/><path d="m152.45,80.07c-.33-.03-.66-.05-.98-.08.33.03.66.05.98.08Z" style="fill:#e70388;"/></svg>