<?xml version="1.0" encoding="UTF-8"?><svg id="a" xmlns="http://www.w3.org/2000/svg" viewBox="0 0 256 256"><rect width="256" height="256" rx="60" ry="60" style="fill:#242938;"/><path d="m156.75,213.63c-1.21.02-2.43.05-3.64.07l-.28-.21s.01,0,.01,0c0-.1,0-.2,0-.3l.32-1.03c.07-.09.14-.18.2-.28.19-.6.38-1.2.57-1.81.07-.1.13-.2.2-.3.02-.16.05-.32.07-.49.06-.1.12-.2.19-.3.45-1.46.91-2.92,1.36-4.38.16-.35.31-.7.47-1.06.02-.17.03-.34.05-.5.16-.35.31-.7.47-1.06.03-1.31-1.23-.89-1.82-1.37-.1-.05-.2-.11-.29-.16-.16-.02-.32-.04-.48-.06-.09-.07-.18-.14-.28-.21-2-.49-3.98-1.17-6.01-1.41-1.51-.18-3.13.08-4.62.45-.55.14-.91,1.13-1.3,1.77-.72,1.15-1.46,2.3-2.09,3.5-1.51,2.89-2.95,5.82-4.42,8.73-.07.07-.15.14-.22.21-.37.07-.73.22-1.1.22-17.96,0-35.92-.02-53.89-.04-1.21,0-2.42-.02-3.63-.04-.26-.05-.51-.09-.77-.14.08-.95.15-1.9.23-2.86.17-.38.46-.76.49-1.15.14-1.72.24-3.44.28-5.17.05-1.98.09-3.97,0-5.94-.07-1.64-.32-3.27-.49-4.9-.08-.17-.16-.34-.24-.52-.09-.61-.18-1.22-.28-1.83-.08-.17-.17-.34-.25-.52-.35-.35-.71-.71-1.06-1.06-.09-.08-.17-.16-.26-.24-.8-.35-1.59-.73-2.4-1.05-.39-.15-.82-.17-1.24-.25-.54-.35-1.06-.73-1.62-1.05-3.19-1.78-6.34-3.69-8.61-6.57-2.02-2.56-3.82-5.34-5.39-8.2-.86-1.57-1.07-3.5-1.57-5.27-.08-.09-.15-.18-.23-.26-.09-.46-.25-.92-.26-1.39-.01-3.27.01-6.53.02-9.8.08-.17.16-.35.24-.52,0-.26.01-.52.02-.78.08-.17.16-.34.25-.52.67-2.01,1.25-4.07,2.03-6.04,1.88-4.75,4.77-8.88,8.11-12.71,1.59-1.45,3.21-2.87,4.72-4.4.32-.32.4-1.1.28-1.59-.16-.64-.58-1.25-.99-1.8-2.01-2.74-4.05-5.45-6.08-8.17-.36-.49-.71-.99-1.07-1.49l-.48-.25c-.61-.62-1.22-1.23-1.83-1.85-.51-.77-1.03-1.55-1.54-2.32-.18-.26-.37-.52-.55-.77-.07-.26-.15-.53-.22-.79l-.06-.51c-.1-.95-.19-1.9-.29-2.85.18-.18.36-.35.53-.53.02-.78.03-1.55.05-2.33.21-.59.43-1.17.61-1.77.42-1.4.82-2.81,1.22-4.22.09-.17.18-.34.26-.51.55-1.79,1.11-3.57,1.63-5.36.26-.9.43-1.82.65-2.73.09-.35.18-.71.28-1.06.17-.2.43-.38.51-.62.59-1.86,1.06-3.75,1.73-5.58.91-2.48,1.9-4.93,2.95-7.35,1.54-3.52,3.16-7.01,4.77-10.49.63-1.37,1.36-2.69,2.04-4.03h0c.52-.78,1.04-1.56,1.56-2.35,0,0,0,0,0,0,.18-.26.35-.52.53-.78.22-.21.48-.38.64-.62,2.56-3.67,5.72-6.77,9.24-9.52.26-.18.52-.35.79-.53,2.08-1.04,4.16-2.08,6.23-3.13l1.31-.5c.95-.19,1.9-.38,2.85-.56.43-.09.86-.18,1.29-.28.09,0,.18,0,.27.01.26-.07.53-.15.79-.22,2.51-.09,5.03-.19,7.54-.28h.78c.42.02.84.02,1.26.03.54.16,1.07.32,1.61.48.09,0,.18,0,.27-.01.43.09.86.18,1.29.27,2.15-.15,3.91.9,5.69,1.87.08.1.14.23.24.3,4.75,3.08,9.44,6.25,14.65,8.57,4.32,1.92,8.73,2.71,13.35,1.53,3.34-.85,6.65-1.79,9.94-2.84,2.34-.74,4.6-1.73,6.89-2.61,2.08-.17,4.15-.33,6.23-.5.32.82.89.82,1.57.47.26-.01.52-.02.78-.03,1.21.19,2.42.38,3.62.56.44.25.88.49,1.32.74.44.17.88.33,1.32.5l.51.29c.35.18.69.37,1.04.55.26.17.52.34.78.5,0,0,.01.01.01.01.26.17.51.34.77.52.44.35.89.7,1.33,1.04.34.26.67.53,1.01.79.61.61,1.21,1.22,1.82,1.82.18.24.36.49.54.73.44.53.88,1.07,1.32,1.6.17.25.34.49.51.74.53.79,1.06,1.59,1.59,2.38.25.43.5.85.75,1.28.18.35.36.71.54,1.06,1.63,3.82,3.26,7.65,4.89,11.47l.81,2.59c1.1,4.38,2.23,8.75,3.28,13.14,1.13,4.7,2.16,9.42,3.28,14.12.41,1.7.95,3.37,1.43,5.05.11,2.42.21,4.84.32,7.26-.08.26-.15.52-.23.79-.16,1.23-.18,2.5-.5,3.69-1.17,4.29-3.6,7.77-7.06,10.55-1.07.86-2.1,1.77-3.14,2.65-.8.5-1.65.93-2.4,1.5-2.32,1.77-4.61,3.58-6.9,5.39-.47.37-.77.77-.24,1.41.88,1.06,1.69,2.18,2.5,3.29,3.91,5.41,6.32,11.35,6.3,18.13,0,2.42.01,4.84.02,7.27-.03.43-.05.86-.08,1.28-.16.3-.36.58-.48.9-.9,2.33-1.71,4.69-2.69,6.99-.83,1.93-1.85,3.77-2.79,5.65h0c-.34.35-.67.71-1.01,1.06-.69.69-1.39,1.39-2.08,2.08-3.05,2.44-6.26,4.61-9.94,6.01-2.86,1.09-5.68,2.3-8.82,2.31-.35.08-.7.16-1.04.24-1.3-.23-1.87.34-2.16,1.63-.4,1.75-1.09,3.44-1.59,5.17-.52,1.81-.96,3.64-1.44,5.46,0,0-.07-.02-.07-.02-.16.4-.32.8-.48,1.2ZM82.62,56.31l-.1-.02c-.06.07-.12.14-.19.21-.26.3-.51.59-.77.89-.26.33-.53.67-.79,1-.61.86-1.22,1.72-1.84,2.58-.07.1-.14.2-.22.29l-.09-.03c-.15.27-.31.53-.46.8-1.23,1.96-2.51,3.88-3.67,5.89-1.45,2.52-2.79,5.1-4.18,7.65-.07.09-.14.19-.21.28-.26.6-.52,1.2-.78,1.8-.32.53-.51,1.23-.97,1.55-.92.63-.8,1.48-.81,2.35-.11.34-.21.68-.32,1.01-.07.09-.14.19-.21.28-.36.94-.73,1.89-1.09,2.83l-.2.29c-.2.59-.39,1.18-.59,1.77-.06.1-.13.2-.19.31-.2.59-.39,1.18-.59,1.78-.06.1-.13.2-.19.3-.78,2.28-1.56,4.55-2.34,6.83-.11.33-.22.66-.33.99.01.08,0,.17,0,.25l-.19.53c-.28,1.2-.56,2.4-.85,3.6-.07.1-.14.2-.2.3-.19.95-.39,1.91-.58,2.86-.06.18-.13.35-.19.53-.27,2.64.07,5.17,1.3,7.55l.21.27c.04.08.08.16.12.24.22.44.44.88.66,1.32,1.22,1.82,2.43,3.64,3.65,5.45.19.25.39.5.58.75,2.17,1.55,4.33,3.1,6.5,4.65.24.09.48.19.73.28.61.18,1.22.35,1.83.53l.51.24c1.03.03,2.06.03,3.09.1.79.06,1.17-.24,1.27-1.04.13-1.01.29-2.01.53-3,.41-1.63.9-3.24,1.35-4.86.18-.26.36-.52.54-.77.05-.19.11-.37.16-.56.09-.34.18-.68.28-1.02.02-.08.04-.16.06-.25.06-.09.13-.18.19-.27.03-.09.06-.18.09-.26.09-.17.18-.34.26-.51,1.31-2.09,2.62-4.18,3.93-6.26.07-.07.14-.13.21-.2l-.03-.11c.07-.07.14-.14.21-.2,1.21-1.3,2.37-2.64,3.63-3.88,1.29-1.26,1.25-1.16.3-2.59-.95-1.43-1.72-2.98-2.56-4.48-.16-.26-.32-.52-.48-.78-.1-.25-.21-.49-.31-.74-.06-.09-.12-.19-.18-.28l-.86-2.32c-.06-.09-.12-.19-.17-.28-.46-2-.91-4-1.37-6-.07-.17-.15-.35-.22-.52-.02-.35-.04-.69-.05-1.04-.07-.26-.14-.52-.21-.78,0-2.34,0-4.68,0-7.03l.23-.51c0-.35.02-.7.03-1.05.07-.17.15-.35.22-.52.01-.35.02-.7.03-1.04.09-.25.18-.51.27-.76.09-.44.17-.88.26-1.32.16-.27.31-.53.47-.8.01-.09,0-.17-.06-.24.11-.44.21-.87.32-1.31.07-.08.13-.17.2-.25.02-.17.05-.34.07-.51.07-.09.14-.18.21-.27.1-.34.21-.68.31-1.03.16-.27.31-.53.47-.8.19-.43.38-.86.57-1.29.07-.09.14-.17.21-.26.28-.54.55-1.08.83-1.62.06-.07.12-.13.18-.2.46-.61.92-1.22,1.38-1.83l.47-.78c1.95-2.55,4.46-4.45,7.08-6.24.26-.18.52-.35.78-.53,1.3-.62,2.6-1.24,3.9-1.86.24-.09.48-.18.72-.27,1.24-.67,2.5-.47,3.82-.23,2.49.45,4.95,1.05,7.07,2.45,1.76,1.16,3.36,2.56,5.03,3.85.18.25.36.5.55.74.17.2.34.4.5.6.18.23.35.47.53.7,1.06,1.91,2.12,3.82,3.18,5.73.07.09.13.18.2.28.02.21-.02.47.08.63,1.26,2.02,1.68,4.28,1.7,6.6.03,2.49-.06,4.98-.24,7.47-.12,1.63-.43,3.25-.78,4.85-.44,1.99-1.02,3.95-1.54,5.93-.07.09-.13.18-.2.27-.11.34-.22.69-.33,1.03-.07.09-.14.18-.2.27-.82,1.57-1.65,3.14-2.58,4.92,2.8.37,5.39.73,7.98,1.06,1.6.2,3.2.37,4.81.51,2.12.2,4.25.36,6.38.55.78.07,1.05-.25,1.08-1.04.14-3.21.36-6.42.55-9.63.07-.17.14-.35.21-.52.02-.78.03-1.56.05-2.34l.24-.51c.61-3.21,1.22-6.42,1.84-9.64.16-.35.31-.71.47-1.06.26-.77.53-1.54.79-2.3l.19-.27c.2-.28.39-.56.59-.84.07-.07.14-.13.21-.2l.06-.76c.24-.35.48-.71.72-1.06.19-.34.38-.69.58-1.03.26-.35.52-.7.79-1.04h0c.27-.34.53-.69.8-1.04.48-.46.95-.92,1.43-1.38.07.03.14.06.21.09-.06-.04-.13-.07-.19-.11,1.07-.86,2.14-1.72,3.22-2.58.61-.24,1.22-.48,1.82-.71.58-.42,1.16-.83,1.75-1.25v-.04c.72-.19,1.44-.38,2.16-.57.17-.07.35-.14.52-.21.09-.02.17-.03.26-.05.23-.14.47-.27.7-.41,1.73-.11,3.47-.26,5.2-.32.7-.02,1.42.17,2.12.26.1.07.2.14.29.21,3.96,1.06,7.3,3.06,9.59,6.52,1,1.5,1.8,3.14,2.69,4.71.16.26.31.53.47.79.09.42.18.85.27,1.27.16.44.31.88.47,1.32.09.49.22.97.28,1.46.13,1.07.23,2.14.34,3.22l.21.52c-.09,3.29-.18,6.59-.28,9.88l-.45.53c.07.34.13.69.2,1.03-.16.26-.31.52-.47.79.07.26.14.52.21.78-.16.26-.31.52-.47.79,0,.3.1.62.01.88-.32.93-.71,1.85-1.07,2.77-.27.33-.54.67-.82,1l-.19.21c.06.04.13.08.19.11-.07.34-.13.68-.2,1.01-.03.08-.05.16-.08.25-.06.18-.12.36-.17.53-2.26,4.54-5.46,8.31-9.41,11.45-.26.19-.51.38-.77.57-.22.25-.41.55-.68.74-.9.66-.94,1.33-.13,2.08.17.26.35.51.52.77.17.18.34.35.52.53.16.26.32.51.48.77,1.68,3.04,3.36,6.07,5.04,9.11.06.1.13.19.19.29.28,1.12.56,2.23.83,3.35.07.17.15.35.22.52.01.35.03.69.04,1.04.07.17.14.35.22.52-.09,1.74-.17,3.47-.26,5.2.09.25.17.49.26.74.69-.17,1.39-.34,2.08-.51.1-.07.19-.14.29-.21,1.14-.31,2.32-.52,3.4-.97,2.64-1.09,5.29-2.2,7.83-3.5,1.53-.78,3.06-1.75,4.27-2.95,4.23-4.17,6.13-9.26,5.5-15.23-.07-.17-.14-.35-.2-.52-.19-1.3-.39-2.6-.58-3.9l-.47-.79c-.02-.26-.04-.51-.07-.77-.22-.79-.41-1.59-.66-2.38-.14-.44-.38-.85-.57-1.27l-.06-.52c.02-.18.05-.35.07-.53-.11-.17-.21-.34-.32-.51-.07-.17-.14-.35-.21-.52-.54-2.77-1.08-5.55-1.62-8.32-.07-.17-.14-.35-.21-.52l-.58-3.38c-.06-.18-.13-.35-.19-.53-.02-.17-.04-.34-.06-.51-.07-.17-.14-.35-.21-.52-.54-2.34-1.07-4.68-1.61-7.02-.08-.17-.15-.34-.23-.52-.46-1.48-.92-2.95-1.38-4.43-.19-.87-.35-1.75-.59-2.61-.06-.22-.4-.36-.61-.53,0-.08-.02-.17-.06-.24-.07-.09-.14-.18-.21-.27-.19-.52-.38-1.03-.57-1.55-.07-.09-.14-.18-.21-.27-.45-.95-.91-1.9-1.36-2.84-.15-.26-.31-.53-.46-.79-.35-.52-.69-1.04-1.04-1.55-.37-1.03-.56-2.19-1.83-2.59-1.21-1.22-2.42-2.44-3.63-3.66-.26-.18-.52-.36-.78-.54-.37-.25-.74-.51-1.1-.76-.07-.07-.13-.13-.2-.2-.19-.11-.39-.22-.58-.32-.07-.07-.13-.13-.2-.2-.34-.2-.69-.39-1.03-.59-.27-.16-.53-.31-.8-.47l-.76-.32c-.35-1.07-1.38-.7-2.1-.98-.78-.28-1.56-.55-2.34-.83-.26-.08-.52-.15-.78-.23-.66-.12-1.33-.22-1.99-.37-2.48-.56-4.95-1.2-7.47-.17-2.14.88-4.28,1.76-6.42,2.64-.1.06-.19.12-.29.18-.08,0-.16,0-.23.05-.1.07-.19.14-.29.21-.34.1-.67.21-1.01.31-.1.07-.19.14-.29.21-.34.1-.67.21-1.01.31-.1.07-.19.14-.29.21-.34.1-.67.21-1.01.31-.1.07-.19.14-.29.21-.34.1-.67.21-1.01.31-.1.07-.19.14-.29.21-.34.1-.67.21-1.01.31-.1.07-.19.14-.29.21-2.16.54-4.32,1.08-6.47,1.62-.87,0-1.74,0-2.61,0-2.5.01-4.71-.91-6.83-2.13-.06-.07-.13-.13-.19-.2-.08-.04-.16-.06-.25-.07-.09-.06-.18-.13-.27-.19l-.59-.33c-.07-.06-.13-.13-.2-.19-.19-.11-.39-.22-.58-.33-.07-.09-.14-.17-.21-.26h0c-.26-.18-.52-.35-.78-.53-.35-.26-.69-.51-1.04-.77-.35-.26-.7-.52-1.05-.78h0c-.26-.18-.52-.36-.78-.53-.25-.17-.51-.34-.76-.52-.44-.41-.88-.83-1.33-1.24-.08-.02-.17-.05-.25-.07-.18-.06-.35-.12-.53-.18-.08-.04-.16-.06-.24-.07-.09-.06-.18-.13-.27-.19-.19-.11-.39-.21-.58-.32-.24-.18-.48-.36-.72-.53h0c-.44-.23-.88-.47-1.31-.71-.35-.19-.69-.39-1.04-.58-.26-.15-.52-.3-.78-.45l-.76-.34c-.09-.07-.18-.13-.27-.2-.08-.02-.17-.04-.25-.06-.09-.07-.18-.13-.27-.2-.09-.02-.17-.04-.26-.06-.09-.06-.18-.13-.27-.19-.09-.02-.17-.04-.26-.06l-.26-.21c-.26-.11-.51-.21-.77-.32-.53-.24-1.05-.48-1.58-.72-.34-.11-.68-.21-1.02-.32l-1.58-.72c-.95-.19-1.89-.39-2.84-.58-.09-.07-.19-.14-.28-.21-2.17-.11-4.35-.22-6.52-.33-.51.12-1.03.23-1.54.35-.09,0-.18,0-.27-.01-.17.07-.35.15-.52.22-2.33.5-4.55,1.25-6.51,2.65-.1.06-.2.13-.29.19-1.12.78-2.23,1.57-3.35,2.35-.9-.02-1.41.42-1.54,1.31-.96,1.03-1.93,2.06-2.89,3.09l-.22.29Zm12.21,91.88c-.01.08,0,.16.06.23-.03.17-.05.33-.08.5-.06.09-.13.19-.19.28-.02.17-.05.33-.07.5-.06.1-.13.19-.19.29-.02.16-.05.33-.07.49-.06.1-.13.19-.19.29l-1.63,4.92c-.06.09-.12.19-.17.28-.03.17-.05.34-.08.52-.07.09-.13.18-.2.27-.11.44-.21.87-.32,1.31-.02.09-.04.18-.06.26-1.27,2.79-2.53,5.58-3.8,8.37-.36.78-.9,1.53-1.05,2.35-.24,1.34-.93,1.69-2.13,1.44-.82-.32-1.06-.89-1.06-1.79.02-6.18-.03-12.36-.06-18.54-.07-3.72-.13-7.43-.21-11.15,0-.33-.17-.65-.26-.98.45-.63-.08-.79-.49-1.01-1.04-.72-2.07-1.44-3.11-2.16-.09-.07-.18-.14-.27-.21-.42-.09-.84-.18-1.27-.27-.09-.06-.18-.11-.28-.17-1.74-.01-3.47-.03-5.21-.04l-1.04.74c-1.65.71-3.3,1.43-4.95,2.14-.09.07-.18.13-.27.2-.23.1-.5.15-.68.31-1.3,1.17-2.68,2.26-3.83,3.56-1.22,1.38-2.2,2.96-3.29,4.45-.17.26-.34.53-.51.79-.27.51-.53,1.03-.8,1.54-.06.09-.12.18-.18.27-.03.17-.06.34-.08.51-.06.09-.13.18-.19.27-.02.16-.05.33-.07.49-.07.1-.13.2-.2.29-.11.33-.21.67-.32,1-.06.1-.12.2-.18.29-.36,1.83-.72,3.66-1.08,5.48-.08.26-.16.51-.25.77-.01,1.91-.02,3.81-.03,5.72.15.18.31.35.46.53-.06.78-.11,1.56-.17,2.34.08.17.15.35.23.52.27,1.13.55,2.26.82,3.38l.46,1.07c.11.34.22.67.33,1.01.09.16.18.33.27.49.12.35.2.73.37,1.06,1.3,2.47,2.99,4.7,5.25,6.32,2.8,2,5.78,3.74,8.69,5.59.24.1.48.2.72.3.77.27,1.54.55,2.31.82l.28.21c.16.02.32.04.49.05.1.07.2.14.29.21.37.05.74.11,1.1.16.24.12.48.23.72.35.26,0,.53.02.79.03.17.16.34.33.51.49.5-.07,1.04-.3,1.48-.18,2.32.65,4.53.07,6.73-.55,3.25-.92,5.81-2.88,7.94-5.46.08-.09.16-.18.24-.27.36-.1.72-.27,1.09-.28,1.34-.04,2.68-.1,4.02-.03,4.36.25,8.73.5,13.09.85,2.24.18,4.47.53,6.7.84,2.81.4,5.61.84,8.42,1.27.17.07.35.14.52.21.96.17,1.91.34,2.87.51.17.08.34.15.52.23.09,0,.18-.01.27-.02.26.09.51.18.77.27.97.16,1.93.32,2.9.49l.49.29.77.08c.18.07.35.13.53.2.14.1.33.17.41.31,1.47,2.59,3.34,4.84,5.65,6.73,2.13,1.74,4.43,3.16,7.19,3.69.09.07.19.14.28.21,1.7.29,3.39.78,5.1.81,2.81.06,5.63-.18,8.44-.29.17-.08.34-.16.51-.24,2-.51,4-1.02,5.99-1.54.09-.06.17-.12.26-.18,4.47-1.36,8.12-3.97,11.26-7.36,1.43-1.06,2.27-2.51,2.79-4.18.52-1.32,1.21-2.6,1.52-3.96.57-2.49,1.06-5.01,1.29-7.55.17-1.86.16-3.84-.28-5.64-.94-3.85-2.02-7.69-3.38-11.42-1.1-3-2.49-5.92-5.54-7.63-2.92-1.63-5.95-2.22-9.22-1.52-.27.16-.54.31-.81.47-.69.51-1.39,1.01-2.08,1.52-.17.22-.42.41-.49.65-.45,1.73-.85,3.46-1.27,5.19-.18,1.2-.37,2.4-.55,3.61-.42,1.58-.85,3.16-1.27,4.73-.34,1.45-.69,2.91-1.03,4.36-.2.79-.41,1.58-.61,2.37-.07.18-.13.35-.2.53-.42,1.63-.84,3.27-1.26,4.9-.41,1.49-.84,2.98-1.22,4.48-.2.8-.57,1.21-1.44.97-.5-.16-1-.32-1.49-.48l.15-2.54c-.17-.97-.34-1.94-.51-2.9-.06-.36-.13-.72-.19-1.08-.03-.43-.05-.86-.08-1.28v-1.55c-.64-1.24.48-2.72-.54-3.91,0-.35,0-.7.01-1.05-.18-2.38-.33-4.77-.54-7.15-.07-.75-.29-1.48-.44-2.22.06-.22.12-.43.19-.65-.51.08-1.02.16-1.53.24-.34.11-.68.22-1.02.33-.09-.02-.17,0-.24.04-.78.2-1.56.42-2.35.6-3.02.69-6.05,1.37-9.08,2.05-.09.07-.18.14-.28.21-.53.11-1.06.23-1.59.34-.08-.03-.15-.03-.23,0-.35,0-.7,0-1.05,0-.17.07-.35.14-.52.21-.39,0-.78.03-1.17,0-4.04-.34-8.07-.7-12.1-1.05-.17-.07-.35-.14-.52-.21-.6-.02-1.2-.04-1.8-.05-.09-.07-.19-.14-.28-.21-.32-.04-.63-.09-.95-.13l-.03-.03c-.37-.12-.74-.24-1.11-.36-.17-.02-.34-.05-.51-.07-.78-.08-1.57-.16-2.35-.24-.18-.07-.35-.14-.53-.21-.08-.02-.17-.04-.25-.06-.43-.08-.87-.16-1.3-.24-.26-.09-.52-.18-.78-.27-.17-.07-.35-.13-.52-.2-.35-.1-.69-.21-1.04-.31-.26-.07-.52-.14-.78-.21-.09-.02-.18-.04-.28-.05-.04-.07-.07-.14-.11-.21-.04.07-.08.14-.12.21l-2.35-.82c-.24-.1-.48-.19-.72-.29-.28-.15-.56-.3-.84-.46-.17-.07-.35-.14-.52-.2-1.3-.63-2.6-1.25-3.89-1.88-.44-.26-.87-.52-1.31-.78-.17-.09-.34-.17-.51-.26-.32-.32-.64-.65-.96-.97-.47-.19-.93-.39-1.4-.58-.34-.24-.69-.48-1.03-.72-.35-.21-.69-.43-1.04-.64-.08-.12-.16-.25-.23-.37-.09.15-.18.29-.28.44Zm66.35-35.42h0c-.26-.17-.52-.35-.78-.53-.54-.34-1.09-.69-1.63-1.03-.06-.07-.13-.13-.19-.2-.08-.04-.16-.06-.25-.06-.09-.06-.18-.13-.27-.19-.78-.48-1.57-.95-2.35-1.43-.1-.06-.2-.12-.3-.18-.07,0-.14,0-.2-.02-.09-.07-.18-.14-.27-.21-1.48-.71-2.95-1.42-4.43-2.14-.17-.07-.35-.13-.52-.2-.26-.11-.52-.21-.78-.32-.17-.07-.35-.13-.52-.2-1.04-.37-2.08-.73-3.12-1.1l-.52-.2c-.61-.19-1.22-.38-1.82-.57-.26-.07-.52-.14-.78-.21-1.21-.29-2.42-.57-3.64-.86-.18-.07-.35-.13-.53-.2-2.54-.37-5.1-.66-7.63-1.13-3.52-.66-7.04-.9-10.61-.67-.25,0-.5-.02-.75-.03-.26.07-.53.14-.79.21-.95.02-1.91.03-2.86.05-.43.07-.87.14-1.3.21-.52.02-1.04.04-1.56.05-.17.07-.35.14-.52.21-.95.1-1.91.21-2.86.31-.17.07-.35.14-.52.21-.26.02-.52.03-.78.05-.26.07-.53.13-.79.2-.52.11-1.04.21-1.55.32-.26.07-.53.13-.79.2-.08.02-.17.04-.25.06-.35.16-.69.32-1.04.47-1.21.37-2.43.73-3.64,1.1-.24.09-.48.17-.72.26-.54.26-1.08.53-1.62.79-.27.15-.53.3-.8.45-.08.02-.17.04-.25.07-.09.07-.18.13-.27.2-.52.28-1.03.55-1.55.83-.09.07-.19.14-.28.21-.86.55-1.72,1.09-2.58,1.64-1.07.14-1.87.59-2.08,1.75-.46.43-.91.86-1.37,1.3-.24.27-.48.53-.72.8-.87,1.29-1.75,2.57-2.62,3.86-.67.21-1.39.39-.85,1.36-.27,1.63-.6,3.25-.78,4.89-.15,1.39-.1,2.79-.14,4.19l.19.53c.28,1.3.56,2.6.83,3.9.1.17.19.33.29.5.17.44.34.88.51,1.32l.28.5c.05.19.05.43.16.58,1.13,1.56,2.28,3.1,3.42,4.65.26.26.51.52.77.79.74.68,1.48,1.35,2.21,2.04,3.25,3.07,7.04,5.28,11.13,7.02.24.09.48.18.72.28,2.24.8,4.49,1.59,6.73,2.39.1.07.19.14.29.21.26.03.52.06.78.09.44.15.87.31,1.31.46.52.11,1.04.21,1.56.32.09.12.17.25.26.37.09-.12.17-.25.26-.37,1.3.35,2.6.69,3.9,1.04.09.07.19.14.28.21,1.21.24,2.41.49,3.62.73.26.09.52.18.78.27.53-.07,1.07-.23,1.59-.21,3.31.14,6.62.32,9.94.47,1.02.05,2.05.06,3.07.03.58-.02,1.16-.19,1.74-.25,1.15-.12,2.3-.21,3.44-.31.18-.07.35-.13.53-.2.69-.1,1.38-.21,2.08-.31.26-.08.52-.15.78-.23.25-.03.51,0,.75-.08,2.44-.74,4.87-1.5,7.3-2.26.09-.07.19-.14.28-.22.69-.3,1.39-.59,2.08-.89.41-.17.83-.34,1.24-.51.45-.24.9-.49,1.36-.73.09-.08.18-.17.27-.25.06-.02.13-.03.19-.03.11-.06.21-.12.32-.18,2.34-1.69,4.69-3.38,7.03-5.06l.18-.19c.9-.87,1.8-1.74,2.7-2.61.08-.09.15-.19.23-.28.71-.91,1.41-1.81,2.11-2.72.87-1.13,1.57-2.3,1.28-3.83-.39-2.06-.74-4.12-1.1-6.19-.07-.09-.13-.18-.2-.27-.12-.34-.24-.68-.37-1.02-.23-.44-.45-.87-.68-1.31l-.6-1.3c-.15-.26-.29-.53-.44-.79l-.78-1.29c-.35-.51-.7-1.03-1.05-1.54-.34-.44-.68-.88-1.02-1.32-.27-.34-.54-.68-.8-1.02-1.21-1.22-2.42-2.44-3.63-3.66-.35-.27-.69-.53-1.04-.8-.37-.26-.73-.51-1.1-.77-.07-.09-.14-.18-.21-.26Zm-2.82,57.75c.04.21.07.42.11.64.07,0,.14,0,.21,0,.04-.21.08-.43.12-.64,0-.26,0-.51,0-.77.38-1.47.75-2.94,1.13-4.41.1-.25.19-.49.29-.74.08-.45.15-.9.23-1.34.09-.25.19-.5.28-.74.86-3.66,1.72-7.31,2.58-10.97l.47-.8c-.13-.04-.26-.08-.39-.12-.04.23-.09.45-.13.68-.08-.02-.17-.05-.25-.07-.04-.1-.08-.21-.12-.31-.05.1-.09.2-.14.3-1.68.78-3.38,1.52-5.02,2.38-.33.17-.61.78-.59,1.18.08,1.9.3,3.79.4,5.69.17,3.11.3,6.22.84,9.3,0,.25,0,.5,0,.75Zm-71.57-8.3c.07-.1.13-.2.2-.3.11-.33.22-.67.33-1,.07-.09.13-.19.2-.28.12-.27.23-.55.35-.82.06-.16.11-.32.17-.47.19-.51.38-1.03.58-1.54.07-.1.13-.2.2-.3.3-.7.59-1.4.89-2.11.05-.17.1-.34.15-.5.45-1.46.91-2.92,1.36-4.38.07-.09.14-.19.21-.28.03-.17.05-.34.08-.51l.17-.3c.28-.94.56-1.88.84-2.82.12-.09.25-.18.37-.27-.13-.09-.26-.17-.39-.26-1.92-1.74-3.83-3.49-5.75-5.23-.17-.25-.32-.5-.52-.72-.02-.02-.3.2-.47.31.16.15.31.3.47.45,0,6.87-.01,13.74,0,20.61,0,.32.17.63.26.95-.04.22-.09.45-.13.67.09,0,.18.02.27.03.03-.23.07-.46.1-.69,0-.08.01-.16.05-.24Zm50.25,42.16c.06-.09.13-.18.19-.27.07-.46.11-.92.21-1.37.8-3.55-.19-6.68-2.27-9.55-.18-.25-.36-.51-.54-.76-1.56-1.24-3.12-2.48-4.68-3.73l-.3-.18c-2.76-1.06-5.52-2.13-8.29-3.19-.17-.09-.33-.18-.5-.26-.34-.01-.68,0-1.01-.04-2.44-.31-4.88-.84-7.33-.9-3-.07-6.05-.41-9.02.63-1.8.63-3.71.97-5.57,1.45-.09.07-.18.14-.28.21-.08,0-.16.03-.24.06-.1.07-.19.13-.29.2-.25.11-.5.22-.75.33-.1.07-.19.13-.29.2-.74.46-1.54.84-2.19,1.39-1.52,1.3-2.85,2.77-3.24,4.85-.16.44-.31.88-.47,1.32-.14,2.48.07,4.89,1.03,7.23.39.94.6,1.89,1.76,2.15.27.16.55.33.82.49.6.27,1.2.53,1.8.8.09.07.18.15.28.22,2.08.88,4.12,1.83,6.24,2.6,1.23.45,2.57.64,3.87.91,2.38.5,4.75,1.31,7.14,1.39,3.76.12,7.57-.02,11.3-.51,3.02-.4,5.95-1.49,8.92-2.28l.26-.18c1.28-.51,2.86-.64,3.18-2.42.07-.1.13-.2.2-.29.02-.16.05-.33.07-.49Zm19.2-140.22c-.35.33-.69.66-1.04,1-.09.08-.18.17-.27.25-.32.18-.65.36-.97.54-.28.36-.55.71-.83,1.07-.63.67-2.04.64-1.84,2.05-.17.19-.34.37-.51.56-1.2-.06-1.03.78-1,1.53-.36.69-.73,1.39-1.09,2.08-.16.26-.32.52-.48.78-.54,1.21-1.07,2.41-1.61,3.62-.07.09-.13.18-.2.27-.02.16-.05.32-.07.49-.15.27-.3.55-.45.82-.03.08-.05.17-.08.25-.15.44-.3.87-.45,1.31-.1.43-.2.87-.3,1.3-.08.17-.15.35-.23.52l-.51,2.62c-.08.17-.17.34-.25.51-.12,1.39-.24,2.77-.36,4.16-.07.18-.13.35-.2.53,0,2.5.1,5.01-.07,7.5-.12,1.77.4,2.9,2.1,3.44.18.1.37.19.55.29,2.86,1.46,5.73,2.91,8.59,4.37l.71.46c2.45,1.24,4.91,2.47,7.36,3.71.24.15.47.3.71.46.37.13.74.26,1.11.38.09.12.18.25.27.37.09-.13.17-.25.26-.38.24-.18.48-.35.71-.54,2.11-1.66,4.22-3.31,6.33-4.97l.23-.29,2.09-2.63c.24-.33.49-.65.73-.98.04-.07.06-.15.06-.24l.52-.8c.43-.86.86-1.72,1.3-2.59.16-.35.31-.71.47-1.06.28-.95.55-1.89.83-2.84.06-.09.13-.18.19-.28.2-.78.39-1.55.59-2.33.07-.09.14-.18.21-.28,0-.09,0-.18,0-.27l.27-.78c.28-2.66.71-5.31.78-7.97.05-2.19-.33-4.4-.52-6.6l-.21-.52c-.1-.43-.2-.87-.31-1.3-.16-.35-.32-.7-.47-1.04-.09-.23-.17-.47-.28-.69-1.39-2.88-2.75-5.78-5.77-7.38-.06-.06-.13-.12-.19-.18-.26-.11-.52-.23-.77-.34-.09-.07-.18-.14-.27-.21-2.63-1.22-5.43-1.46-8.27-1.43-2.49.02-4.85.59-7.08,1.69Zm-66.37,4.88c-.42.87-.83,1.75-1.25,2.62-.27.61-.54,1.22-.81,1.83-.08.17-.16.34-.24.52-.85,3.9-.84,7.85-.24,11.74.99,6.41,3.58,12.12,8.55,16.49.51.45,1.53.7,2.2.54,3.36-.79,6.65-1.88,10.03-2.59,2.85-.6,5.76-.9,8.66-1.17,1.13-.11,2-.44,2.49-1.4,1.08-2.12,2.25-4.23,3.03-6.47,1.54-4.38,2.33-8.94,2.16-13.59-.09-2.41-.52-4.8-.79-7.2-.07-.09-.14-.18-.21-.28-.19-.78-.38-1.55-.58-2.33l-.2-.28c-.03-.17-.05-.34-.08-.5-.06-.09-.12-.18-.18-.27,0-.08-.02-.17-.05-.24-.07-.1-.13-.19-.2-.29-.11-.34-.21-.68-.32-1.01-.07-.09-.14-.18-.21-.27l-2.34-3.63c-.18-.17-.35-.35-.53-.52-.2-.26-.39-.52-.59-.77-.32-.26-.65-.53-.97-.79-.35-.26-.69-.52-1.04-.78-.09-.07-.17-.14-.26-.2-.51-.28-1.03-.56-1.54-.84-.09-.06-.19-.13-.28-.19-2.69-.87-5.38-1.75-8.07-2.62-.18.07-.35.14-.53.21-1.39.34-2.78.68-4.17,1.02-.24.11-.48.23-.71.34-1.15.76-2.3,1.51-3.45,2.27-.25.18-.5.37-.75.55-2,1.85-3.59,4-4.71,6.5-.26.44-.51.87-.77,1.31-.17.35-.34.7-.51,1.04-.16.35-.33.69-.49,1.04-.03.08-.05.16-.06.24Z"/><path d="m154.15,200.43c.16.02.32.04.48.06.1.05.2.11.29.16.59.48,1.85.06,1.82,1.37-.16.35-.31.7-.47,1.06-.02.17-.03.34-.05.5-.16.35-.31.7-.47,1.06-.45,1.46-.91,2.92-1.36,4.38-.06.1-.12.2-.19.3-.02.16-.05.32-.07.49-.07.1-.13.2-.2.3-.19.6-.38,1.2-.57,1.81-.07.09-.14.18-.2.28-.11.34-.21.68-.32,1.03-.08.09-.16.18-.24.28-.05.06-.09.12-.11.19-.16,0-.31-.01-.47-.02-5.35,0-10.7,0-16.05,0-.17.02-.34.03-.52.05-.01-.09-.03-.18-.04-.27,0-.05,0-.11,0-.17,1.47-2.91,2.92-5.84,4.42-8.73.63-1.2,1.37-2.35,2.09-3.5.4-.63.75-1.63,1.3-1.77,1.49-.37,3.11-.62,4.62-.45,2.03.24,4.01.92,6.01,1.41.09.07.18.14.28.21Z" style="fill:#fdfc52;"/><path d="m135.43,213.26c0,.06,0,.11,0,.17-.07.03-.14.04-.22.04.07-.07.15-.14.22-.21Z" style="fill:#f7f650;"/><path d="m157.23,212.43c0,.34-.01.67-.02,1.01,0,0-.02.09-.02.09-.14.04-.29.07-.43.11.16-.4.32-.8.48-1.2Z" style="fill:#030303;"/><path d="m152.6,213.48c.08-.09.16-.18.24-.28,0,.1,0,.2,0,.3-.08,0-.16-.02-.24-.02Z" style="fill:#030303;"/><path d="m152.83,213.5l.28.21c-.09-.07-.19-.14-.28-.21Z" style="fill:#030303;"/><path d="m135.98,213.65c5.35,0,10.7,0,16.05,0-5.35,0-10.7,0-16.05,0Z" style="fill:#f7f650;"/><path d="m191.02,77.12c.46,1.48.92,2.95,1.38,4.43.08.17.15.34.23.52.54,2.34,1.07,4.68,1.61,7.02.07.17.14.35.21.52.02.17.04.34.06.51.06.18.13.35.19.53l.58,3.38c.07.17.14.35.21.52.54,2.77,1.08,5.55,1.62,8.32.07.17.14.35.21.52.11.17.21.34.32.51l-.44.29.37.23.06.52c-.16,1.41.41,2.57,1.23,3.65.02.26.04.51.07.77l.47.79c.19,1.3.39,2.6.58,3.9.07.17.14.35.2.52.63,5.96-1.26,11.06-5.5,15.23-1.22,1.2-2.74,2.17-4.27,2.95-2.54,1.3-5.19,2.41-7.83,3.5-1.08.45-2.26.65-3.4.97l-.29.21c-.69.17-1.39.34-2.08.51l-.26-.74c.09-1.74.17-3.47.26-5.2-.07-.17-.14-.35-.22-.52-.01-.35-.03-.69-.04-1.04-.07-.17-.15-.35-.22-.52-.28-1.12-.56-2.23-.83-3.35-.06-.1-.13-.19-.19-.29-1.68-3.04-3.36-6.07-5.04-9.11-.16-.26-.32-.51-.48-.77-.17-.18-.34-.35-.52-.53-.17-.26-.35-.51-.52-.77-.81-.75-.77-1.42.13-2.08.26-.19.45-.49.68-.74.26-.19.51-.38.77-.57,3.95-3.15,7.15-6.92,9.41-11.45l.17-.53c.03-.08.05-.16.08-.25.34-.78.68-1.56,1.02-2.34.36-.92.75-1.84,1.07-2.77.09-.26,0-.59-.01-.88.56-.02,1.01-.11.47-.79-.07-.26-.14-.52-.21-.78.56-.02,1.01-.11.47-.79-.07-.34-.13-.69-.2-1.03l.45-.53c.09-3.29.18-6.59.28-9.88l-.21-.52c-.11-1.07-.21-2.15-.34-3.22-.06-.49-.18-.98-.28-1.46-.16-.44-.31-.88-.47-1.32-.09-.42-.18-.85-.27-1.27-.16-.26-.31-.53-.47-.79-.89-1.57-1.69-3.21-2.69-4.71-2.3-3.46-5.64-5.46-9.59-6.52-.1-.07-.2-.14-.29-.21-.71-.09-1.42-.29-2.12-.26-1.74.05-3.47.2-5.2.32-.23.14-.47.27-.7.41l-.26.05c-.17.07-.35.14-.52.21-.72.19-1.44.38-2.16.58-.05.05-.11.1-.16.15l.16-.11c-.58.42-1.16.83-1.75,1.25-.16-.13-.42-.41-.46-.38-.47.34-.91.72-1.36,1.09-1.07.86-2.14,1.72-3.22,2.58l-.02.02c-.48.46-.95.92-1.43,1.38-.27.35-.53.7-.8,1.04,0,0,0,0,0,0-.26.35-.52.7-.79,1.04-.19.34-.38.69-.58,1.03-.24.35-.48.71-.72,1.06-.02.25-.04.51-.06.76-.07.07-.14.13-.21.2-.2.28-.39.56-.59.84l-.19.27c-.26.77-.53,1.54-.79,2.3-.16.35-.31.71-.47,1.06-.61,3.21-1.22,6.42-1.84,9.64-.08.17-.16.34-.24.51-.02.78-.03,1.56-.05,2.34-.07.17-.14.35-.21.52-.19,3.21-.41,6.42-.55,9.63-.04.8-.31,1.11-1.08,1.04-2.13-.19-4.25-.35-6.38-.55-1.6-.15-3.21-.31-4.81-.51-2.59-.32-5.18-.68-7.98-1.06.94-1.78,1.76-3.35,2.58-4.92.07-.09.14-.18.2-.27.11-.34.22-.69.33-1.03.07-.09.13-.18.2-.27.52-1.98,1.1-3.94,1.54-5.93.35-1.6.66-3.22.78-4.85.18-2.48.27-4.98.24-7.47-.03-2.31-.44-4.57-1.7-6.6-.1-.16-.06-.42-.08-.63-.07-.09-.13-.18-.2-.28-1.06-1.91-2.12-3.82-3.18-5.73-.18-.23-.35-.47-.53-.7-.17-.2-.34-.4-.5-.6-.18-.25-.36-.5-.55-.74-1.67-1.29-3.27-2.7-5.03-3.85-2.13-1.4-4.58-1.99-7.07-2.45-1.32-.24-2.58-.43-3.82.23-.24.09-.48.18-.72.27-1.3.62-2.6,1.24-3.9,1.86-.26.18-.52.35-.78.53-2.62,1.79-5.13,3.69-7.08,6.24l-.47.78c-.46.61-.92,1.22-1.38,1.83-.06.07-.12.13-.18.2-.28.54-.55,1.08-.83,1.62-.07.09-.14.17-.21.26-.19.43-.38.86-.57,1.29-.16.27-.31.53-.47.8-.1.34-.21.68-.31,1.03-.07.09-.14.18-.21.27-.02.17-.05.34-.07.51-.07.08-.13.17-.2.25-.11.44-.21.87-.32,1.31-.06.1-.12.21-.18.31-.08.24-.16.48-.24.73-.09.44-.17.88-.26,1.32-.09.25-.18.51-.27.76-.01.35-.02.7-.03,1.04-.07.17-.15.35-.22.52,0,.35-.02.7-.03,1.05-.08.17-.15.34-.23.51,0,2.34,0,4.68,0,7.03.07.26.14.52.21.78.02.35.04.69.05,1.04.07.17.15.35.22.52.46,2,.91,4,1.37,6,.06.09.12.19.17.28.29.77.57,1.55.86,2.32.06.09.12.19.18.28.1.25.21.49.31.74.16.26.32.52.48.78.85,1.5,1.61,3.05,2.56,4.48.95,1.43.99,1.33-.3,2.59-1.26,1.24-2.42,2.58-3.63,3.88-.07.07-.14.14-.21.2,0,0,.03.11.03.11-.07.07-.14.13-.21.2-1.31,2.09-2.62,4.18-3.93,6.26-.09.17-.18.34-.26.51-.03.09-.06.18-.09.26-.06.09-.13.18-.19.27-.02.08-.04.16-.06.25-.09.34-.18.68-.28,1.02-.05.19-.11.37-.16.56-.18.26-.36.52-.54.77-.45,1.62-.94,3.23-1.35,4.86-.25.98-.4,1.99-.53,3-.1.8-.48,1.1-1.27,1.04-1.03-.07-2.06-.07-3.09-.1l-.51-.24c-.61-.18-1.22-.35-1.83-.53-.24-.09-.48-.19-.73-.28-2.17-1.55-4.33-3.1-6.5-4.65-.19-.25-.39-.5-.58-.75-1.22-1.82-2.43-3.64-3.65-5.45-.22-.44-.44-.88-.66-1.32-.04-.08-.08-.16-.12-.24-.07-.09-.14-.18-.21-.27-1.24-2.38-1.57-4.91-1.3-7.55.06-.18.13-.35.19-.53.19-.95.39-1.91.58-2.86.07-.1.14-.2.2-.3.28-1.2.56-2.4.85-3.6.06-.18.13-.35.19-.53.02-.08.02-.17,0-.25.11-.33.22-.66.33-.99.78-2.28,1.56-4.55,2.34-6.83.06-.1.13-.2.19-.3.2-.59.39-1.18.59-1.78.06-.1.13-.2.19-.31.2-.59.39-1.18.59-1.77.07-.1.13-.19.2-.29.36-.94.73-1.89,1.09-2.83.07-.09.14-.19.21-.28.11-.34.21-.68.32-1.01.51-.89,1.06-1.76,1.53-2.68.18-.36.18-.81.26-1.22.26-.6.52-1.2.78-1.8.07-.09.14-.19.21-.28,1.39-2.55,2.73-5.13,4.18-7.65,1.15-2,2.44-3.93,3.67-5.89.15-.27.31-.53.46-.8l.09.03c.07-.1.14-.2.22-.29.61-.86,1.22-1.72,1.84-2.58.26-.33.53-.67.79-1l.77-.89c.06-.07.12-.14.19-.21,0,0,.1.02.1.02.07-.1.15-.19.22-.29.96-1.03,1.93-2.06,2.89-3.09.51-.44,1.03-.87,1.54-1.31,1.12-.78,2.23-1.57,3.35-2.35.1-.06.2-.13.29-.19,1.96-1.41,4.18-2.16,6.51-2.65.17-.07.35-.15.52-.22.09,0,.18,0,.27.01.58.17,1.22.63,1.54-.35,2.17.11,4.35.22,6.52.33.09.07.19.14.28.21.95.19,1.89.39,2.84.58.53.24,1.05.48,1.58.72.34.11.68.21,1.02.32.53.24,1.05.48,1.58.72.26.11.51.21.77.32.09.07.18.14.26.21.09.02.17.04.26.06.09.06.18.13.27.19.09.02.17.04.26.06l.27.2c.08.02.17.04.25.06.09.07.18.13.27.2.25.11.51.23.76.34.26.15.52.3.78.45.35.19.69.39,1.04.58.44.24.88.48,1.31.71h0c.24.17.48.35.72.53.19.11.39.21.58.32.09.06.18.13.27.19.09,0,.17.03.24.07.18.06.35.12.53.18.08.02.17.05.25.07-.04.93.61,1.12,1.33,1.24.25.17.51.34.76.52.26.18.52.36.78.53h0c.35.26.7.52,1.05.78.35.26.69.51,1.04.77l.78.53h0c.07.09.14.17.21.26.19.11.39.22.58.33.07.06.13.13.2.19.2.11.39.22.59.33.09.06.18.13.27.19.09,0,.17.03.25.07.06.07.13.13.19.2,2.12,1.22,4.33,2.15,6.83,2.13.87.75,1.74.75,2.61,0,2.16-.54,4.32-1.08,6.47-1.62.1-.07.19-.14.29-.21.34-.1.67-.21,1.01-.31l.29-.21c.34-.1.67-.21,1.01-.31.1-.07.19-.14.29-.21.34-.1.67-.21,1.01-.31.1-.07.19-.14.29-.21.34-.1.67-.21,1.01-.31.1-.07.19-.14.29-.21.34-.1.67-.21,1.01-.31.1-.07.19-.14.29-.21.07-.04.15-.05.23-.05.1-.06.19-.12.29-.18,2.14-.88,4.28-1.76,6.42-2.64,2.52-1.04,4.99-.39,7.47.17.66.15,1.32.25,1.99.37.26.08.52.15.78.23.78.28,1.56.55,2.34.83.7.33,1.4.65,2.1.98l.76.32c.27.16.53.31.8.47.34.2.69.39,1.03.59.07.07.13.13.2.2.19.11.39.22.58.32.07.07.13.13.2.2.37.25.74.51,1.1.76.26.18.52.36.78.54,1.21,1.22,2.42,2.44,3.63,3.66.61.86,1.22,1.73,1.83,2.59.35.52.69,1.04,1.04,1.55.15.26.31.53.46.79.45.95.91,1.9,1.36,2.84.07.09.14.18.21.27.19.52.38,1.03.57,1.55.07.09.14.18.21.27.03.08.05.16.06.24.4,1.05.8,2.1,1.2,3.14Z" style="fill:#fefd52;"/><path d="m172.53,126.83c.12.34.24.68.37,1.02.07.09.13.18.2.27.37,2.06.72,4.13,1.1,6.19.29,1.53-.41,2.7-1.28,3.83-.7.91-1.41,1.81-2.11,2.72-.08.09-.15.19-.23.28-.9.87-1.8,1.74-2.7,2.61-.06.06-.12.13-.18.19-2.34,1.69-4.69,3.38-7.03,5.06-.11.06-.21.12-.32.18-.06,0-.13,0-.19.03-.09.08-.18.17-.27.25-.45.24-.9.49-1.36.73-.42.17-.83.34-1.24.51-.69.3-1.39.59-2.08.89-.09.07-.19.14-.28.22-2.43.75-4.87,1.51-7.3,2.26-.24.07-.5.06-.75.08-.26.08-.52.15-.78.23-.69.1-1.38.21-2.08.31-.18.07-.35.13-.53.2-1.15.1-2.3.19-3.44.31-.58.06-1.16.23-1.74.25-1.02.03-2.05.02-3.07-.03-3.31-.15-6.62-.34-9.94-.47-.53-.02-1.06.13-1.59.21-.11-.23-.22-.46-.32-.69-.15.14-.31.28-.46.42-1.21-.24-2.41-.49-3.62-.73-.09-.07-.19-.14-.28-.21-1.3-.35-2.6-.69-3.9-1.04-.17,0-.35,0-.52,0-.52-.11-1.04-.21-1.56-.32-.44-.15-.87-.31-1.31-.46-.26-.03-.52-.06-.78-.09-.1-.07-.19-.14-.29-.21-2.24-.8-4.49-1.59-6.73-2.39-.24-.09-.48-.18-.72-.28-4.09-1.74-7.88-3.95-11.13-7.02-.73-.69-1.47-1.36-2.21-2.04-.26-.26-.51-.52-.77-.79-1.14-1.55-2.29-3.09-3.42-4.65-.11-.15-.11-.38-.16-.58l-.28-.5c-.17-.44-.34-.88-.51-1.32-.1-.17-.19-.33-.29-.5-.28-1.3-.56-2.6-.83-3.9l-.19-.53c.04-1.4,0-2.8.14-4.19.17-1.64.51-3.26.78-4.89.28-.45.56-.91.85-1.36.87-1.29,1.75-2.57,2.62-3.86.24-.27.48-.53.72-.8.46-.43.91-.86,1.37-1.3.69-.58,1.39-1.17,2.08-1.75.86-.55,1.72-1.09,2.58-1.64.09-.07.19-.14.28-.21.52-.28,1.03-.55,1.55-.83.09-.07.18-.13.27-.2.08-.03.16-.05.25-.07.27-.15.53-.3.8-.45.54-.26,1.08-.53,1.62-.79.24-.09.48-.17.72-.26,1.21-.37,2.43-.73,3.64-1.1.35-.16.69-.32,1.04-.47.08-.02.17-.04.25-.06.26-.07.53-.13.79-.2.52-.11,1.04-.21,1.55-.32.26-.07.53-.13.79-.2.26-.02.52-.03.78-.05.17-.07.35-.14.52-.21.95-.1,1.91-.21,2.86-.31.17-.07.35-.14.52-.21.52-.02,1.04-.04,1.56-.05.43-.07.87-.14,1.3-.21.95-.02,1.91-.03,2.86-.05.27,0,.53.01.8.02.25-.07.49-.14.74-.21,3.56-.23,7.09,0,10.61.67,2.53.47,5.09.76,7.63,1.13.18.07.35.13.53.2,1.21.29,2.42.57,3.64.86.26.07.52.14.78.21.61.19,1.22.38,1.82.57l.52.2c1.04.37,2.08.73,3.12,1.1.17.07.35.13.52.2.26.11.52.21.78.32.17.07.35.13.52.2,1.48.71,2.95,1.42,4.43,2.14.09.07.18.14.27.21.07.02.13.02.2.02.1.06.2.12.3.18.78.48,1.57.95,2.35,1.43.09.06.18.13.27.19.09,0,.17.02.25.06.06.07.13.13.19.2.54.34,1.09.69,1.63,1.03l.78.53h0c.07.09.14.17.21.26.37.26.73.51,1.1.77.35.27.69.53,1.04.8,1.21,1.22,2.42,2.44,3.63,3.66.27.34.54.68.8,1.02.34.44.68.88,1.02,1.32.35.51.7,1.03,1.05,1.54l.78,1.29c.15.26.29.53.44.79l.6,1.3c.23.44.45.87.68,1.31Zm-56.76,1.35c.15-.88.3-1.77.44-2.65.14-.12.29-.24.43-.36-.17-.14-.33-.28-.5-.42-.86-.61-1.73-1.22-2.59-1.83-.24-.1-.48-.21-.73-.31-.37-.17-.73-.34-1.1-.51l-.52-.22c-2.47-.65-4.96-1.11-7.55-.46,2.21.87,4.44,1.69,6.73,2.23,1.53.36,2.37,1.05,2.67,2.59.26,1.31.5,2.69,1.8,3.5l.51.42c.02-.24.05-.48.07-.72,0-.09,0-.18-.01-.26.12-.33.23-.66.35-.99Zm33.15-1.86c-2.16-.02-4.32-.05-6.47-.07-.09-.12-.18-.24-.26-.37-.09.12-.17.25-.26.37-.35.02-.69.03-1.04.05-.13-.03-.26-.05-.39-.08.13.12.26.23.38.35.67.35,1.3.85,2.02,1.01,2.58.6,5.18,1.08,7.32,1.51.99,1.89,1.81,3.47,2.64,5.05.19.13.38.26.56.39,0-.21.02-.42.02-.62.43-1.49.86-2.98,1.29-4.47.15-.12.29-.24.44-.36-.17-.14-.34-.27-.51-.41-1.64-.63-3.28-1.25-4.92-1.88-.27-.15-.54-.31-.81-.46Zm-46.37-5.16s.01-.06.02-.1c-.04,0-.09.02-.13.03.01.03.02.07.04.09.01.01.05,0,.08-.01Z" style="fill:#fefd52;"/><path d="m131.52,184.85c-.96-.17-1.91-.34-2.87-.51-.17-.07-.35-.14-.52-.21-2.81-.43-5.61-.87-8.42-1.27-2.23-.32-4.46-.66-6.7-.84-4.36-.35-8.72-.6-13.09-.85-1.34-.08-2.68-.01-4.02.03-.37.01-.73.18-1.09.28-.08.09-.16.18-.24.27-2.12,2.58-4.69,4.54-7.94,5.46-2.19.62-4.4,1.2-6.73.55-.44-.12-.99.11-1.48.18-.17-.16-.34-.33-.51-.49-.26,0-.53-.02-.79-.03-.24-.12-.48-.23-.72-.35-.37-.05-.74-.11-1.1-.16-.1-.07-.2-.14-.29-.21-.16-.02-.32-.04-.49-.05-.09-.07-.19-.14-.28-.21-.77-.27-1.54-.55-2.31-.82l-.72-.3c-2.9-1.85-5.89-3.59-8.69-5.59-2.26-1.62-3.95-3.84-5.25-6.32-.17-.33-.25-.7-.37-1.06-.09-.16-.18-.33-.27-.49-.11-.34-.22-.67-.33-1.01-.15-.36-.31-.71-.46-1.07-.27-1.13-.55-2.26-.82-3.38-.08-.17-.15-.35-.23-.52.06-.78.11-1.56.17-2.34-.15-.18-.31-.35-.46-.53.01-1.91.02-3.81.03-5.72.08-.26.16-.51.25-.77.36-1.83.72-3.66,1.08-5.48.06-.1.12-.2.18-.29.11-.33.21-.67.32-1,.07-.1.13-.2.2-.29.02-.16.05-.33.07-.49.06-.09.13-.18.19-.27.03-.17.06-.34.08-.51.06-.09.12-.18.18-.27.27-.51.53-1.03.8-1.54.17-.26.34-.53.51-.79,1.09-1.49,2.07-3.08,3.29-4.45,1.15-1.3,2.53-2.4,3.83-3.56.18-.16.45-.21.68-.31.09-.07.18-.13.27-.2,1.65-.71,3.3-1.43,4.95-2.14.53.01,1.1.09,1.04-.74,1.74.01,3.47.03,5.21.04.09.06.18.11.28.17.42.09.84.18,1.27.27.09.07.18.14.27.21,1.04.72,2.07,1.44,3.11,2.16.16.34.32.67.49,1.01.09.33.25.65.26.98.08,3.72.15,7.43.21,11.15-1.53-.07-3.06-.14-4.59-.21-.09-.12-.17-.25-.26-.37-.09.12-.18.24-.26.36-.08.61-.19,1.23-.24,1.84-.1,1.23-.17,2.46-.25,3.69-.09.17-.19.34-.28.51-.02.17-.05.34-.07.51-.48.06-.97.11-1.45.17-.45.02-.9.03-1.35.05l-1.02-.27c-.54.1-1.12.37-1.61.25-1.45-.35-1.43-.41-1.3,1.08.01.13,0,.26-.02.38-.24,1.33-.49,2.66-.73,4-.09.5-.19,1-.26,1.51-.11.83.25,1.15,1.1,1.18,1.72.04,3.43.18,5.14.28.24.16.49.32.73.48,0,.17,0,.35,0,.52-.07.17-.14.35-.21.52-.09,1.07-.17,2.14-.27,3.2-.06.64-.18,1.26-.26,1.9-.11.84.29,1.11,1.12,1.16,1.62.1,3.23.29,4.85.49,2.1.26,2.57-.13,2.62-2.27,0-.22,0-.43,0-.65,1.2.25,1.9-.1,2.13-1.44.15-.82.68-1.57,1.05-2.35,1.46.06,2.91.12,4.37.19.21.05.43.1.64.16-.05-.14-.1-.27-.14-.41.03-.43.06-.86.08-1.28.1-.33.19-.67.29-1,0-.53-.02-1.06-.03-1.6.07-.17.15-.34.22-.52.01-.7.02-1.39.04-2.09.07-.17.15-.35.22-.52,0-.34-.01-.67-.02-1.01l-.51-.29c-.35-.02-.7-.03-1.05-.05-.09-.07-.17-.14-.26-.21.11-.44.21-.87.32-1.31.07-.09.13-.18.2-.27.03-.17.05-.34.08-.52.06-.09.12-.19.17-.28l1.63-4.92c.06-.1.13-.19.19-.29.02-.16.05-.33.07-.49.06-.1.13-.19.19-.29.02-.17.05-.33.07-.5.06-.09.13-.19.19-.28.03-.17.05-.33.08-.5.06-.07.13-.14.19-.21.09-.03.18-.06.26-.09.35.21.69.43,1.04.64.34.24.69.48,1.03.72.47.19.93.39,1.4.58-.16.8.29,1,.96.97.17.09.34.17.51.26l1.31.78c1.3.63,2.6,1.25,3.89,1.88.17.07.35.14.52.2.28.15.56.3.84.46.24.1.48.19.72.29.78.27,1.57.55,2.35.82.08,0,.16,0,.23,0,.09.02.18.04.28.05.26.07.52.14.78.21.35.1.69.21,1.04.31.17.07.35.13.52.2.26.09.52.18.78.27.43.08.87.16,1.3.24.08.02.17.04.25.06.18.07.35.14.53.21.78.08,1.57.16,2.35.24.09.15.18.3.28.44.08-.12.16-.25.24-.37.37.12.74.24,1.11.36-.03.07-.06.14-.09.21.04-.06.08-.12.12-.18.32.04.63.09.95.13.09.07.19.14.28.21.6.02,1.2.04,1.8.05.17.07.35.14.52.21,4.03.35,8.07.7,12.1,1.05.39.03.78,0,1.17,0,.17-.07.35-.14.52-.21.35,0,.7,0,1.05,0,.07.07.14.14.21.21-.19.79-.23,1.66-.59,2.36-1.56,3.06-1.79,6.44-2.17,9.73-.34,2.94.02,5.85,1.35,8.69,1.21,2.59,2.71,4.9,4.56,6.99,2.53,2.85,5.55,5.09,9.05,6.59,1.77.76,3.63,1.63,5.49,1.74,3.44.22,6.94.19,10.35-.25,3.75-.49,7.23-2.05,10.21-4.44,2.8-2.25,5.33-4.79,7.07-8,.07-.08.13-.15.2-.23,1.85-3.42,2.9-7.05,2.91-10.95v-1.55c-.16-1.73-.34-3.46-.51-5.19-.07-.09-.14-.18-.21-.27-.05-.29-.09-.59-.17-.88-.82-3.05-2.36-5.74-4.32-8.18-3.08-3.83-6.83-6.81-11.44-8.62,0-.18,0-.36,0-.54,3.27-.7,6.3-.11,9.22,1.52,3.05,1.71,4.44,4.63,5.54,7.63,1.36,3.72,2.45,7.56,3.38,11.42.44,1.8.45,3.78.28,5.64-.23,2.54-.73,5.06-1.29,7.55-.31,1.37-1,2.64-1.52,3.96-.93,1.39-1.86,2.79-2.79,4.18-3.14,3.39-6.79,6-11.26,7.36-.09.06-.17.12-.26.18-2,.51-4,1.02-5.99,1.54-.17.08-.34.16-.51.24-2.81.11-5.63.35-8.44.29-1.7-.03-3.4-.53-5.1-.81-.09-.07-.19-.14-.28-.21-2.76-.52-5.06-1.94-7.19-3.69-2.31-1.89-4.18-4.13-5.65-6.73-.08-.14-.27-.2-.41-.31-.18-.07-.35-.13-.53-.2l-.77-.08-.49-.29c-.97-.16-1.93-.32-2.9-.49-.26-.09-.51-.18-.77-.27-.09,0-.18.01-.27.02-.17-.08-.34-.15-.52-.23Zm-19.27-15.03c.96-.71,1.91-1.42,2.87-2.13l.42-.23-.34-.29c-.75-.78-1.45-1.62-2.28-2.3-.4-.32-1.19-.61-1.58-.43-2.95,1.37-6.01,2.6-8.47,4.83-.24.22-.4.88-.25,1.12.6.98,1.35,1.86,2.01,2.81.56.79,1.16.85,1.95.32,1.79-1.19,3.62-2.33,5.43-3.49l.25-.21Zm16.41.49c.18-.18.36-.36.53-.54.26-.17.51-.34.77-.5,0-.23.12-.55,0-.67-.85-.92-1.69-1.88-2.66-2.67-.31-.25-.99-.05-1.5-.06-.09.07-.18.14-.27.21-3.33,1.33-5.97,3.65-8.92,6.15,1.32,1.16,2.54,2.2,3.72,3.28.64.59,1.13.46,1.75-.06,1.47-1.24,3-2.41,4.5-3.6.26-.17.52-.34.77-.5.18-.18.35-.36.53-.53l.77-.5Z" style="fill:#b3b3b3;"/><path d="m87.81,73.48c.27-.61.54-1.22.81-1.83.42-.87.83-1.75,1.25-2.62,0-.08.02-.16.06-.24.16-.35.33-.69.49-1.04.17-.35.34-.7.51-1.04.26-.44.51-.87.77-1.31,1.12-2.49,2.7-4.65,4.71-6.5.25-.18.5-.37.75-.55,1.15-.76,2.3-1.51,3.45-2.27.24-.11.48-.23.71-.34,1.39-.34,2.78-.68,4.17-1.02.18-.07.35-.14.53-.21,2.69.87,5.38,1.75,8.07,2.62.09.06.19.13.28.19.51.28,1.03.56,1.54.84.09.07.17.14.26.2.35.26.69.52,1.04.78.32.26.65.53.97.79.2.26.39.52.59.77.18.17.35.35.53.52l2.34,3.63c.07.09.14.18.21.27.11.34.21.68.32,1.01.07.1.13.19.2.29.03.08.05.16.05.24.06.09.12.18.18.27.03.17.05.34.08.5.07.09.14.19.2.28.19.78.38,1.55.58,2.33l.21.28c.27,2.4.7,4.8.79,7.2.17,4.65-.62,9.21-2.16,13.59-.79,2.24-1.95,4.34-3.03,6.47-.49.96-1.36,1.29-2.49,1.4-2.9.27-5.82.57-8.66,1.17-3.37.71-6.67,1.8-10.03,2.59-.67.16-1.69-.09-2.2-.54-4.98-4.37-7.57-10.08-8.55-16.49-.6-3.89-.6-7.84.24-11.74.08-.17.16-.34.24-.52Zm24.38,12.99c-2.58-.42-5.12,2.78-5.13,5.67,0,2.76,1.94,4.98,4.22,5.02,3.57.06,6.11-2.79,6.17-5.64.06-2.87-2.49-5.12-5.26-5.05Z" style="fill:#fff;"/><path d="m143.7,89.87c.12-1.39.24-2.77.36-4.16.08-.17.17-.34.25-.51.17-.87.34-1.74.51-2.62.08-.17.15-.35.23-.52.1-.43.2-.87.3-1.3.15-.44.3-.87.45-1.31l.08-.25c.15-.27.3-.55.45-.82.02-.16.05-.32.07-.49l.2-.27c.54-1.21,1.07-2.41,1.61-3.62.16-.26.32-.52.48-.78.36-.69.73-1.39,1.09-2.08.33-.51.67-1.02,1-1.53.17-.19.34-.37.51-.56.61-.68,1.22-1.36,1.84-2.05.28-.36.55-.71.83-1.07.32-.18.65-.36.97-.54.09-.08.18-.17.27-.25.73.07,1.08-.26,1.04-1,2.23-1.1,4.59-1.67,7.08-1.69,2.84-.02,5.64.21,8.27,1.43.09.07.18.14.27.21.26.11.52.23.77.34.06.06.13.12.19.18,3.02,1.61,4.38,4.5,5.77,7.38.11.22.18.46.28.69.16.35.32.7.47,1.04l.31,1.3.21.52c.19,2.2.57,4.4.52,6.6-.07,2.66-.5,5.32-.78,7.97-.09.26-.18.52-.27.78,0,.09,0,.18,0,.27-.07.09-.14.18-.21.28-.2.78-.39,1.55-.59,2.33-.06.09-.13.18-.19.28-.28.95-.55,1.89-.83,2.84-.16.35-.31.71-.47,1.06-.43.86-.86,1.72-1.3,2.59l-.52.8c0,.09-.02.16-.06.24-.24.33-.49.65-.73.98l-2.09,2.63-.23.29c-2.11,1.66-4.22,3.31-6.33,4.97-.23.18-.48.36-.71.54-.17,0-.35,0-.52,0-.37-.13-.74-.26-1.11-.38-.24-.15-.47-.3-.71-.46-2.45-1.24-4.91-2.47-7.36-3.71l-.71-.46c-2.86-1.46-5.73-2.91-8.59-4.37-.18-.1-.37-.19-.55-.29-1.7-.54-2.22-1.67-2.1-3.44.17-2.49.06-5,.07-7.5.07-.18.13-.35.2-.53Zm14.14,5.72c-.02-.25-.04-.5-.05-.75-.07-.1-.14-.19-.21-.29-1.02-1.86-2.66-2.64-4.72-2.65-.09-.12-.18-.25-.26-.37-.09.13-.17.25-.26.38-1.41-.1-2.48.61-3.53,1.42-1.83,1.42-2.03,5.72-.38,7.17,1.7,1.49,4.24,2.09,6.16.98,1.01-.59,1.85-1.48,2.76-2.23.15-.35.3-.71.44-1.06.02-.34.04-.68.06-1.02.73-.52.73-1.05,0-1.56Z" style="fill:#fff;"/><path d="m186.67,171.84c-.01,3.9-1.07,7.53-2.91,10.95-.07.08-.13.15-.2.23-1.74,3.21-4.27,5.75-7.07,8-2.98,2.39-6.46,3.95-10.21,4.44-3.41.44-6.91.46-10.35.25-1.86-.12-3.72-.99-5.49-1.74-3.5-1.5-6.52-3.74-9.05-6.59-1.86-2.09-3.36-4.4-4.56-6.99-1.32-2.84-1.69-5.75-1.35-8.69.38-3.29.61-6.66,2.17-9.73.36-.7.4-1.57.59-2.36.02-.07.03-.14.02-.22.53-.11,1.06-.23,1.59-.34.09-.07.18-.14.28-.21,3.03-.68,6.05-1.36,9.08-2.05.79-.18,1.57-.4,2.35-.6-.09.27-.17.53-.26.8-3.04,1.98-6.11,3.92-9.09,5.98-.62.43-1.1,1.27-1.32,2.01-.88,2.95.1,5.49,2.01,7.74,2.42,2.84,4.29,3.24,7.62,1.62,1.59-.78,3.12-1.67,4.67-2.51l.48.27c.03.43.05.86.08,1.28-.1.34-.2.68-.3,1.03-.61.54-1.29,1.01-1.82,1.62-1.02,1.16-1.95,2.4-2.92,3.61-.12.08-.24.17-.37.25.11.1.21.19.32.29.23.31.49.61.7.94,1.96,3.05,4.65,5.17,8.01,6.49.72.28,1.32.37,2.05-.08,4.26-2.65,8.55-5.26,12.83-7.88.08-.03.14-.08.18-.15.1-.03.21-.06.31-.09.26-.16.51-.32.77-.48l.02-.04c.07-.06.14-.12.2-.19.44-.29.89-.57,1.33-.86,1.33-.85,1.66-2.2,1.81-3.63,0-.96,0-1.93,0-2.89-.06-.07-.11-.15-.17-.22-.33-2.09-1.7-3.35-3.48-4.27-.85-.36-1.69-.72-2.54-1.07-.19.02-.39.05-.58.07-.17-.08-.34-.16-.51-.24-.6.04-1.29-.09-1.78.15-1.76.86-3.45,1.87-5.19,2.8-.86.46-1.75.84-2.63,1.26l-.09-.28c.2-.79.41-1.58.61-2.37,1.28-.89,2.62-1.71,3.81-2.71.69-.58,1.12-1.46,1.66-2.21l.25-.51c0-.35,0-.7,0-1.06.76-.44.77-.87,0-1.3-.71-1.63-1.43-3.27-2.14-4.9.13-.88.25-1.76.41-2.63.19-1.08.41-2.16.62-3.23.69-.51,1.39-1.01,2.08-1.52.27.03.53.05.8.08,4.61,1.82,8.36,4.79,11.44,8.62,1.96,2.44,3.5,5.13,4.32,8.18.08.29.11.59.17.88.07.09.14.18.21.27.17,1.73.35,3.46.52,5.19,0,.52,0,1.03-.01,1.55Z" style="fill:#5a6b5e;"/><path d="m92.97,204.13c-1.15-.26-1.37-1.21-1.76-2.15-.96-2.34-1.17-4.75-1.03-7.23.16-.44.31-.88.47-1.32.4-2.07,1.72-3.54,3.24-4.85.65-.56,1.46-.94,2.19-1.39.1-.07.19-.13.29-.2.25-.11.5-.22.75-.33.1-.07.19-.13.29-.2.08-.03.16-.05.24-.06.09-.07.18-.14.28-.21,1.86-.47,3.77-.81,5.57-1.45,2.97-1.05,6.01-.71,9.02-.63,2.45.06,4.88.59,7.33.9.33.04.68.03,1.01.04.17.09.33.18.5.26,2.76,1.06,5.52,2.13,8.29,3.19.1.06.2.12.3.18,1.56,1.24,3.12,2.48,4.68,3.73.18.25.36.51.54.76,2.08,2.87,3.06,6,2.27,9.55-.1.45-.14.91-.21,1.37-.06.09-.13.18-.19.27-.02.16-.05.33-.07.49-.07.1-.13.2-.2.29-.32,1.78-1.89,1.91-3.18,2.42-.09.06-.18.12-.26.18-2.97.78-5.9,1.87-8.92,2.28-3.73.5-7.54.63-11.3.51-2.39-.08-4.77-.89-7.14-1.39-1.3-.27-2.63-.46-3.87-.91-2.11-.77-4.16-1.72-6.24-2.6-.09-.07-.18-.15-.28-.22-.6-.27-1.2-.53-1.8-.8-.27-.16-.55-.33-.82-.49Z" style="fill:#fefd52;"/><path d="m74.78,156.71c.45-.02.9-.03,1.35-.05.55.49,1.06.63,1.45-.17.02-.17.05-.34.07-.51.09-.17.19-.34.28-.51.08-1.23.15-2.46.25-3.69.05-.62.16-1.23.24-1.84.17,0,.35,0,.52,0,1.53.07,3.06.14,4.59.21.03,6.18.08,12.36.06,18.54,0,.9.24,1.47,1.06,1.79,0,.22,0,.43,0,.65-.04,2.14-.52,2.53-2.62,2.27-1.61-.2-3.23-.39-4.85-.49-.82-.05-1.22-.32-1.12-1.16.08-.63.2-1.26.26-1.9.11-1.07.18-2.13.27-3.2.07-.17.14-.35.21-.52,0-.17,0-.35,0-.52-.24-.16-.49-.32-.73-.48-1.71-.1-3.43-.24-5.14-.28-.85-.02-1.21-.35-1.1-1.18.07-.51.16-1.01.26-1.51.24-1.33.49-2.66.73-4,.02-.13.03-.26.02-.38-.13-1.49-.14-1.43,1.3-1.08.49.12,1.07-.16,1.61-.25.34.09.68.18,1.02.27Z" style="fill:#3c473f;"/><path d="m175.23,166.82c1.78.92,3.14,2.17,3.48,4.27.06.07.11.15.17.22,0,.96,0,1.93,0,2.89-.6,1.21-1.21,2.42-1.81,3.63-.44.29-.89.57-1.33.86-.07.06-.14.12-.2.19,0,0-.02.04-.02.04-.26.16-.51.32-.77.48-.1.03-.21.06-.31.09-.06.05-.12.1-.18.15-4.28,2.62-8.57,5.22-12.83,7.88-.72.45-1.33.37-2.05.08-3.36-1.32-6.05-3.45-8.01-6.49-.21-.33-.46-.62-.7-.94.02-.18.03-.36.05-.54.97-1.21,1.9-2.44,2.92-3.61.53-.61,1.21-1.08,1.82-1.62.16.02.32.04.49.06.17.97.34,1.94.51,2.9-1.11,0-1.13.95-1.24,1.64-.4,2.45,1.02,3.94,2.89,5.15,2.12,1.37,6.37-.06,7.13-2.46,1.19-3.73-.24-6.49-4.79-6.77.42-1.63.84-3.27,1.26-4.9.09-.08.19-.16.28-.24.88-.42,1.77-.81,2.63-1.26,1.73-.92,3.43-1.93,5.19-2.8.5-.25,1.18-.11,1.78-.15.17.08.34.16.51.24.19-.02.39-.05.58-.07.85.36,1.69.72,2.54,1.07Zm-4.44,11.27c3.21,0,5.2-1.83,5.2-4.77,0-2.8-2.02-4.45-5.16-4.63-3.3-.19-5.52,2.39-5.5,4.69.02,2.67,2.36,4.71,5.45,4.71Z" style="fill:#b0b1b1;"/><path d="m155.19,171.83c-1.56.84-3.08,1.73-4.67,2.51-3.33,1.63-5.21,1.22-7.62-1.62-1.91-2.24-2.89-4.79-2.01-7.74.22-.75.7-1.58,1.32-2.01,2.98-2.06,6.05-4,9.09-5.98.26-.08.52-.15.78-.23.17-.09.34-.17.52-.26.52-.09,1.04-.18,1.57-.27.15.74.38,1.47.44,2.22.21,2.38.37,4.76.54,7.15-.31-.09-.63-.17-.94-.26-.32-.68-.52-1.48-.99-2.03-1.63-1.94-3.86-1.79-6.06-1.45-.57.09-1.16.42-1.61.8-1.18,1-1.53,2.2-1.39,3.85.09,1.03-.14,2.02.7,2.77.76.66,1.54,1.39,2.45,1.77,2.53,1.05,6.5-.4,6.91-3.61.31-.26.62-.52.93-.78,1.02,1.18-.1,2.67.55,3.91-.16.43-.33.85-.49,1.28Z" style="fill:#b3b3b3;"/><path d="m92.52,146.6c-.28.94-.56,1.88-.84,2.82-.06.1-.12.2-.17.3-.03.17-.05.34-.08.51-.07.09-.14.19-.21.28-.45,1.46-.91,2.92-1.36,4.38-.05.17-.1.34-.15.5-.3.7-.59,1.4-.89,2.11-.07.1-.13.2-.2.3-.19.51-.38,1.03-.58,1.54-.06.16-.11.32-.17.47-.12.27-.23.55-.35.82-.07.09-.13.19-.2.28-.11.33-.22.67-.33,1-.07.1-.13.2-.2.3-.04.07-.05.15-.05.24-.08.03-.16.02-.24,0-.09-.32-.26-.63-.26-.95-.01-6.87,0-13.74,0-20.61.17-.01.34-.02.52-.03,1.92,1.74,3.83,3.49,5.75,5.23,0,.17,0,.35.01.52Z" style="fill:#fff;"/><path d="m160.45,174.93c4.54.28,5.98,3.04,4.79,6.77-.76,2.4-5.01,3.82-7.13,2.46-1.87-1.21-3.3-2.7-2.89-5.15.11-.69.13-1.63,1.24-1.64-.05.85-.1,1.69-.15,2.54.5.16,1,.32,1.49.48.86.24,1.24-.17,1.44-.97.37-1.5.81-2.99,1.22-4.48Z" style="fill:#df3122;"/><path d="m158.37,169.77c-.54-3.08-.67-6.19-.84-9.3-.1-1.9-.32-3.79-.4-5.69-.02-.4.27-1.01.59-1.18,1.64-.86,3.34-1.6,5.02-2.38.09,0,.17,0,.26.01.08.02.17.05.25.07,0,.08.02.16.05.24-.86,3.66-1.72,7.31-2.58,10.97-.09.25-.19.5-.28.74-.08.45-.15.9-.23,1.34-.1.25-.19.49-.29.74-.38,1.47-.75,2.94-1.13,4.41-.14,0-.29.01-.43.02Z" style="fill:#fff;"/><path d="m116.65,45.39c1.31.63,2.67,1.16,3.91,1.91,4.25,2.58,8.48,5.16,13.24,6.78,3.96,1.36,7.97,1.58,11.97.52,4.46-1.19,8.85-2.66,13.28-3.95.85-.25,1.78-.21,2.68-.31-2.29.88-4.55,1.86-6.89,2.61-3.28,1.05-6.6,1.99-9.94,2.84-4.62,1.18-9.04.39-13.35-1.53-5.21-2.32-9.9-5.48-14.65-8.57-.1-.07-.16-.2-.24-.3Z" style="fill:#333;"/><path d="m167.99,162.22c-.55.75-.98,1.63-1.66,2.21-1.19,1-2.53,1.82-3.81,2.71.34-1.45.69-2.91,1.03-4.36,1.32-.68,1.93-2.96,1.27-4.73.18-1.2.37-2.4.55-3.61.24,0,.49.02.73.02.71,1.63,1.43,3.27,2.14,4.9,0,.43,0,.87,0,1.3,0,.35,0,.7,0,1.06-.08.17-.17.34-.25.51Z" style="fill:#b0b1b1;"/><path d="m91.95,158.27c.35.02.7.03,1.05.05.17.1.34.19.51.29,0,.34.01.67.02,1.01-.07.17-.15.35-.22.52-.01.7-.02,1.39-.04,2.09-.07.17-.15.34-.22.52,0,.53.02,1.06.03,1.6-.1.33-.19.67-.29,1-.03.43-.06.86-.08,1.28-.17.08-.33.17-.5.25-1.46-.06-2.91-.12-4.37-.19,1.27-2.79,2.53-5.58,3.8-8.37.1-.02.21-.03.31-.05Z" style="fill:#3c473f;"/><path d="m60.71,89.59c0-.45-.11-.94.02-1.34,2.47-7.65,5.19-15.21,8.99-22.33.67-1.26,1.41-2.48,2.16-3.69.18-.3.55-.48.83-.71-.68,1.34-1.41,2.67-2.04,4.03-1.62,3.49-3.23,6.97-4.77,10.49-1.06,2.42-2.05,4.87-2.95,7.35-.67,1.83-1.14,3.72-1.73,5.58-.07.24-.33.41-.51.62Z" style="fill:#333;"/><path d="m194.76,79.46c.41.84.95,1.64,1.2,2.53.83,2.89,1.63,5.79,2.31,8.71,1.58,6.79,3.1,13.6,4.62,20.4.04.2-.09.44-.14.66-.48-1.68-1.03-3.35-1.44-5.05-1.12-4.7-2.15-9.42-3.28-14.12-1.05-4.39-2.19-8.76-3.28-13.14Z" style="fill:#333;"/><path d="m56.06,105.23c-.05-.35-.22-.74-.13-1.05,1.23-4.21,2.48-8.4,3.77-12.59.11-.36.48-.63.73-.94-.21.91-.39,1.83-.65,2.73-.52,1.79-1.09,3.57-1.63,5.36-.09.17-.18.34-.26.51-.41,1.41-.8,2.82-1.22,4.22-.18.6-.41,1.18-.61,1.77Z" style="fill:#333;"/><path d="m189.06,65.4c.25.22.61.39.73.67,1.47,3.45,2.91,6.91,4.34,10.37.04.1-.11.29-.17.43-1.63-3.82-3.26-7.65-4.89-11.47Z" style="fill:#333;"/><path d="m164.83,158.04c.66,1.77.04,4.06-1.27,4.73.42-1.58.85-3.16,1.27-4.73Z" style="fill:#df3122;"/><path d="m166.11,154.46c-.24,0-.49-.02-.73-.02.42-1.73.82-3.47,1.27-5.19.06-.24.32-.44.49-.65-.21,1.08-.43,2.15-.62,3.23-.15.87-.27,1.76-.41,2.63Z" style="fill:#5e6e62;"/><path d="m182.84,188.5c.93-1.39,1.86-2.79,2.79-4.18-.52,1.67-1.37,3.12-2.79,4.18Z" style="fill:#070702;"/><path d="m69.33,77.65c-.08.41-.08.86-.26,1.22-.46.91-1.01,1.79-1.53,2.68.01-.87-.11-1.72.81-2.35.46-.32.66-1.02.97-1.55Z" style="fill:#f7f650;"/><path d="m198.85,108.61c-.82-1.08-1.39-2.24-1.23-3.65.19.42.43.83.57,1.27.25.78.44,1.58.66,2.38Z" style="fill:#fdfc52;"/><path d="m185.91,66.45c-.61-.86-1.22-1.73-1.83-2.59,1.27.4,1.46,1.56,1.83,2.59Z" style="fill:#f7f650;"/><path d="m91.96,109.2c-.69.58-1.39,1.17-2.08,1.75.2-1.16,1.01-1.61,2.08-1.75Z" style="fill:#f7f650;"/><path d="m191.02,77.12c-.4-1.05-.8-2.1-1.2-3.14.21.18.55.32.61.53.24.86.4,1.74.59,2.61Z" style="fill:#f7f650;"/><path d="m153.13,67.01c-.61.68-1.22,1.36-1.84,2.05-.2-1.41,1.21-1.38,1.84-2.05Z" style="fill:#eaeaea;"/><path d="m155.13,166.64c-.31.26-.62.52-.93.78,0-.69,0-1.39,0-2.08.31.09.63.17.94.26,0,.35,0,.7-.01,1.05Z" style="fill:#afafaf;"/><path d="m154.16,156.23c-.52.09-1.04.18-1.57.27.07-.23.15-.45.22-.68.51-.08,1.02-.16,1.53-.24-.06.22-.12.43-.19.65Z" style="fill:#5e6e62;"/><path d="m140.1,61.55c-.87.76-1.74.75-2.61,0,.87,0,1.74,0,2.61,0Z" style="fill:#f7f650;"/><path d="m72.71,61.52c.52-.78,1.04-1.57,1.56-2.35-.52.78-1.04,1.57-1.56,2.35Z" style="fill:#333;"/><path d="m154.15,63c.45-.37.89-.75,1.36-1.09.04-.03.3.24.46.38-.61.24-1.22.48-1.82.71Z" style="fill:#f7f650;"/><path d="m87.27,51.62c-.51.44-1.03.87-1.54,1.31.13-.89.64-1.33,1.54-1.31Z" style="fill:#f7f650;"/><path d="m180.98,97.17c-.34.78-.68,1.56-1.02,2.34.07-.34.13-.68.2-1.01,0-.11,0-.21,0-.32.27-.33.54-.67.82-1Z" style="fill:#f7f650;"/><path d="m89.87,69.04c-.42.87-.83,1.75-1.25,2.62.42-.87.83-1.75,1.25-2.62Z" style="fill:#f9f9f9;"/><path d="m150.78,69.61c-.33.51-.67,1.02-1,1.53-.03-.75-.2-1.59,1-1.53Z" style="fill:#eaeaea;"/><path d="m174.99,56.81c-.7-.33-1.4-.65-2.1-.98.72.28,1.75-.09,2.1.98Z" style="fill:#f7f650;"/><path d="m167.94,49.85c.51-.01,1.02-.02,1.53-.03.01.17.02.33.04.5-.67.35-1.24.35-1.57-.47Z" style="fill:#070702;"/><path d="m123.99,54.73c-.71-.12-1.37-.31-1.33-1.24.44.41.88.83,1.33,1.24Z" style="fill:#f7f650;"/><path d="m85.18,116.91c-.28.45-.56.91-.85,1.36-.55-.97.18-1.15.85-1.36Z" style="fill:#f7f650;"/><path d="m113.57,48.75c-.53-.24-1.05-.48-1.58-.72.53.24,1.05.48,1.58.72Z" style="fill:#f7f650;"/><path d="m86.76,140.85c-.17.01-.34.02-.52.03-.16-.15-.31-.3-.47-.45.16-.11.45-.33.47-.31.2.22.35.48.52.72Z" style="fill:#333;"/><path d="m110.97,47.71c-.53-.24-1.05-.48-1.58-.72.53.24,1.05.48,1.58.72Z" style="fill:#f7f650;"/><path d="m155.19,171.83c.16-.43.33-.85.49-1.28,0,.52,0,1.04-.01,1.55-.16-.09-.32-.18-.48-.27Z" style="fill:#5e6e62;"/><path d="m107.79,42.79c.54.16,1.07.32,1.61.48-.54-.16-1.07-.32-1.61-.48Z" style="fill:#333;"/><path d="m170.03,122.14c-.35-.51-.7-1.03-1.05-1.54.35.51.7,1.03,1.05,1.54Z" style="fill:#f7f650;"/><path d="m114.86,157c-.43-.08-.87-.16-1.3-.24.43.08.87.16,1.3.24Z" style="fill:#afafaf;"/><path d="m101.59,152.07l-1.31-.78,1.31.78Z" style="fill:#afafaf;"/><path d="m156.24,64.16c.04.73-.31,1.06-1.04,1,.35-.33.69-.66,1.04-1Z" style="fill:#eaeaea;"/><path d="m157.8,180.39c-.5-.16-1-.32-1.49-.48.5.16,1,.32,1.49.48Z" style="fill:#030303;"/><path d="m81.56,57.39c-.26.33-.53.67-.79,1,.26-.33.53-.67.79-1Z" style="fill:#f7f650;"/><path d="m99.77,151.02c-.67.02-1.12-.17-.96-.97.32.32.64.65.96.97Z" style="fill:#afafaf;"/><path d="m155.94,174.47c-.16-.02-.32-.04-.49-.06.1-.34.2-.68.3-1.03.06.36.13.72.19,1.08Z" style="fill:#5e6e62;"/><path d="m120.07,52.13c-.44-.24-.88-.48-1.31-.71.44.24.88.48,1.31.71Z" style="fill:#f7f650;"/><path d="m97.41,149.47c-.34-.24-.69-.48-1.03-.72.34.24.69.48,1.03.72Z" style="fill:#afafaf;"/><path d="m167.96,119.27c-.27-.34-.54-.68-.8-1.02.27.34.54.68.8,1.02Z" style="fill:#f7f650;"/><path d="m148.69,68.02c.27-.35.53-.7.8-1.04-.27.35-.53.7-.8,1.04Z" style="fill:#f7f650;"/><path d="m115.64,101.37c-.43.07-.87.14-1.3.21.43-.07.87-.14,1.3-.21Z" style="fill:#f7f650;"/><path d="m146.62,71.16c.24-.35.48-.71.72-1.06-.24.35-.48.71-.72,1.06Z" style="fill:#f7f650;"/><path d="m61.1,114.07c.22.44.44.88.66,1.32-.22-.44-.44-.88-.66-1.32Z" style="fill:#f7f650;"/><path d="m82.52,117.17c.09-.34.18-.68.28-1.02-.09.34-.18.68-.28,1.02Z" style="fill:#f7f650;"/><path d="m91.7,44.59c.44-.17.87-.33,1.31-.5-.44.17-.87.33-1.31.5Z" style="fill:#333;"/><path d="m173.91,50.84c.44.25.88.49,1.32.74-.44-.25-.88-.49-1.32-.74Z" style="fill:#333;"/><path d="m147.91,69.06c.26-.35.52-.7.79-1.04-.26.35-.52.7-.79,1.04Z" style="fill:#f7f650;"/><path d="m187.77,63.06c.25.43.5.85.75,1.28-.25-.43-.5-.85-.75-1.28Z" style="fill:#333;"/><path d="m126.58,56.56c-.35-.26-.7-.52-1.05-.78.35.26.7.52,1.05.78Z" style="fill:#f7f650;"/><path d="m145.8,79.45c-.15.44-.3.87-.45,1.31.15-.44.3-.87.45-1.31Z" style="fill:#f9f9f9;"/><path d="m172.53,126.83c-.23-.44-.45-.87-.68-1.31.23.44.45.87.68,1.31Z" style="fill:#f7f650;"/><path d="m95.86,43.53c.43-.09.86-.18,1.29-.27-.43.09-.86.18-1.29.27Z" style="fill:#333;"/><path d="m99.75,45.86c-.32.98-.96.52-1.54.35.51-.12,1.03-.23,1.54-.35Z" style="fill:#f7f650;"/><path d="m182.01,73.2c.16.44.31.88.47,1.32-.16-.44-.31-.88-.47-1.32Z" style="fill:#070702;"/><path d="m91.7,65.41c-.26.44-.51.87-.77,1.31.26-.44.51-.87.77-1.31Z" style="fill:#f9f9f9;"/><path d="m109.66,43.25c.43.09.86.18,1.29.27-.43-.09-.86-.18-1.29-.27Z" style="fill:#333;"/><path d="m111.73,152.12c.44.15.87.31,1.31.46-.44-.15-.87-.31-1.31-.46Z" style="fill:#070702;"/><path d="m83.06,138.02c-.16-.34-.32-.67-.49-1.01.4.22.94.38.49,1.01Z" style="fill:#9e9e9e;"/><path d="m170.02,147.15c-.27-.03-.53-.05-.8-.08.27-.16.54-.31.81-.47,0,.18,0,.36,0,.54Z" style="fill:#5e6e62;"/><path d="m122.92,154.88c.15-.14.31-.28.46-.42.11.23.22.46.32.69-.26-.09-.52-.18-.78-.27Z" style="fill:#f7f650;"/><path d="m163.31,151.55c-.03-.08-.05-.16-.05-.24.04-.23.09-.45.13-.68.13.04.26.08.39.12-.16.27-.31.53-.47.8Z" style="fill:#070702;"/><path d="m61.83,96.95c-.11.33-.22.66-.33.99.11-.33.22-.66.33-.99Z" style="fill:#f7f650;"/><path d="m118.17,59.95c-.32-.26-.65-.53-.97-.79.32.26.65.53.97.79Z" style="fill:#f9f9f9;"/><path d="m90.42,67.76c-.16.35-.33.69-.49,1.04.16-.35.33-.69.49-1.04Z" style="fill:#f9f9f9;"/><path d="m180.99,54.99c.34.26.67.53,1.01.79-.34-.26-.67-.53-1.01-.79Z" style="fill:#333;"/><path d="m90.65,193.43c-.16.44-.31.88-.47,1.32.16-.44.31-.88.47-1.32Z" style="fill:#f7f650;"/><path d="m163.53,199.96c-.35.08-.7.16-1.04.24.35-.08.7-.16,1.04-.24Z" style="fill:#030303;"/><path d="m174.45,102.56c.24-.33.49-.65.73-.98-.24.33-.49.65-.73.98Z" style="fill:#f9f9f9;"/><path d="m163.53,114.59c-.35-.27-.69-.53-1.04-.8.35.27.69.53,1.04.8Z" style="fill:#f7f650;"/><path d="m157.27,150.7c.41-.17.83-.34,1.24-.51-.41.17-.83.34-1.24.51Z" style="fill:#f7f650;"/><path d="m182.77,91.17c.55.68.1.77-.47.79.16-.26.31-.52.47-.79Z" style="fill:#f7f650;"/><path d="m182.51,92.73c.54.68.09.77-.47.79.16-.26.31-.52.47-.79Z" style="fill:#f7f650;"/><path d="m72.44,134.16c.06.83-.52.75-1.04.74l1.04-.74Z" style="fill:#afafaf;"/><path d="m104.71,103.19c-.35.16-.69.32-1.04.47.35-.16.69-.32,1.04-.47Z" style="fill:#f7f650;"/><path d="m179.35,73.74c-.16-.35-.32-.7-.47-1.04.16.35.32.7.47,1.04Z" style="fill:#fff;"/><path d="m177.06,97.96c.16-.35.31-.71.47-1.06-.16.35-.31.71-.47,1.06Z" style="fill:#f9f9f9;"/><path d="m152.81,155.82c-.07.23-.15.45-.22.68-.17.09-.34.17-.52.26-.09-.2-.19-.41-.28-.61.34-.11.68-.22,1.02-.33Z" style="fill:#5a6b5e;"/><path d="m154.93,65.4c-.32.18-.65.36-.97.54.32-.18.65-.36.97-.54Z" style="fill:#eaeaea;"/><path d="m97.42,43.27c.26-.07.53-.15.79-.22-.26.07-.53.15-.79.22Z" style="fill:#333;"/><path d="m89.1,139.31c.26.26.51.52.77.79-.26-.26-.51-.52-.77-.79Z" style="fill:#070702;"/><path d="m88.51,112.25c-.24.27-.48.53-.72.8.24-.27.48-.53.72-.8Z" style="fill:#070702;"/><path d="m55.48,108.09c-.12-.09-.24-.18-.36-.27.3-.08.59-.17.89-.25-.18.18-.36.35-.53.53Z" style="fill:#333;"/><path d="m85.75,74.26c.09-.25.18-.51.27-.76-.09.25-.18.51-.27.76Z" style="fill:#030303;"/><path d="m170.55,55.01c-.26-.08-.52-.15-.78-.23.26.08.52.15.78.23Z" style="fill:#f7f650;"/><path d="m144.31,76.6c.16-.35.31-.71.47-1.06-.16.35-.31.71-.47,1.06Z" style="fill:#070702;"/><path d="m56.6,113.02c-.18-.26-.37-.52-.55-.77.18.26.37.52.55.77Z" style="fill:#333;"/><path d="m117.72,50.84c-.26-.15-.52-.3-.78-.45.26.15.52.3.78.45Z" style="fill:#f7f650;"/><path d="m203.07,119.02c-.08.26-.15.52-.23.79.08-.26.15-.52.23-.79Z" style="fill:#333;"/><path d="m125.53,55.78c-.26-.18-.52-.36-.78-.53.26.18.52.36.78.53Z" style="fill:#f7f650;"/><path d="m105.75,42.76c.11-.16.22-.31.33-.47.15.16.3.32.45.48-.26,0-.52,0-.78-.01Z" style="fill:#333;"/><path d="m54.77,156.5c-.08.26-.16.51-.25.77.08-.26.16-.51.25-.77Z" style="fill:#afafaf;"/><path d="m151.79,156.16c.09.2.19.41.28.61-.26.08-.52.15-.78.23.09-.27.17-.53.26-.8.08-.04.16-.06.24-.04Z" style="fill:#5e6e62;"/><path d="m85.44,85.19c-.07-.26-.14-.52-.21-.78.07.26.14.52.21.78Z" style="fill:#030303;"/><path d="m143.22,104.19c-.26-.07-.52-.14-.78-.21.26.07.52.14.78.21Z" style="fill:#f7f650;"/><path d="m111.21,155.98c-.26-.07-.52-.14-.78-.21.26.07.52.14.78.21Z" style="fill:#afafaf;"/><path d="m55.83,169.76c.15.36.31.71.46,1.07-.15-.36-.31-.71-.46-1.07Z" style="fill:#afafaf;"/><path d="m158.37,169.77c.14,0,.29-.01.43-.02,0,.26,0,.51,0,.77-.14,0-.29,0-.43,0,0-.25,0-.5,0-.75Z" style="fill:#c8c8c8;"/><path d="m146.09,154.37c.26-.08.52-.15.78-.23-.26.08-.52.15-.78.23Z" style="fill:#f7f650;"/><path d="m176.55,57.6c-.27-.16-.53-.31-.8-.47.27.16.53.31.8.47Z" style="fill:#f7f650;"/><path d="m158.36,170.52c.14,0,.29,0,.43,0-.04.21-.08.43-.12.64-.07,0-.14,0-.21,0-.04-.21-.07-.42-.11-.64Z" style="fill:#797979;"/><path d="m105.75,102.93c-.26.07-.53.13-.79.2.26-.07.53-.13.79-.2Z" style="fill:#f7f650;"/><path d="m108.09,102.41c-.26.07-.53.13-.79.2.26-.07.53-.13.79-.2Z" style="fill:#f7f650;"/><path d="m169.51,50.31c-.01-.17-.02-.33-.04-.5.27.16.54.31.82.47-.26.01-.52.02-.78.03Z" style="fill:#333;"/><path d="m119.3,101.34c-.27,0-.53-.01-.8-.02.26-.07.53-.14.79-.21,0,.08,0,.16,0,.23Z" style="fill:#fdfc52;"/><path d="m119.3,101.34c-.01-.08-.02-.16,0-.23.25,0,.5.02.75.03-.25.07-.49.14-.74.21Z" style="fill:#f7f650;"/><path d="m155.76,204.64l.47-1.06-.47,1.06Z" style="fill:#030303;"/><path d="m156.28,203.08c.16-.35.31-.7.47-1.06-.16.35-.31.7-.47,1.06Z" style="fill:#030303;"/><path d="m135.17,193.18c-.18-.25-.36-.51-.54-.76.18.25.36.51.54.76Z" style="fill:#f7f650;"/><path d="m86.51,162.44c.08.03.16.03.24,0-.03.23-.07.46-.1.69-.09,0-.18-.02-.27-.03.04-.22.09-.45.13-.67Z" style="fill:#070702;"/><path d="m170.3,111.74c-.26.19-.51.38-.77.57.26-.19.51-.38.77-.57Z" style="fill:#070702;"/><path d="m58.39,145.56c-.17.26-.34.53-.51.79.17-.26.34-.53.51-.79Z" style="fill:#afafaf;"/><path d="m89.1,97.15c-.16-.26-.32-.52-.48-.78.16.26.32.52.48.78Z" style="fill:#030303;"/><path d="m97.15,58.36c-.25.18-.5.37-.75.55.25-.18.5-.37.75-.55Z" style="fill:#f9f9f9;"/><path d="m74.27,59.17c.18-.26.35-.52.53-.78-.18.26-.35.52-.53.78Z" style="fill:#333;"/><path d="m121.36,59.5c.18.23.35.47.53.7-.18-.23-.35-.47-.53-.7Z" style="fill:#070702;"/><path d="m180.44,60.2c-.26-.18-.52-.36-.78-.54.26.18.52.36.78.54Z" style="fill:#f7f650;"/><path d="m185.67,59.94c.17.25.34.49.51.74-.17-.25-.34-.49-.51-.74Z" style="fill:#333;"/><path d="m92.97,204.13c.27.16.55.33.82.49-.27-.16-.55-.33-.82-.49Z" style="fill:#f7f650;"/><path d="m120.31,58.15c.18.25.36.5.55.74-.18-.25-.36-.5-.55-.74Z" style="fill:#070702;"/><path d="m77.91,187.44c.17.16.34.33.51.49-.17-.16-.34-.33-.51-.49Z" style="fill:#b0b1b1;"/><path d="m175.24,101.34l.52-.8-.52.8Z" style="fill:#f9f9f9;"/><path d="m91.44,61.77l.47-.78-.47.78Z" style="fill:#f7f650;"/><path d="m78.63,61.23c-.15.27-.31.53-.46.8.15-.27.31-.53.46-.8Z" style="fill:#070702;"/><path d="m132.31,185.06c.26.09.51.18.77.27-.26-.09-.51-.18-.77-.27Z" style="fill:#b0b1b1;"/><path d="m183.82,57.6c.18.24.36.49.54.73-.18-.24-.36-.49-.54-.73Z" style="fill:#333;"/><path d="m179.34,90.91c.09-.26.18-.52.27-.78-.09.26-.18.52-.27.78Z" style="fill:#fff;"/><path d="m128.4,57.86l-.78-.53.78.53Z" style="fill:#f7f650;"/><path d="m183.03,89.61l-.45.53.45-.53Z" style="fill:#f7f650;"/><path d="m87.8,67.77c.16-.27.31-.53.47-.8-.16.27-.31.53-.47.8Z" style="fill:#f7f650;"/><path d="m197.56,104.45l-.37-.23.44-.29c-.02.18-.05.35-.07.53Z" style="fill:#fdfc52;"/><path d="m187.41,68.79c-.15-.26-.31-.53-.46-.79.15.26.31.53.46.79Z" style="fill:#f7f650;"/><path d="m171.25,124.23c-.15-.26-.29-.53-.44-.79.15.26.29.53.44.79Z" style="fill:#f7f650;"/><path d="m65.41,120.85c.19.25.39.5.58.75-.19-.25-.39-.5-.58-.75Z" style="fill:#070702;"/><path d="m181.27,71.13c.16.26.31.53.47.79l-.47-.79Z" style="fill:#fdfc52;"/><path d="m97.68,105.81c-.27.15-.53.3-.8.45.27-.15.53-.3.8-.45Z" style="fill:#f7f650;"/><path d="m154.68,105.99l.71.46-.71-.46Z" style="fill:#f9f9f9;"/><path d="m146.33,78.38c-.15.27-.3.55-.45.82.15-.27.3-.55.45-.82Z" style="fill:#f9f9f9;"/><path d="m86.28,72.18c.08-.24.16-.48.24-.73.08-.02.16-.04.23-.07-.16.27-.31.53-.47.8Z" style="fill:#030303;"/><path d="m81.81,118.5c.18-.26.36-.52.54-.77-.18.26-.36.52-.54.77Z" style="fill:#f7f650;"/><path d="m148.69,73.22c-.16.26-.32.52-.48.78.16-.26.32-.52.48-.78Z" style="fill:#eaeaea;"/><path d="m98.99,54.75c.26-.18.52-.35.78-.53-.26.18-.52.35-.78.53Z" style="fill:#f7f650;"/><path d="m54.49,163c.15.18.31.35.46.53-.15-.18-.31-.35-.46-.53Z" style="fill:#030303;"/><path d="m178.9,53.43c.26.17.51.34.77.52-.26-.17-.51-.34-.77-.52Z" style="fill:#333;"/><path d="m169.76,116.43c.16.26.32.51.48.77-.16-.26-.32-.51-.48-.77Z" style="fill:#070702;"/><path d="m178.1,52.92c.26.17.52.34.78.5-.26-.17-.52-.34-.78-.5Z" style="fill:#333;"/><path d="m168.72,115.13c.17.26.35.51.52.77-.17-.26-.35-.51-.52-.77Z" style="fill:#070702;"/><path d="m199.38,110.17l-.47-.79.47.79Z" style="fill:#fdfc52;"/><path d="m84.68,48.25c.26-.18.52-.35.79-.53-.26.18-.52.35-.79.53Z" style="fill:#333;"/><path d="m162.75,110.16c.24.15.47.3.71.46-.24-.15-.47-.3-.71-.46Z" style="fill:#f9f9f9;"/><path d="m120.79,52.66c-.24-.18-.48-.36-.72-.53.24.18.48.36.72.53Z" style="fill:#f7f650;"/><path d="m161.19,112.77l-.78-.53.78.53Z" style="fill:#f7f650;"/><path d="m176.53,137.24l.26.74c-.09-.25-.17-.49-.26-.74Z" style="fill:#f7f650;"/><path d="m72.5,126.25c.24.09.48.19.73.28-.24-.09-.48-.19-.73-.28Z" style="fill:#f7f650;"/><path d="m144.31,85.2c-.08.17-.17.34-.25.51.08-.17.17-.34.25-.51Z" style="fill:#f9f9f9;"/><path d="m103.67,52.36c.24-.09.48-.18.72-.27-.24.09-.48.18-.72.27Z" style="fill:#f7f650;"/><path d="m55.83,111.45c-.02-.17-.04-.34-.06-.51.02.17.04.34.06.51Z" style="fill:#070702;"/><path d="m85.72,86.75c-.07-.17-.15-.35-.22-.52.07.17.15.35.22.52Z" style="fill:#030303;"/><path d="m176.56,52.08c.17.1.34.19.51.29-.17-.1-.34-.19-.51-.29Z" style="fill:#333;"/><path d="m122.41,53.42c-.18-.06-.35-.12-.53-.18.18.06.35.12.53.18Z" style="fill:#f7f650;"/><path d="m200.17,114.59c-.07-.17-.14-.35-.2-.52.07.17.14.35.2.52Z" style="fill:#fdfc52;"/><path d="m83.14,115.38c.09-.17.18-.34.26-.51-.09.17-.18.34-.26.51Z" style="fill:#070702;"/><path d="m106.01,54.52c-.18.07-.35.14-.53.21.18-.07.35-.14.53-.21Z" style="fill:#f9f9f9;"/><path d="m101.31,55.75c-.24.11-.48.23-.71.34.24-.11.48-.23.71-.34Z" style="fill:#f9f9f9;"/><path d="m164.82,197.83c.17-.08.34-.16.51-.24-.17.08-.34.16-.51.24Z" style="fill:#b0b1b1;"/><path d="m76.35,193.44c-.08-.17-.16-.34-.24-.52.08.17.16.34.24.52Z" style="fill:#030303;"/><path d="m60.46,117.44c-.16-.08-.32-.17-.48-.25.16.08.32.17.48.25Z" style="fill:#070702;"/><path d="m160.66,60.16c.23-.14.47-.28.7-.41-.23.14-.47.28-.7.41Z" style="fill:#f7f650;"/><path d="m150.51,106.78c-.17-.07-.35-.13-.52-.2.17.07.35.13.52.2Z" style="fill:#f7f650;"/><path d="m75.83,191.1c-.08-.17-.17-.34-.25-.52.08.17.17.34.25.52Z" style="fill:#030303;"/><path d="m149.21,106.26c-.17-.07-.35-.13-.52-.2.17.07.35.13.52.2Z" style="fill:#f7f650;"/><path d="m59.67,105.48c-.06.18-.13.35-.19.53.06-.18.13-.35.19-.53Z" style="fill:#f7f650;"/><path d="m52.95,155.45c.08-.17.16-.35.24-.52-.08.17-.16.35-.24.52Z" style="fill:#030303;"/><path d="m145.57,104.97l-.52-.2.52.2Z" style="fill:#f7f650;"/><path d="m100.03,104.76c-.24.09-.48.17-.72.26.24-.09.48-.17.72-.26Z" style="fill:#f7f650;"/><path d="m197.31,103.4c-.07-.17-.14-.35-.21-.52.07.17.14.35.21.52Z" style="fill:#fdfc52;"/><path d="m138.81,103.13c-.18-.07-.35-.13-.53-.2.18.07.35.13.53.2Z" style="fill:#f7f650;"/><path d="m159.88,60.42c.17-.07.35-.14.52-.21-.17.07-.35.14-.52.21Z" style="fill:#f7f650;"/><path d="m109.39,102.15c-.17.07-.35.14-.52.21.17-.07.35-.14.52-.21Z" style="fill:#f7f650;"/><path d="m119.29,61.24c-.18-.17-.35-.35-.53-.52.18.17.35.35.53.52Z" style="fill:#f9f9f9;"/><path d="m75.05,127.07l.51.24-.51-.24Z" style="fill:#f7f650;"/><path d="m83.42,127.35c.06.18.13.35.19.53-.06-.18-.13-.35-.19-.53Z" style="fill:#fdfc52;"/><path d="m76.4,187.07c.24.12.48.23.72.35-.24-.12-.48-.23-.72-.35Z" style="fill:#afafaf;"/><path d="m112.78,101.63c-.17.07-.35.14-.52.21.17-.07.35-.14.52-.21Z" style="fill:#f7f650;"/><path d="m142.23,86.75c.08-.17.16-.34.24-.51-.08.17-.16.34-.24.51Z" style="fill:#030303;"/><path d="m179.88,99.75l-.17.53c.06-.18.12-.36.17-.53Z" style="fill:#f7f650;"/><path d="m176.32,129.95c.07.17.15.35.22.52-.07-.17-.15-.35-.22-.52Z" style="fill:#f7f650;"/><path d="m57.89,99.24c.09-.17.18-.34.26-.51-.09.17-.18.34-.26.51Z" style="fill:#030303;"/><path d="m176.58,131.51c.07.17.14.35.22.52-.07-.17-.14-.35-.22-.52Z" style="fill:#f7f650;"/><path d="m84.45,131.77c.1.17.19.33.29.5-.1-.17-.19-.33-.29-.5Z" style="fill:#f7f650;"/><path d="m85.24,133.59l.28.5-.28-.5Z" style="fill:#f7f650;"/><path d="m137.23,186.18c.18.07.35.13.53.2-.18-.07-.35-.13-.53-.2Z" style="fill:#b0b1b1;"/><path d="m135.97,185.81l.49.29-.49-.29Z" style="fill:#b0b1b1;"/><path d="m61.49,98.19c-.06.18-.13.35-.19.53.06-.18.13-.35.19-.53Z" style="fill:#f7f650;"/><path d="m71.2,185.31c.24.1.48.2.72.3-.24-.1-.48-.2-.72-.3Z" style="fill:#afafaf;"/><path d="m121.36,185.33c-.17-.09-.33-.18-.5-.26.17.09.33.18.5.26Z" style="fill:#030303;"/><path d="m131.52,184.85c.17.08.34.15.52.23-.17-.08-.34-.15-.52-.23Z" style="fill:#b0b1b1;"/><path d="m128.13,184.13c.17.07.35.14.52.21-.17-.07-.35-.14-.52-.21Z" style="fill:#030303;"/><path d="m195.49,94.56c-.07-.17-.14-.35-.21-.52.07.17.14.35.21.52Z" style="fill:#fdfc52;"/><path d="m97.94,46.2c-.17.07-.35.15-.52.22.17-.07.35-.15.52-.22Z" style="fill:#f7f650;"/><path d="m56.63,171.85c.09.16.18.33.27.49-.09-.16-.18-.33-.27-.49Z" style="fill:#afafaf;"/><path d="m162,169.79c-.09.08-.19.16-.28.24.07-.18.13-.35.2-.53.03.09.06.19.09.28Z" style="fill:#030303;"/><path d="m92.52,146.6c0-.17,0-.35-.01-.52.13.09.26.17.39.26-.12.09-.25.18-.37.27Z" style="fill:#070702;"/><path d="m54.79,165.86c.08.17.15.35.23.52-.08-.17-.15-.35-.23-.52Z" style="fill:#afafaf;"/><path d="m95.34,148.12c-.09.03-.18.06-.26.09-.08-.05-.16-.06-.25-.02.09-.15.18-.29.28-.44.08.12.16.25.23.37Z" style="fill:#070702;"/><path d="m159.92,165.34c.1-.25.19-.49.29-.74-.1.25-.19.49-.29.74Z" style="fill:#070702;"/><path d="m87.81,73.48c-.08.17-.16.34-.24.52.08-.17.16-.34.24-.52Z" style="fill:#f9f9f9;"/><path d="m160.44,163.26c.09-.25.19-.5.28-.74-.09.25-.19.5-.28.74Z" style="fill:#070702;"/><path d="m103.21,149.16c.24.09.48.18.72.28-.24-.09-.48-.18-.72-.28Z" style="fill:#f7f650;"/><path d="m179.87,75.56c-.07-.17-.14-.35-.21-.52.07.17.14.35.21.52Z" style="fill:#fff;"/><path d="m85.5,75.82c.07-.17.15-.35.22-.52-.07.17-.15.35-.22.52Z" style="fill:#030303;"/><path d="m164.56,111c.17,0,.35,0,.52,0-.09.13-.17.25-.26.38-.09-.12-.18-.25-.27-.37Z" style="fill:#070702;"/><path d="m136.98,159.4c-.17.07-.35.14-.52.21.17-.07.35-.14.52-.21Z" style="fill:#b0b1b1;"/><path d="m123.19,158.57c-.17-.07-.35-.14-.52-.21.17.07.35.14.52.21Z" style="fill:#afafaf;"/><path d="m85.24,77.38c.08-.17.15-.34.23-.51-.08.17-.15.34-.23.51Z" style="fill:#030303;"/><path d="m194.7,90.65c-.06-.18-.13-.35-.19-.53.06.18.13.35.19.53Z" style="fill:#fdfc52;"/><path d="m143.7,89.87l-.2.53c.07-.18.13-.35.2-.53Z" style="fill:#030303;"/><path d="m118.5,157.58c-.08.12-.16.25-.24.37-.09-.15-.18-.3-.28-.44.17.02.34.05.51.07Z" style="fill:#afafaf;"/><path d="m143.48,154.88c.18-.07.35-.13.53-.2-.18.07-.35.13-.53.2Z" style="fill:#f7f650;"/><path d="m115.64,157.26c-.18-.07-.35-.14-.53-.21.18.07.35.14.53.21Z" style="fill:#afafaf;"/><path d="m194.45,89.61c-.07-.17-.14-.35-.21-.52.07.17.14.35.21.52Z" style="fill:#fdfc52;"/><path d="m183.09,79.2l.21.52-.21-.52Z" style="fill:#f7f650;"/><path d="m192.62,82.07c-.08-.17-.15-.34-.23-.52.08.17.15.34.23.52Z" style="fill:#f7f650;"/><path d="m141.97,89.61c.07-.17.14-.35.21-.52-.07.17-.14.35-.21.52Z" style="fill:#030303;"/><path d="m114.6,152.9c.17,0,.35,0,.52,0-.09.12-.17.25-.26.37-.09-.12-.17-.25-.26-.37Z" style="fill:#070702;"/><path d="m53.21,154.15c.08-.17.16-.34.25-.52-.08.17-.16.34-.25.52Z" style="fill:#030303;"/><path d="m106.01,154.15c-.17-.07-.35-.14-.52-.2.17.07.35.14.52.2Z" style="fill:#afafaf;"/><path d="m145.05,82.07c-.08.17-.15.35-.23.52.08-.17.15-.35.23-.52Z" style="fill:#f9f9f9;"/><path d="m112.78,156.49c-.17-.07-.35-.13-.52-.2.17.07.35.13.52.2Z" style="fill:#afafaf;"/><path d="m107.57,154.89c-.24-.1-.48-.19-.72-.29.24.1.48.19.72.29Z" style="fill:#070702;"/><path d="m145.53,101.34c.18.1.37.19.55.29-.18-.1-.37-.19-.55-.29Z" style="fill:#f9f9f9;"/><path d="m163,151.24c-.09,0-.17,0-.26-.01.05-.1.09-.2.14-.3.04.1.08.21.12.31Z" style="fill:#070702;"/><path d="m70.31,75.56c-.07.09-.14.19-.21.28.07-.09.14-.19.21-.28Z" style="fill:#070702;"/><path d="m158.34,110.94c-.09-.06-.18-.13-.27-.19.09.06.18.13.27.19Z" style="fill:#f7f650;"/><path d="m89.71,155.39c.05-.17.1-.34.15-.5-.05.17-.1.34-.15.5Z" style="fill:#070702;"/><path d="m92.47,155.68c-.06.09-.12.19-.17.28.06-.09.12-.19.17-.28Z" style="fill:#afafaf;"/><path d="m65.92,85.68c-.07.1-.13.19-.2.29.07-.1.13-.19.2-.29Z" style="fill:#f7f650;"/><path d="m114.61,49.27l-.26-.21.26.21Z" style="fill:#f7f650;"/><path d="m67.23,82.56c-.07.09-.14.19-.21.28.07-.09.14-.19.21-.28Z" style="fill:#f7f650;"/><path d="m65.13,87.74c-.06.1-.13.2-.19.31.06-.1.13-.2.19-.31Z" style="fill:#f7f650;"/><path d="m119.02,153.93c.09.07.19.14.28.21-.09-.07-.19-.14-.28-.21Z" style="fill:#070702;"/><path d="m110.66,151.82c.1.07.19.14.29.21-.1-.07-.19-.14-.29-.21Z" style="fill:#f7f650;"/><path d="m115.13,49.53c-.09-.06-.18-.13-.27-.19.09.06.18.13.27.19Z" style="fill:#f7f650;"/><path d="m92.21,156.48c-.07.09-.13.18-.2.27.07-.09.13-.18.2-.27Z" style="fill:#afafaf;"/><path d="m154.91,151.8l.28-.22-.28.22Z" style="fill:#070702;"/><path d="m64.35,89.82c-.06.1-.13.2-.19.3.06-.1.13-.2.19-.3Z" style="fill:#f7f650;"/><path d="m88.62,157.79c.07-.1.13-.2.2-.3-.07.1-.13.2-.2.3Z" style="fill:#070702;"/><path d="m56.03,150.73c-.06.1-.12.2-.18.29.06-.1.12-.2.18-.29Z" style="fill:#afafaf;"/><path d="m91.95,158.27c-.1.02-.21.03-.31.05.02-.09.04-.18.06-.26.09.07.17.14.26.21Z" style="fill:#afafaf;"/><path d="m94.29,150.47c-.06.1-.13.19-.19.29.06-.1.13-.19.19-.29Z" style="fill:#afafaf;"/><path d="m120.87,158.31c-.09-.07-.19-.14-.28-.21.09.07.19.14.28.21Z" style="fill:#afafaf;"/><path d="m146.6,77.62l-.2.27.2-.27Z" style="fill:#f9f9f9;"/><path d="m91.22,150.51c.07-.09.14-.19.21-.28-.07.09-.14.19-.21.28Z" style="fill:#070702;"/><path d="m90.91,49.07c-.1.06-.2.13-.29.19.1-.06.2-.13.29-.19Z" style="fill:#f7f650;"/><path d="m140.12,158.84c-.09.07-.18.14-.28.21.09-.07.18-.14.28-.21Z" style="fill:#030303;"/><path d="m87.88,159.81c.06-.16.11-.32.17-.47-.06.16-.11.32-.17.47Z" style="fill:#070702;"/><path d="m179.14,91.45c.07-.09.14-.18.21-.28-.07.09-.14.18-.21.28Z" style="fill:#fff;"/><path d="m138.25,159.39c.01.07,0,.15-.02.22-.07-.07-.14-.14-.21-.21.08-.04.15-.04.23,0Z" style="fill:#b0b1b1;"/><path d="m94.55,149.69c-.06.1-.13.19-.19.29.06-.1.13-.19.19-.29Z" style="fill:#afafaf;"/><path d="m91.51,149.72c.06-.1.12-.2.17-.3-.06.1-.12.2-.17.3Z" style="fill:#070702;"/><path d="m161.39,113.03c-.07-.09-.14-.18-.21-.26.07.09.14.18.21.26Z" style="fill:#f7f650;"/><path d="m56.55,149.43l-.2.29.2-.29Z" style="fill:#afafaf;"/><path d="m159.88,149.46l.27-.25-.27.25Z" style="fill:#f7f650;"/><path d="m86.79,162.22c.07-.1.13-.2.2-.3-.07.1-.13.2-.2.3Z" style="fill:#070702;"/><path d="m160.33,149.18c.11-.06.21-.12.32-.18-.11.06-.21.12-.32.18Z" style="fill:#070702;"/><path d="m94.81,148.92c-.06.09-.13.19-.19.28.06-.09.13-.19.19-.28Z" style="fill:#afafaf;"/><path d="m189.76,73.73c-.07-.09-.14-.18-.21-.27.07.09.14.18.21.27Z" style="fill:#f7f650;"/><path d="m124.48,91.68c-.07.09-.13.18-.2.27.07-.09.13-.18.2-.27Z" style="fill:#f7f650;"/><path d="m56.82,148.67c-.06.09-.13.18-.19.27.06-.09.13-.18.19-.27Z" style="fill:#afafaf;"/><path d="m145.57,73.24l.19-.27-.19.27Z" style="fill:#f7f650;"/><path d="m146.35,72.12c.07-.07.14-.13.21-.2-.07.07-.14.13-.21.2Z" style="fill:#f7f650;"/><path d="m94.83,148.19c.09-.04.17-.03.25.02-.06.07-.13.14-.19.21-.05-.07-.07-.15-.06-.23Z" style="fill:#afafaf;"/><path d="m188.98,71.91c-.07-.09-.14-.18-.21-.27.07.09.14.18.21.27Z" style="fill:#f7f650;"/><path d="m57.08,147.89c-.06.09-.12.18-.18.27.06-.09.12-.18.18-.27Z" style="fill:#afafaf;"/><path d="m86.75,71.38c-.08.03-.15.05-.23.07.06-.1.12-.21.18-.31.05.07.07.15.06.24Z" style="fill:#f7f650;"/><path d="m123.66,70.35l-.21-.28c.07.09.14.18.21.28Z" style="fill:#f9f9f9;"/><path d="m87.01,69.83c.07-.08.13-.17.2-.25-.07.08-.13.17-.2.25Z" style="fill:#f7f650;"/><path d="m87.26,93.02c-.06-.09-.12-.19-.17-.28.06.09.12.19.17.28Z" style="fill:#030303;"/><path d="m53.41,166.9c-.08-.09-.15-.18-.23-.26.08.09.15.18.23.26Z" style="fill:#333;"/><path d="m87.28,69.07c.07-.09.14-.18.21-.27-.07.09-.14.18-.21.27Z" style="fill:#f7f650;"/><path d="m122.87,67.75l-.2-.28.2.28Z" style="fill:#f9f9f9;"/><path d="m123.96,92.98c-.07.09-.14.18-.2.27.07-.09.14-.18.2-.27Z" style="fill:#f7f650;"/><path d="m122.59,66.97c-.06-.09-.12-.18-.18-.27.06.09.12.18.18.27Z" style="fill:#f9f9f9;"/><path d="m122.36,66.45c-.07-.1-.13-.19-.2-.29.07.1.13.19.2.29Z" style="fill:#f9f9f9;"/><path d="m125.07,65.93c.07.09.13.18.2.28-.07-.09-.13-.18-.2-.28Z" style="fill:#f7f650;"/><path d="m150.94,65.58c.06.04.13.07.19.11-.07-.03-.14-.06-.21-.09,0,0,.02-.02.02-.02Z" style="fill:#070702;"/><path d="m115.65,49.79l-.27-.2c.09.07.18.13.27.2Z" style="fill:#f7f650;"/><path d="m88.84,65.68c.07-.09.14-.17.21-.26-.07.09-.14.17-.21.26Z" style="fill:#f7f650;"/><path d="m121.83,65.15c-.07-.09-.14-.18-.21-.27.07.09.14.18.21.27Z" style="fill:#f9f9f9;"/><path d="m167.69,143.94c.06-.06.12-.13.18-.19-.06.06-.12.13-.18.19Z" style="fill:#f7f650;"/><path d="m172.83,64.62c-.06-.06-.13-.12-.19-.18.06.06.13.12.19.18Z" style="fill:#fff;"/><path d="m171.87,64.1c-.09-.07-.18-.14-.27-.21.09.07.18.14.27.21Z" style="fill:#fff;"/><path d="m89.88,63.79c.06-.07.12-.13.18-.2-.06.07-.12.13-.18.2Z" style="fill:#f7f650;"/><path d="m110.16,155.72c-.08,0-.16,0-.23,0,.04-.07.08-.14.12-.21.04.07.07.14.11.21Z" style="fill:#afafaf;"/><path d="m178.36,94.06c.06-.09.13-.18.19-.28-.06.09-.13.18-.19.28Z" style="fill:#f9f9f9;"/><path d="m116.18,50.05c-.09-.07-.18-.13-.27-.2.09.07.18.13.27.2Z" style="fill:#f7f650;"/><path d="m178.88,137.46c.1-.07.19-.14.29-.21-.1.07-.19.14-.29.21Z" style="fill:#f7f650;"/><path d="m94.57,181.74c.08-.09.16-.18.24-.27-.08.09-.16.18-.24.27Z" style="fill:#333;"/><path d="m88.3,95.63c-.06-.09-.12-.19-.18-.28.06.09.12.19.18.28Z" style="fill:#030303;"/><path d="m66.45,137.03c-.09.07-.18.13-.27.2.09-.07.18-.13.27-.2Z" style="fill:#afafaf;"/><path d="m106.55,46.4c-.09-.07-.19-.14-.28-.21.09.07.19.14.28.21Z" style="fill:#f7f650;"/><path d="m79.46,134.85c-.09-.07-.18-.14-.27-.21.09.07.18.14.27.21Z" style="fill:#070702;"/><path d="m157.72,61.04c-.05.04-.11.07-.16.11.05-.05.11-.1.16-.15,0,0,0,.04,0,.04Z" style="fill:#f7f650;"/><path d="m77.92,134.37c-.09-.06-.18-.11-.28-.17.09.06.18.11.28.17Z" style="fill:#9e9e9e;"/><path d="m78.94,60.96c-.07.1-.14.2-.22.29.07-.1.14-.2.22-.29Z" style="fill:#f7f650;"/><path d="m180.17,98.17c0,.11,0,.21,0,.32-.06-.04-.13-.08-.19-.11.06-.07.13-.14.19-.21Z" style="fill:#fefd52;"/><path d="m97.94,186.21c-.09.07-.18.14-.28.21.09-.07.18-.14.28-.21Z" style="fill:#f7f650;"/><path d="m74.23,186.43c.09.07.19.14.28.21-.09-.07-.19-.14-.28-.21Z" style="fill:#afafaf;"/><path d="m97.42,186.47c-.1.07-.19.13-.29.2.1-.07.19-.13.29-.2Z" style="fill:#f7f650;"/><path d="m75,186.69c.1.07.2.14.29.21-.1-.07-.2-.14-.29-.21Z" style="fill:#afafaf;"/><path d="m173.09,128.12c-.07-.09-.13-.18-.2-.27.07.09.13.18.2.27Z" style="fill:#f7f650;"/><path d="m96.38,186.99c-.1.07-.19.13-.29.2.1-.07.19-.13.29-.2Z" style="fill:#f7f650;"/><path d="m175.29,126.31c.06.1.13.19.19.29-.06-.1-.13-.19-.19-.29Z" style="fill:#f7f650;"/><path d="m60.45,102.32c-.07.1-.14.2-.2.3.07-.1.14-.2.2-.3Z" style="fill:#f7f650;"/><path d="m129.95,188.7l-.3-.18.3.18Z" style="fill:#070702;"/><path d="m168.69,59.7c.1.07.2.14.29.21-.1-.07-.2-.14-.29-.21Z" style="fill:#fdfc52;"/><path d="m74.52,189.53c-.09-.08-.17-.16-.26-.24.09.08.17.16.26.24Z" style="fill:#030303;"/><path d="m172.13,105.49l.23-.29-.23.29Z" style="fill:#070702;"/><path d="m96.64,106.33c-.09.07-.18.13-.27.2.09-.07.18-.13.27-.2Z" style="fill:#f7f650;"/><path d="m94.82,107.35l-.28.21.28-.21Z" style="fill:#f7f650;"/><path d="m146.87,59.73c-.1.07-.19.14-.29.21.1-.07.19-.14.29-.21Z" style="fill:#f7f650;"/><path d="m148.17,59.2c-.1.07-.19.14-.29.21.1-.07.19-.14.29-.21Z" style="fill:#f7f650;"/><path d="m87.52,108.3c.07-.07.14-.14.21-.2-.07.07-.14.14-.21.2Z" style="fill:#f7f650;"/><path d="m130.67,59.42c-.06-.07-.13-.13-.19-.2.06.07.13.13.19.2Z" style="fill:#f7f650;"/><path d="m171.33,196.05c.09-.06.17-.12.26-.18-.09.06-.17.12-.26.18Z" style="fill:#030303;"/><path d="m130.23,59.16c-.09-.06-.18-.13-.27-.19.09.06.18.13.27.19Z" style="fill:#f7f650;"/><path d="m151,197.1c.09.07.19.14.28.21-.09-.07-.19-.14-.28-.21Z" style="fill:#b0b1b1;"/><path d="m87.34,108.6c.07-.07.14-.13.21-.2-.07.07-.14.13-.21.2Z" style="fill:#070702;"/><path d="m178.56,58.9c-.07-.07-.13-.13-.2-.2.07.07.13.13.2.2Z" style="fill:#f7f650;"/><path d="m149.47,58.68c-.1.07-.19.14-.29.21.1-.07.19-.14.29-.21Z" style="fill:#f7f650;"/><path d="m154.15,200.43c-.09-.07-.18-.14-.28-.21.09.07.18.14.28.21Z" style="fill:#030303;"/><path d="m154.93,200.65c-.1-.05-.2-.11-.29-.16.1.05.2.11.29.16Z" style="fill:#030303;"/><path d="m129.37,58.64c-.07-.06-.13-.13-.2-.19.07.06.13.13.2.19Z" style="fill:#f7f650;"/><path d="m177.78,58.38c-.07-.07-.13-.13-.2-.2.07.07.13.13.2.2Z" style="fill:#f7f650;"/><path d="m150.77,58.16c-.1.07-.19.14-.29.21.1-.07.19-.14.29-.21Z" style="fill:#f7f650;"/><path d="m137.04,204.37c.06-.09.13-.18.19-.27-.06.09-.13.18-.19.27Z" style="fill:#070702;"/><path d="m136.77,205.15c.07-.1.13-.2.2-.29-.07.1-.13.2-.2.29Z" style="fill:#070702;"/><path d="m95.58,205.42c.09.07.18.15.28.22-.09-.07-.18-.15-.28-.22Z" style="fill:#f7f650;"/><path d="m116.16,58.38c-.09-.07-.17-.14-.26-.2.09.07.17.14.26.2Z" style="fill:#f9f9f9;"/><path d="m128.6,58.12c-.07-.09-.14-.17-.21-.26.07.09.14.17.21.26Z" style="fill:#f7f650;"/><path d="m152.07,57.64l-.29.21.29-.21Z" style="fill:#f7f650;"/><path d="m133.33,207.76c.09-.06.18-.12.26-.18-.09.06-.18.12-.26.18Z" style="fill:#070702;"/><path d="m154.21,209.32c.06-.1.12-.2.19-.3-.06.1-.12.2-.19.3Z" style="fill:#030303;"/><path d="m153.37,57.12c-.1.07-.19.14-.29.21.1-.07.19-.14.29-.21Z" style="fill:#f7f650;"/><path d="m153.94,210.1c.07-.1.13-.2.2-.3-.07.1-.13.2-.2.3Z" style="fill:#030303;"/><path d="m114.36,57.33c-.09-.06-.19-.13-.28-.19.09.06.19.13.28.19Z" style="fill:#f9f9f9;"/><path d="m155.21,109.12c-.09-.07-.18-.14-.27-.21.09.07.18.14.27.21Z" style="fill:#f7f650;"/><path d="m153.16,212.18c.07-.09.14-.18.2-.28-.07.09-.14.18-.2.28Z" style="fill:#030303;"/><path d="m153.89,56.89c-.1.06-.19.12-.29.18.1-.06.19-.12.29-.18Z" style="fill:#f7f650;"/><path d="m82.52,56.29c-.06.07-.12.14-.19.21.06-.07.12-.14.19-.21Z" style="fill:#070702;"/><path d="m82.84,56.02c-.07.1-.15.19-.22.29.07-.1.15-.19.22-.29Z" style="fill:#f7f650;"/><path d="m82.85,115.91c.06-.09.13-.18.19-.27-.06.09-.13.18-.19.27Z" style="fill:#f7f650;"/><path d="m155.71,109.32c-.1-.06-.2-.12-.3-.18.1.06.2.12.3.18Z" style="fill:#070702;"/><path d="m121.64,53.17c-.09-.06-.18-.13-.27-.19.09.06.18.13.27.19Z" style="fill:#f7f650;"/><path d="m60.78,113.56c.07.09.14.18.21.27-.07-.09-.14-.18-.21-.27Z" style="fill:#f7f650;"/><path d="m158.78,111.21c-.06-.07-.13-.13-.19-.2.06.07.13.13.19.2Z" style="fill:#f7f650;"/><path d="m87.32,160.91c.07-.09.13-.19.2-.28-.07.09-.13.19-.2.28Z" style="fill:#070702;"/><path d="m170.58,141.14c.08-.09.15-.19.23-.28-.08.09-.15.19-.23.28Z" style="fill:#070702;"/><path d="m142.44,126.25c2.16.02,4.32.05,6.47.07l.81.46c1.64.63,3.28,1.25,4.92,1.88.02.26.05.51.07.77-.43,1.49-.86,2.98-1.28,4.47-.2.08-.39.16-.59.24-.82-1.58-1.65-3.15-2.64-5.05-2.14-.43-4.74-.92-7.32-1.51-.71-.16-1.35-.67-2.02-1.01,0-.09,0-.18,0-.27.35-.02.69-.03,1.04-.05.17,0,.35,0,.52,0Z" style="fill:#070702;"/><path d="m115.42,129.17c0,.09,0,.18.01.26-.19.1-.38.2-.57.3-1.3-.8-1.55-2.18-1.8-3.5-.3-1.54-1.14-2.23-2.67-2.59-2.29-.53-4.52-1.36-6.73-2.23,2.59-.65,5.08-.19,7.55.46l.52.22c.37.17.73.34,1.1.51.24.1.48.21.73.31.86.61,1.73,1.22,2.59,1.83.02.26.04.52.06.78-.15.88-.3,1.77-.44,2.65-.12.33-.23.66-.35.99Z" style="fill:#030303;"/><path d="m114.86,129.74c.19-.1.38-.2.57-.3-.02.24-.05.48-.07.72l-.51-.42Z" style="fill:#f7f650;"/><path d="m116.21,125.53l-.06-.78c.17.14.33.28.5.42-.14.12-.29.24-.43.36Z" style="fill:#f7f650;"/><path d="m115.42,129.17c.12-.33.23-.66.35-.99-.12.33-.23.66-.35.99Z" style="fill:#f7f650;"/><path d="m154.72,129.43c-.02-.26-.05-.51-.07-.77.17.14.34.27.51.41-.15.12-.29.24-.44.36Z" style="fill:#fdfc52;"/><path d="m152.84,134.14c.2-.08.39-.16.59-.24,0,.21-.02.42-.03.62-.19-.13-.38-.26-.56-.39Z" style="fill:#fdfc52;"/><path d="m149.73,126.78c-.27-.15-.54-.31-.81-.46.27.15.54.31.81.46Z" style="fill:#f7f650;"/><path d="m111.74,122.1l-.52-.22.52.22Z" style="fill:#f7f650;"/><path d="m113.56,122.92c-.24-.1-.48-.21-.73-.31.24.11.48.21.73.31Z" style="fill:#f7f650;"/><path d="m142.44,126.25c-.17,0-.35,0-.52,0,.09-.12.17-.25.26-.37.09.12.18.24.26.37Z" style="fill:#fdfc52;"/><path d="m140.88,126.3c0,.09,0,.18,0,.27-.13-.12-.26-.23-.38-.35.13.03.26.05.39.08Z" style="fill:#fdfc52;"/><path d="m102.55,121.16s-.07.02-.08.01c-.02-.02-.03-.06-.04-.09.04,0,.09-.02.13-.03,0,.03-.01.06-.02.1Z" style="fill:#f7f650;"/><path d="m125.8,165.87c.51,0,1.19-.19,1.5.06.97.79,1.81,1.74,2.66,2.67.11.12,0,.44,0,.67-.26.17-.51.34-.77.5-.18.18-.36.36-.53.54l-.77.5c-.18.18-.35.36-.53.53-.26.17-.52.34-.77.5-1.5,1.2-3.03,2.37-4.5,3.6-.62.52-1.11.65-1.75.06-1.18-1.08-2.4-2.12-3.72-3.28,2.95-2.5,5.59-4.83,8.92-6.15.09-.07.18-.14.27-.21Z" style="fill:#030303;"/><path d="m115.12,167.68c-.96.71-1.91,1.42-2.87,2.13l-.25.21c-1.81,1.16-3.64,2.3-5.43,3.49-.79.53-1.4.46-1.95-.32-.66-.94-1.41-1.83-2.01-2.81-.15-.24,0-.9.25-1.12,2.46-2.23,5.51-3.46,8.47-4.83.39-.18,1.18.1,1.58.43.83.68,1.53,1.52,2.28,2.3-.02.17-.05.35-.07.52Z" style="fill:#030303;"/><path d="m186.67,171.84c0-.52,0-1.03.01-1.55,0,.52,0,1.03-.01,1.55Z" style="fill:#797979;"/><path d="m77.58,156.49c-.4.8-.91.66-1.45.17.49-.06.97-.11,1.45-.17Z" style="fill:#afafaf;"/><path d="m92.79,165.34c.1-.34.19-.67.29-1-.1.34-.19.67-.29,1Z" style="fill:#b0b1b1;"/><path d="m74.78,156.71c-.34-.09-.68-.18-1.02-.27.34.09.68.18,1.02.27Z" style="fill:#afafaf;"/><path d="m76.08,165.12c.24.16.49.32.73.48-.24-.16-.49-.32-.73-.48Z" style="fill:#b0b1b1;"/><path d="m92.21,166.88c.17-.08.33-.17.5-.25.05.14.1.27.14.41-.21-.05-.43-.1-.64-.16Z" style="fill:#b0b1b1;"/><path d="m126.58,171.85c.26-.17.52-.34.77-.5-.26.17-.52.34-.77.5Z" style="fill:#afafaf;"/><path d="m127.89,170.81l.77-.5-.77.5Z" style="fill:#afafaf;"/><path d="m129.19,169.77c.26-.17.51-.34.77-.5-.26.17-.51.34-.77.5Z" style="fill:#afafaf;"/><path d="m115.12,167.68c.02-.17.05-.35.07-.52l.34.29c-.14.08-.28.15-.42.23Z" style="fill:#afafaf;"/><path d="m76.82,166.12c-.07.17-.14.35-.21.52.07-.17.14-.35.21-.52Z" style="fill:#b0b1b1;"/><path d="m93.05,162.74c.07-.17.15-.34.22-.52-.07.17-.15.34-.22.52Z" style="fill:#b0b1b1;"/><path d="m78.95,149.94c-.17,0-.35,0-.52,0,.09-.12.18-.24.26-.36.09.12.17.25.26.37Z" style="fill:#b0b1b1;"/><path d="m93.3,160.14c.07-.17.15-.35.22-.52-.07.17-.15.35-.22.52Z" style="fill:#b0b1b1;"/><path d="m93.51,158.61c-.17-.1-.34-.19-.51-.29l.51.29Z" style="fill:#afafaf;"/><path d="m77.93,155.46c-.09.17-.19.34-.28.51.09-.17.19-.34.28-.51Z" style="fill:#afafaf;"/><path d="m119.64,157.97c-.04.06-.08.12-.12.18.03-.07.06-.14.09-.21,0,0,.03.03.03.03Z" style="fill:#afafaf;"/><path d="m186.16,165.1c-.07-.09-.14-.18-.21-.27.07.09.14.18.21.27Z" style="fill:#b0b1b1;"/><path d="m125.8,165.87c-.09.07-.18.14-.27.21.09-.07.18-.14.27-.21Z" style="fill:#afafaf;"/><path d="m112,170.03c.08-.07.17-.14.25-.21-.08.07-.17.14-.25.21Z" style="fill:#afafaf;"/><path d="m183.56,183.02c.07-.08.13-.15.2-.23-.07.08-.13.15-.2.23Z" style="fill:#5e6e62;"/><path d="m112.19,86.48c2.77-.08,5.32,2.18,5.26,5.05-.06,2.85-2.6,5.7-6.17,5.64-2.28-.04-4.23-2.26-4.22-5.02,0-2.89,2.54-6.09,5.13-5.67Z" style="fill:#030303;"/><path d="m157.85,97.16c-.02.34-.04.68-.06,1.02-.15.35-.3.71-.44,1.06-.92.75-1.75,1.64-2.76,2.23-1.92,1.11-4.46.51-6.16-.98-1.65-1.45-1.45-5.75.38-7.17,1.05-.81,2.12-1.52,3.53-1.42.17,0,.35,0,.52,0,2.06.01,3.7.79,4.72,2.65.07.1.14.19.21.29.02.25.04.5.05.75,0,.52,0,1.04,0,1.56Z" style="fill:#030303;"/><path d="m157.85,97.16c0-.52,0-1.04,0-1.56.73.52.74,1.04,0,1.56Z" style="fill:#f9f9f9;"/><path d="m157.35,99.24c.15-.35.3-.71.44-1.06-.15.35-.3.71-.44,1.06Z" style="fill:#f9f9f9;"/><path d="m152.85,91.91c-.17,0-.35,0-.52,0l.26-.38c.09.12.18.25.26.37Z" style="fill:#f9f9f9;"/><path d="m157.79,94.84c-.07-.1-.14-.19-.21-.29.07.1.14.19.21.29Z" style="fill:#f9f9f9;"/><path d="m177.07,177.84c.6-1.21,1.21-2.42,1.81-3.63-.16,1.43-.49,2.78-1.81,3.63Z" style="fill:#5e6e62;"/><path d="m175.23,166.82c-.85-.36-1.7-.72-2.54-1.07.85.36,1.7.72,2.54,1.07Z" style="fill:#5e6e62;"/><path d="m168.25,160.66c0-.43,0-.87,0-1.3.77.43.76.87,0,1.3Z" style="fill:#5e6e62;"/><path d="m174.74,179.4c.26-.16.51-.32.77-.48-.26.16-.51.32-.77.48Z" style="fill:#5e6e62;"/><path d="m150.72,179.64c-.02.18-.03.36-.05.54-.11-.1-.21-.19-.32-.29.12-.08.24-.17.37-.25Z" style="fill:#5e6e62;"/><path d="m172.11,165.82c-.17-.08-.34-.16-.51-.24.17.08.34.16.51.24Z" style="fill:#5e6e62;"/><path d="m167.99,162.22c.08-.17.17-.34.25-.51-.08.17-.17.34-.25.51Z" style="fill:#5e6e62;"/><path d="m178.88,171.31c-.06-.07-.11-.15-.17-.22.06.07.11.15.17.22Z" style="fill:#5e6e62;"/><path d="m175.53,178.88c.07-.06.14-.12.2-.19-.07.06-.14.12-.2.19Z" style="fill:#5e6e62;"/><path d="m174.25,179.64c.06-.05.12-.1.18-.15-.04.07-.11.12-.18.15Z" style="fill:#5e6e62;"/><path d="m170.79,178.09c-3.09,0-5.43-2.04-5.45-4.71-.02-2.3,2.2-4.88,5.5-4.69,3.15.18,5.16,1.83,5.16,4.63,0,2.95-2,4.77-5.2,4.77Z" style="fill:#df3122;"/><path d="m154.2,165.34c0,.69,0,1.39,0,2.08-.41,3.21-4.37,4.66-6.91,3.61-.91-.38-1.69-1.1-2.45-1.77-.85-.74-.62-1.74-.7-2.77-.14-1.64.22-2.85,1.39-3.85.45-.38,1.04-.71,1.61-.8,2.2-.34,4.43-.49,6.06,1.45.47.56.67,1.35.99,2.03Z" style="fill:#df3122;"/></svg>