<?xml version="1.0" encoding="UTF-8"?><svg id="a" xmlns="http://www.w3.org/2000/svg" viewBox="0 0 256 256"><rect width="256" height="256" rx="60" ry="60" style="fill:#242938;"/><path d="m21.82,127.03c3.54,0,4.04-1.95,4.04-3.69,0-1.4-.2-2.79-.4-4.19-.2-1.4-.4-2.74-.4-4.14,0-4.59,2.99-6.54,7.24-6.54h1.05v2.74h-.9c-2.94,0-3.94,1.6-3.94,4.29,0,1.15.15,2.35.35,3.54.2,1.25.35,2.44.35,3.79.05,3.19-1.35,4.79-3.59,5.39v.1c2.25.55,3.64,2.25,3.59,5.44,0,1.35-.15,2.59-.35,3.79-.2,1.25-.35,2.4-.35,3.59,0,2.79,1.15,4.34,3.94,4.34h.9v2.74h-1.05c-4.14,0-7.24-1.8-7.24-6.83,0-1.35.2-2.75.4-4.09.2-1.35.4-2.69.4-4.04,0-1.55-.5-3.69-4.04-3.69v-2.54Z" style="fill:#acacac;"/><path d="m141.44,120.76c0-1.37.92-2.33,2.22-2.33s2.14.96,2.18,2.33c0,1.29-.85,2.29-2.22,2.29-1.29,0-2.18-1-2.18-2.29Zm0,13.04c0-1.37.92-2.33,2.22-2.33s2.14.96,2.18,2.33c0,1.29-.85,2.29-2.22,2.29-1.29,0-2.18-1-2.18-2.29Z" style="fill:#acacac;"/><path d="m234.18,129.57c-3.54,0-4.04,2.15-4.04,3.69,0,1.35.2,2.69.4,4.04.2,1.35.4,2.74.4,4.09,0,5.04-3.14,6.83-7.24,6.83h-1.05v-2.74h.85c2.79-.05,3.99-1.55,3.99-4.34,0-1.2-.2-2.34-.35-3.59-.2-1.2-.4-2.44-.4-3.79,0-3.19,1.4-4.89,3.59-5.44v-.1c-2.2-.6-3.59-2.2-3.59-5.39,0-1.35.2-2.54.4-3.79.15-1.2.35-2.4.35-3.54,0-2.69-1.05-4.24-3.94-4.29h-.9v-2.74h1c4.24,0,7.29,1.95,7.29,6.54,0,1.4-.2,2.74-.4,4.14-.2,1.4-.4,2.79-.4,4.19,0,1.75.5,3.69,4.04,3.69v2.54Z" style="fill:#acacac;"/><path d="m157.66,132.07l-3.49,10.58h-4.49l11.43-33.63h5.24l11.48,33.63h-4.64l-3.59-10.58h-11.93Zm11.03-3.39l-3.29-9.68c-.75-2.2-1.25-4.19-1.75-6.14h-.1c-.5,2-1.05,4.04-1.7,6.09l-3.29,9.73h10.13Z" style="fill:#242938;"/><path d="m182.76,109.41c2.1-.35,4.84-.65,8.33-.65,4.29,0,7.43,1,9.43,2.79,1.85,1.6,2.94,4.04,2.94,7.04s-.9,5.44-2.59,7.19c-2.29,2.44-6.04,3.69-10.28,3.69-1.3,0-2.5-.05-3.49-.3v13.47h-4.34v-33.23Zm4.34,16.22c.95.25,2.15.35,3.59.35,5.24,0,8.43-2.54,8.43-7.19s-3.14-6.59-7.93-6.59c-1.9,0-3.34.15-4.09.35v13.07Z" style="fill:#242938;"/><path d="m213.64,109.01v33.63h-4.34v-33.63h4.34Z" style="fill:#242938;"/><path d="m157.66,132.07l-3.49,10.58h-4.49l11.43-33.63h5.24l11.48,33.63h-4.64l-3.59-10.58h-11.93Zm11.03-3.39l-3.29-9.68c-.75-2.2-1.25-4.19-1.75-6.14h-.1c-.5,2-1.05,4.04-1.7,6.09l-3.29,9.73h10.13Z" style="fill:#4883b2;"/><path d="m182.76,109.41c2.1-.35,4.84-.65,8.33-.65,4.29,0,7.43,1,9.43,2.79,1.85,1.6,2.94,4.04,2.94,7.04s-.9,5.44-2.59,7.19c-2.29,2.44-6.04,3.69-10.28,3.69-1.3,0-2.5-.05-3.49-.3v13.47h-4.34v-33.23Zm4.34,16.22c.95.25,2.15.35,3.59.35,5.24,0,8.43-2.54,8.43-7.19s-3.14-6.59-7.93-6.59c-1.9,0-3.34.15-4.09.35v13.07Z" style="fill:#4883b2;"/><path d="m213.64,109.01v33.63h-4.34v-33.63h4.34Z" style="fill:#4883b2;"/><path d="m42.36,109.46c2.2-.45,5.34-.7,8.33-.7,4.64,0,7.63.85,9.73,2.74,1.7,1.5,2.64,3.79,2.64,6.39,0,4.44-2.79,7.38-6.34,8.58v.15c2.59.9,4.14,3.29,4.94,6.79,1.1,4.69,1.9,7.93,2.59,9.23h-4.49c-.55-.95-1.3-3.84-2.25-8.03-1-4.64-2.79-6.39-6.74-6.54h-4.09v14.57h-4.34v-33.18Zm4.34,15.32h4.44c4.64,0,7.58-2.54,7.58-6.39,0-4.34-3.14-6.24-7.73-6.29-2.1,0-3.59.2-4.29.4v12.27Z" style="fill:#4883b2;"/><path d="m86.61,126.88h-13.07v12.12h14.57v3.64h-18.91v-33.63h18.16v3.64h-13.82v10.63h13.07v3.59Z" style="fill:#4883b2;"/><path d="m93.15,137.36c1.95,1.2,4.79,2.2,7.78,2.2,4.44,0,7.04-2.34,7.04-5.74,0-3.14-1.8-4.94-6.34-6.69-5.49-1.95-8.88-4.79-8.88-9.53,0-5.24,4.34-9.13,10.88-9.13,3.44,0,5.94.8,7.43,1.65l-1.2,3.54c-1.1-.6-3.34-1.6-6.39-1.6-4.59,0-6.34,2.74-6.34,5.04,0,3.14,2.05,4.69,6.69,6.49,5.69,2.2,8.58,4.94,8.58,9.88,0,5.19-3.84,9.68-11.78,9.68-3.24,0-6.79-.95-8.58-2.15l1.1-3.64Z" style="fill:#4883b2;"/><path d="m124.73,112.71h-10.23v-3.69h24.9v3.69h-10.28v29.94h-4.39v-29.94Z" style="fill:#4883b2;"/></svg>