<?xml version="1.0" encoding="UTF-8"?><svg id="a" xmlns="http://www.w3.org/2000/svg" viewBox="0 0 256 256"><rect width="256" height="256" rx="60" ry="60" style="fill:#ea5906;"/><path d="m65.56,163.6h-9.65v-82.34h9.65v82.34Z" style="fill:#fff;"/><path d="m123.09,81.26l-39.5,96h-8.79l39.39-96h8.9Z" style="fill:#fff;"/><path d="m166.21,164.98c-11.68,0-21.03-3.85-28.05-11.54-7.02-7.69-10.54-17.7-10.54-30.03,0-13.24,3.58-23.81,10.74-31.69,7.16-7.89,16.9-11.83,29.23-11.83,11.37,0,20.53,3.83,27.47,11.48,6.95,7.66,10.42,17.67,10.42,30.03,0,13.44-3.56,24.06-10.68,31.87s-16.65,11.71-28.59,11.71Zm.69-76.37c-8.65,0-15.68,3.12-21.07,9.36-5.4,6.24-8.1,14.43-8.1,24.57s2.63,18.31,7.89,24.49c5.26,6.18,12.12,9.27,20.58,9.27,9.03,0,16.15-2.95,21.36-8.84,5.21-5.89,7.81-14.14,7.81-24.75s-2.53-19.27-7.58-25.21c-5.05-5.93-12.02-8.9-20.9-8.9Z" style="fill:#fff;"/></svg>